{"glyphs":{"0":{"ha":983,"x_min":97,"x_max":886,"o":"m 492 -10 q 288 37 378 -10 q 147 166 197 83 q 97 354 97 249 l 97 619 q 147 808 97 725 q 288 937 197 890 q 492 983 378 983 q 696 937 606 983 q 836 808 786 890 q 886 619 886 725 l 886 354 q 836 166 886 249 q 696 37 786 83 q 492 -10 606 -10 m 492 49 q 665 88 589 49 q 784 196 742 126 q 826 354 826 265 l 826 619 q 784 778 826 708 q 665 886 742 847 q 492 925 589 925 q 318 886 394 925 q 199 778 242 847 q 157 619 157 708 l 157 354 q 199 196 157 265 q 318 88 242 126 q 492 49 394 49 z "},"1":{"ha":549,"x_min":53,"x_max":515,"o":"m 319 58 l 515 58 l 515 0 l 53 0 l 53 58 l 260 58 l 260 904 l 75 858 l 75 918 l 311 975 l 319 975 l 319 58 z "},"2":{"ha":926,"x_min":93,"x_max":836,"o":"m 153 58 l 835 58 l 835 0 l 93 0 l 93 218 q 191 415 93 346 q 467 485 289 485 q 697 541 617 485 q 776 704 776 597 q 692 867 776 807 q 467 928 608 928 q 242 871 324 928 q 158 715 160 814 l 99 715 q 144 858 99 797 q 272 952 189 919 q 467 985 356 985 q 662 950 578 985 q 791 852 746 915 q 836 704 836 789 q 741 499 836 571 q 471 426 646 426 q 235 373 318 426 q 153 218 153 319 l 153 58 z "},"3":{"ha":918,"x_min":82,"x_max":832,"o":"m 615 499 q 769 408 707 478 q 832 253 832 338 q 731 58 832 129 q 457 -12 631 -12 q 258 19 343 -12 q 128 109 174 51 q 82 243 82 167 l 142 243 q 228 100 142 154 q 460 46 315 46 q 689 101 606 46 q 772 250 772 156 q 732 363 772 313 q 621 443 692 414 q 461 472 550 472 l 297 472 l 297 528 l 457 528 q 611 554 543 528 q 717 627 679 581 q 756 732 756 674 q 676 875 756 824 q 454 926 596 926 q 238 874 318 926 q 157 738 157 822 l 97 738 q 141 867 97 811 q 266 953 185 922 q 454 985 347 985 q 718 917 621 985 q 815 732 815 849 q 759 585 815 650 q 615 499 703 519 z "},"4":{"ha":889,"x_min":38,"x_max":826,"o":"m 826 281 l 826 222 l 704 222 l 704 0 l 644 0 l 644 222 l 46 222 l 38 283 l 636 972 l 704 972 l 704 281 l 826 281 m 644 894 l 110 281 l 644 281 l 644 894 z "},"5":{"ha":911,"x_min":88,"x_max":840,"o":"m 494 593 q 749 514 658 593 q 840 293 840 435 q 794 136 840 204 q 662 31 747 68 q 464 -6 576 -6 q 187 66 286 -6 q 88 267 88 138 l 147 267 q 230 109 147 165 q 463 53 313 53 q 694 118 608 53 q 781 293 781 183 q 707 472 781 410 q 494 535 633 535 l 115 535 l 115 972 l 786 972 l 786 914 l 175 914 l 175 593 l 494 593 z "},"6":{"ha":964,"x_min":115,"x_max":888,"o":"m 504 586 q 705 549 618 586 q 840 444 792 511 q 888 288 888 376 q 840 131 888 199 q 704 27 792 64 q 501 -10 617 -10 q 299 27 386 -10 q 163 131 211 64 q 115 288 115 199 l 115 686 q 216 905 115 825 q 489 985 317 985 q 678 956 596 985 q 810 872 761 926 q 863 743 858 817 l 803 743 q 710 876 797 826 q 488 926 624 926 q 258 863 342 926 q 175 685 175 799 l 175 451 q 504 586 285 586 m 501 47 q 739 113 650 47 q 828 288 828 178 q 739 463 828 397 q 501 528 650 528 q 264 463 353 528 q 175 288 175 397 q 264 113 175 178 q 501 47 353 47 z "},"7":{"ha":782,"x_min":43,"x_max":764,"o":"m 43 972 l 764 972 l 764 928 l 228 0 l 158 0 l 688 914 l 43 914 l 43 972 z "},"8":{"ha":969,"x_min":90,"x_max":879,"o":"m 657 504 q 817 415 754 482 q 879 258 879 347 q 830 116 879 178 q 691 20 781 54 q 485 -14 601 -14 q 278 20 368 -14 q 140 116 189 54 q 90 258 90 178 q 153 415 90 347 q 313 504 215 482 q 166 593 218 533 q 114 733 114 653 q 160 867 114 808 q 291 957 207 925 q 485 989 375 989 q 678 957 594 989 q 809 867 763 925 q 856 733 856 808 q 803 593 856 653 q 657 504 751 533 m 172 732 q 212 628 172 674 q 323 556 251 582 q 485 531 394 531 q 647 556 576 531 q 758 628 718 582 q 797 732 797 674 q 758 836 797 790 q 647 908 718 882 q 485 933 576 933 q 323 908 394 933 q 212 836 251 882 q 172 732 172 790 m 485 43 q 660 70 583 43 q 778 147 736 97 q 821 260 821 196 q 778 372 821 324 q 660 449 736 421 q 485 476 583 476 q 310 449 386 476 q 192 372 233 421 q 150 260 150 324 q 192 147 150 196 q 310 70 233 97 q 485 43 386 43 z "},"9":{"ha":964,"x_min":76,"x_max":849,"o":"m 463 985 q 665 948 578 985 q 801 844 753 911 q 849 688 849 776 l 849 293 q 746 71 849 151 q 467 -10 643 -10 q 208 55 307 -10 q 100 232 108 119 l 161 232 q 250 99 165 149 q 468 49 335 49 q 702 113 615 49 q 789 293 789 178 l 789 524 q 460 389 676 389 q 259 426 346 389 q 124 531 172 464 q 76 688 76 599 q 124 844 76 776 q 260 948 172 911 q 463 985 347 985 m 463 447 q 700 513 611 447 q 789 688 789 578 q 700 863 789 797 q 463 928 611 928 q 225 863 314 928 q 136 688 136 797 q 225 513 136 578 q 463 447 314 447 z "},"\r":{"ha":482,"x_min":0,"x_max":0,"o":""}," ":{"ha":371,"x_min":0,"x_max":0,"o":""},"A":{"ha":1022,"x_min":39,"x_max":983,"o":"m 917 0 l 807 244 l 215 244 l 106 0 l 39 0 l 475 972 l 547 972 l 983 0 l 917 0 m 511 907 l 240 304 l 782 304 l 511 907 z "},"Á":{"ha":1022,"x_min":39,"x_max":983,"o":"m 917 0 l 807 244 l 215 244 l 106 0 l 39 0 l 475 972 l 547 972 l 983 0 l 917 0 m 511 907 l 240 304 l 782 304 l 511 907 m 583 1246 l 653 1246 l 533 1083 l 476 1083 l 583 1246 z "},"Ă":{"ha":1022,"x_min":39,"x_max":983,"o":"m 917 0 l 807 244 l 215 244 l 106 0 l 39 0 l 475 972 l 547 972 l 983 0 l 917 0 m 511 907 l 240 304 l 782 304 l 511 907 m 511 1085 q 390 1129 438 1085 q 343 1243 343 1174 l 393 1243 q 426 1165 393 1194 q 511 1135 458 1135 q 596 1165 564 1135 q 628 1243 628 1194 l 679 1243 q 632 1130 679 1175 q 511 1085 585 1085 z "},"Â":{"ha":1022,"x_min":39,"x_max":983,"o":"m 917 0 l 807 244 l 215 244 l 106 0 l 39 0 l 475 972 l 547 972 l 983 0 l 917 0 m 511 907 l 240 304 l 782 304 l 511 907 m 699 1083 l 632 1083 l 511 1200 l 389 1083 l 322 1083 l 485 1246 l 536 1246 l 699 1083 z "},"Ä":{"ha":1022,"x_min":39,"x_max":983,"o":"m 917 0 l 807 244 l 215 244 l 106 0 l 39 0 l 475 972 l 547 972 l 983 0 l 917 0 m 511 907 l 240 304 l 782 304 l 511 907 m 378 1129 q 341 1144 356 1129 q 326 1182 326 1160 q 341 1219 326 1204 q 378 1235 356 1235 q 415 1220 400 1235 q 431 1182 431 1206 q 415 1144 431 1160 q 378 1129 400 1129 m 643 1129 q 606 1144 621 1129 q 590 1182 590 1160 q 606 1219 590 1204 q 643 1235 621 1235 q 681 1220 665 1235 q 696 1182 696 1206 q 681 1144 696 1160 q 643 1129 665 1129 z "},"À":{"ha":1022,"x_min":39,"x_max":983,"o":"m 917 0 l 807 244 l 215 244 l 106 0 l 39 0 l 475 972 l 547 972 l 983 0 l 917 0 m 511 907 l 240 304 l 782 304 l 511 907 m 489 1083 l 368 1246 l 438 1246 l 544 1083 l 489 1083 z "},"Ā":{"ha":1022,"x_min":39,"x_max":983,"o":"m 917 0 l 807 244 l 215 244 l 106 0 l 39 0 l 475 972 l 547 972 l 983 0 l 917 0 m 511 907 l 240 304 l 782 304 l 511 907 m 317 1178 l 707 1178 l 707 1129 l 317 1129 l 317 1178 z "},"Ą":{"ha":1022,"x_min":39,"x_max":1083,"o":"m 1083 -197 q 928 -257 1015 -257 q 828 -224 865 -257 q 792 -136 792 -192 q 908 17 792 -47 l 807 244 l 215 244 l 106 0 l 39 0 l 475 972 l 547 972 l 983 0 q 881 -61 914 -29 q 849 -131 849 -93 q 871 -184 849 -165 q 933 -203 893 -203 q 1054 -157 1003 -203 l 1083 -197 m 511 907 l 240 304 l 782 304 l 511 907 z "},"Å":{"ha":1022,"x_min":39,"x_max":983,"o":"m 807 244 l 215 244 l 106 0 l 39 0 l 458 936 q 394 984 418 950 q 369 1064 369 1018 q 409 1160 369 1122 q 511 1199 449 1199 q 613 1160 574 1199 q 653 1064 653 1122 q 628 984 653 1018 q 564 936 604 950 l 983 0 l 917 0 l 807 244 m 418 1064 q 444 999 418 1024 q 511 974 469 974 q 578 999 553 974 q 604 1064 604 1024 q 578 1128 604 1104 q 511 1153 553 1153 q 444 1128 469 1153 q 418 1064 418 1104 m 782 304 l 511 907 l 240 304 l 782 304 z "},"Ã":{"ha":1022,"x_min":39,"x_max":983,"o":"m 917 0 l 807 244 l 215 244 l 106 0 l 39 0 l 475 972 l 547 972 l 983 0 l 917 0 m 511 907 l 240 304 l 782 304 l 511 907 m 600 1113 q 558 1119 579 1113 q 504 1144 536 1126 q 453 1170 469 1164 q 421 1176 436 1176 q 369 1128 386 1176 l 331 1144 q 365 1205 342 1183 q 421 1226 388 1226 q 460 1219 440 1226 q 522 1190 481 1213 q 569 1168 553 1174 q 599 1163 585 1163 q 651 1213 635 1163 l 692 1199 q 658 1135 682 1157 q 600 1113 633 1113 z "},"Æ":{"ha":1400,"x_min":-32,"x_max":1318,"o":"m 744 58 l 1318 58 l 1318 0 l 686 0 l 686 301 l 256 301 l 40 0 l -32 0 l 654 972 l 1296 972 l 1296 914 l 744 914 l 744 521 l 1265 521 l 1265 463 l 744 463 l 744 58 m 294 361 l 686 361 l 686 915 l 582 767 l 294 361 z "},"Ǽ":{"ha":1400,"x_min":-32,"x_max":1318,"o":"m 744 58 l 1318 58 l 1318 0 l 686 0 l 686 301 l 256 301 l 40 0 l -32 0 l 654 972 l 1296 972 l 1296 914 l 744 914 l 744 521 l 1265 521 l 1265 463 l 744 463 l 744 58 m 294 361 l 686 361 l 686 915 l 582 767 l 294 361 m 785 1246 l 854 1246 l 735 1083 l 678 1083 l 785 1246 z "},"B":{"ha":965,"x_min":140,"x_max":888,"o":"m 704 497 q 839 407 790 469 q 888 260 888 344 q 801 69 888 139 q 564 0 715 0 l 140 0 l 140 972 l 564 972 q 774 903 694 972 q 853 721 853 835 q 813 582 853 643 q 704 497 772 521 m 793 718 q 731 861 793 808 q 564 914 669 914 l 201 914 l 201 525 l 564 525 q 733 576 672 525 q 793 718 793 628 m 567 58 q 758 113 689 58 q 826 263 826 167 q 756 412 826 357 q 567 467 686 467 l 201 467 l 201 58 l 567 58 z "},"C":{"ha":994,"x_min":76,"x_max":925,"o":"m 575 -17 q 317 47 431 -17 q 140 226 203 111 q 76 486 76 340 q 140 747 76 632 q 316 925 203 861 q 574 989 429 989 q 763 951 674 989 q 919 844 851 914 l 878 804 q 740 898 817 865 q 575 931 663 931 q 347 874 447 931 q 192 717 247 818 q 138 486 138 617 q 192 255 138 356 q 347 98 247 154 q 575 42 447 42 q 742 74 663 42 q 885 168 822 107 l 925 128 q 767 20 857 57 q 575 -17 676 -17 z "},"Ć":{"ha":994,"x_min":76,"x_max":925,"o":"m 575 -17 q 317 47 431 -17 q 140 226 203 111 q 76 486 76 340 q 140 747 76 632 q 316 925 203 861 q 574 989 429 989 q 763 951 674 989 q 919 844 851 914 l 878 804 q 740 898 817 865 q 575 931 663 931 q 347 874 447 931 q 192 717 247 818 q 138 486 138 617 q 192 255 138 356 q 347 98 247 154 q 575 42 447 42 q 742 74 663 42 q 885 168 822 107 l 925 128 q 767 20 857 57 q 575 -17 676 -17 m 644 1246 l 714 1246 l 594 1083 l 538 1083 l 644 1246 z "},"Č":{"ha":994,"x_min":76,"x_max":925,"o":"m 575 -17 q 317 47 431 -17 q 140 226 203 111 q 76 486 76 340 q 140 747 76 632 q 316 925 203 861 q 574 989 429 989 q 763 951 674 989 q 919 844 851 914 l 878 804 q 740 898 817 865 q 575 931 663 931 q 347 874 447 931 q 192 717 247 818 q 138 486 138 617 q 192 255 138 356 q 347 98 247 154 q 575 42 447 42 q 742 74 663 42 q 885 168 822 107 l 925 128 q 767 20 857 57 q 575 -17 676 -17 m 693 1247 l 760 1247 l 597 1085 l 546 1085 l 383 1247 l 450 1247 l 572 1131 l 693 1247 z "},"Ç":{"ha":994,"x_min":76,"x_max":925,"o":"m 925 128 q 775 24 860 61 q 594 -17 690 -12 l 581 -65 l 593 -65 q 691 -95 654 -65 q 728 -175 728 -125 q 687 -258 728 -225 q 583 -290 646 -290 q 444 -240 503 -290 l 472 -204 q 582 -242 522 -242 q 649 -223 622 -242 q 676 -174 676 -204 q 651 -124 676 -142 q 579 -107 625 -107 q 542 -111 558 -107 l 522 -97 l 547 -17 q 303 56 410 -10 q 136 233 196 121 q 76 486 76 344 q 140 747 76 632 q 316 925 203 861 q 574 989 429 989 q 763 951 674 989 q 919 844 851 914 l 878 804 q 740 898 817 865 q 575 931 663 931 q 347 874 447 931 q 192 717 247 818 q 138 486 138 617 q 192 255 138 356 q 347 98 247 154 q 575 42 447 42 q 742 74 663 42 q 885 168 822 107 l 925 128 z "},"Ĉ":{"ha":994,"x_min":76,"x_max":925,"o":"m 575 -17 q 317 47 431 -17 q 140 226 203 111 q 76 486 76 340 q 140 747 76 632 q 316 925 203 861 q 574 989 429 989 q 763 951 674 989 q 919 844 851 914 l 878 804 q 740 898 817 865 q 575 931 663 931 q 347 874 447 931 q 192 717 247 818 q 138 486 138 617 q 192 255 138 356 q 347 98 247 154 q 575 42 447 42 q 742 74 663 42 q 885 168 822 107 l 925 128 q 767 20 857 57 q 575 -17 676 -17 m 758 1083 l 692 1083 l 571 1200 l 449 1083 l 382 1083 l 544 1246 l 596 1246 l 758 1083 z "},"Ċ":{"ha":994,"x_min":76,"x_max":925,"o":"m 575 -17 q 317 47 431 -17 q 140 226 203 111 q 76 486 76 340 q 140 747 76 632 q 316 925 203 861 q 574 989 429 989 q 763 951 674 989 q 919 844 851 914 l 878 804 q 740 898 817 865 q 575 931 663 931 q 347 874 447 931 q 192 717 247 818 q 138 486 138 617 q 192 255 138 356 q 347 98 247 154 q 575 42 447 42 q 742 74 663 42 q 885 168 822 107 l 925 128 q 767 20 857 57 q 575 -17 676 -17 m 572 1133 q 534 1148 549 1133 q 519 1185 519 1163 q 534 1222 519 1207 q 572 1238 549 1238 q 609 1222 594 1238 q 624 1185 624 1207 q 609 1148 624 1163 q 572 1133 594 1133 z "},"D":{"ha":1036,"x_min":140,"x_max":960,"o":"m 465 972 q 722 910 610 972 q 897 738 835 849 q 960 486 960 628 q 897 234 960 344 q 722 62 835 124 q 465 0 610 0 l 140 0 l 140 972 l 465 972 m 465 60 q 690 114 592 60 q 844 265 789 168 q 899 486 899 363 q 843 707 899 610 q 689 858 788 804 q 465 913 590 913 l 201 913 l 201 60 l 465 60 z "},"Ð":{"ha":1044,"x_min":42,"x_max":968,"o":"m 474 972 q 731 910 618 972 q 906 738 843 849 q 968 486 968 628 q 906 234 968 344 q 731 62 843 124 q 474 0 618 0 l 150 0 l 150 464 l 42 464 l 42 522 l 150 522 l 150 972 l 474 972 m 474 60 q 699 113 600 60 q 852 264 797 167 q 907 486 907 361 q 852 708 907 611 q 699 859 797 806 q 474 913 600 913 l 211 913 l 211 522 l 529 522 l 529 464 l 211 464 l 211 60 l 474 60 z "},"Ď":{"ha":1036,"x_min":140,"x_max":960,"o":"m 465 972 q 722 910 610 972 q 897 738 835 849 q 960 486 960 628 q 897 234 960 344 q 722 62 835 124 q 465 0 610 0 l 140 0 l 140 972 l 465 972 m 465 60 q 690 114 592 60 q 844 265 789 168 q 899 486 899 363 q 843 707 899 610 q 689 858 788 804 q 465 913 590 913 l 201 913 l 201 60 l 465 60 m 576 1247 l 643 1247 l 481 1085 l 429 1085 l 267 1247 l 333 1247 l 456 1131 l 576 1247 z "},"Đ":{"ha":1044,"x_min":42,"x_max":968,"o":"m 474 972 q 731 910 618 972 q 906 738 843 849 q 968 486 968 628 q 906 234 968 344 q 731 62 843 124 q 474 0 618 0 l 150 0 l 150 464 l 42 464 l 42 522 l 150 522 l 150 972 l 474 972 m 474 60 q 699 113 600 60 q 852 264 797 167 q 907 486 907 361 q 852 708 907 611 q 699 859 797 806 q 474 913 600 913 l 211 913 l 211 522 l 529 522 l 529 464 l 211 464 l 211 60 l 474 60 z "},"E":{"ha":907,"x_min":140,"x_max":825,"o":"m 201 58 l 825 58 l 825 0 l 140 0 l 140 972 l 807 972 l 807 914 l 201 914 l 201 521 l 778 521 l 778 463 l 201 463 l 201 58 z "},"É":{"ha":907,"x_min":140,"x_max":825,"o":"m 201 58 l 825 58 l 825 0 l 140 0 l 140 972 l 807 972 l 807 914 l 201 914 l 201 521 l 778 521 l 778 463 l 201 463 l 201 58 m 561 1246 l 631 1246 l 511 1083 l 454 1083 l 561 1246 z "},"Ĕ":{"ha":907,"x_min":140,"x_max":825,"o":"m 201 58 l 825 58 l 825 0 l 140 0 l 140 972 l 807 972 l 807 914 l 201 914 l 201 521 l 778 521 l 778 463 l 201 463 l 201 58 m 488 1085 q 367 1129 414 1085 q 319 1243 319 1174 l 369 1243 q 402 1165 369 1194 q 488 1135 435 1135 q 572 1165 540 1135 q 604 1243 604 1194 l 656 1243 q 608 1130 656 1175 q 488 1085 561 1085 z "},"Ě":{"ha":907,"x_min":140,"x_max":825,"o":"m 201 58 l 825 58 l 825 0 l 140 0 l 140 972 l 807 972 l 807 914 l 201 914 l 201 521 l 778 521 l 778 463 l 201 463 l 201 58 m 610 1247 l 676 1247 l 514 1085 l 463 1085 l 300 1247 l 367 1247 l 489 1131 l 610 1247 z "},"Ê":{"ha":907,"x_min":140,"x_max":825,"o":"m 201 58 l 825 58 l 825 0 l 140 0 l 140 972 l 807 972 l 807 914 l 201 914 l 201 521 l 778 521 l 778 463 l 201 463 l 201 58 m 675 1083 l 608 1083 l 488 1200 l 365 1083 l 299 1083 l 461 1246 l 513 1246 l 675 1083 z "},"Ë":{"ha":907,"x_min":140,"x_max":825,"o":"m 201 58 l 825 58 l 825 0 l 140 0 l 140 972 l 807 972 l 807 914 l 201 914 l 201 521 l 778 521 l 778 463 l 201 463 l 201 58 m 354 1129 q 317 1144 332 1129 q 303 1182 303 1160 q 317 1219 303 1204 q 354 1235 332 1235 q 392 1220 376 1235 q 407 1182 407 1206 q 392 1144 407 1160 q 354 1129 376 1129 m 619 1129 q 582 1144 597 1129 q 567 1182 567 1160 q 582 1219 567 1204 q 619 1235 597 1235 q 657 1220 642 1235 q 672 1182 672 1206 q 657 1144 672 1160 q 619 1129 642 1129 z "},"Ė":{"ha":907,"x_min":140,"x_max":825,"o":"m 201 58 l 825 58 l 825 0 l 140 0 l 140 972 l 807 972 l 807 914 l 201 914 l 201 521 l 778 521 l 778 463 l 201 463 l 201 58 m 489 1133 q 451 1148 465 1133 q 436 1185 436 1163 q 451 1222 436 1207 q 489 1238 465 1238 q 526 1222 511 1238 q 540 1185 540 1207 q 526 1148 540 1163 q 489 1133 511 1133 z "},"È":{"ha":907,"x_min":140,"x_max":825,"o":"m 201 58 l 825 58 l 825 0 l 140 0 l 140 972 l 807 972 l 807 914 l 201 914 l 201 521 l 778 521 l 778 463 l 201 463 l 201 58 m 465 1083 l 344 1246 l 414 1246 l 521 1083 l 465 1083 z "},"Ē":{"ha":907,"x_min":140,"x_max":825,"o":"m 201 58 l 825 58 l 825 0 l 140 0 l 140 972 l 807 972 l 807 914 l 201 914 l 201 521 l 778 521 l 778 463 l 201 463 l 201 58 m 293 1178 l 683 1178 l 683 1129 l 293 1129 l 293 1178 z "},"Ę":{"ha":907,"x_min":140,"x_max":925,"o":"m 925 -197 q 769 -257 857 -257 q 670 -224 707 -257 q 633 -136 633 -192 q 721 0 633 -58 l 140 0 l 140 972 l 807 972 l 807 914 l 201 914 l 201 521 l 778 521 l 778 463 l 201 463 l 201 58 l 825 58 l 825 0 q 723 -61 756 -29 q 690 -131 690 -93 q 713 -184 690 -165 q 775 -203 735 -203 q 896 -157 844 -203 l 925 -197 z "},"F":{"ha":854,"x_min":140,"x_max":775,"o":"m 775 913 l 201 913 l 201 507 l 743 507 l 743 449 l 201 449 l 201 0 l 140 0 l 140 972 l 775 972 l 775 913 z "},"G":{"ha":1033,"x_min":76,"x_max":942,"o":"m 942 500 l 942 138 q 774 24 867 63 q 575 -15 681 -15 q 316 48 429 -15 q 140 225 203 111 q 76 486 76 339 q 140 747 76 633 q 317 924 203 861 q 578 988 431 988 q 925 843 778 988 l 885 800 q 744 896 822 863 q 578 929 665 929 q 349 874 449 929 q 193 717 249 818 q 138 486 138 617 q 193 256 138 357 q 348 99 249 156 q 575 43 447 43 q 744 75 663 43 q 882 164 825 107 l 882 442 l 532 442 l 532 500 l 942 500 z "},"Ğ":{"ha":1033,"x_min":76,"x_max":942,"o":"m 942 500 l 942 138 q 774 24 867 63 q 575 -15 681 -15 q 316 48 429 -15 q 140 225 203 111 q 76 486 76 339 q 140 747 76 633 q 317 924 203 861 q 578 988 431 988 q 925 843 778 988 l 885 800 q 744 896 822 863 q 578 929 665 929 q 349 874 449 929 q 193 717 249 818 q 138 486 138 617 q 193 256 138 357 q 348 99 249 156 q 575 43 447 43 q 744 75 663 43 q 882 164 825 107 l 882 442 l 532 442 l 532 500 l 942 500 m 564 1085 q 443 1129 490 1085 q 396 1243 396 1174 l 446 1243 q 478 1165 446 1194 q 564 1135 511 1135 q 649 1165 617 1135 q 681 1243 681 1194 l 732 1243 q 685 1130 732 1175 q 564 1085 638 1085 z "},"Ĝ":{"ha":1033,"x_min":76,"x_max":942,"o":"m 942 500 l 942 138 q 774 24 867 63 q 575 -15 681 -15 q 316 48 429 -15 q 140 225 203 111 q 76 486 76 339 q 140 747 76 633 q 317 924 203 861 q 578 988 431 988 q 925 843 778 988 l 885 800 q 744 896 822 863 q 578 929 665 929 q 349 874 449 929 q 193 717 249 818 q 138 486 138 617 q 193 256 138 357 q 348 99 249 156 q 575 43 447 43 q 744 75 663 43 q 882 164 825 107 l 882 442 l 532 442 l 532 500 l 942 500 m 751 1083 l 685 1083 l 564 1200 l 442 1083 l 375 1083 l 538 1246 l 589 1246 l 751 1083 z "},"Ģ":{"ha":1033,"x_min":76,"x_max":942,"o":"m 942 500 l 942 138 q 774 24 867 63 q 575 -15 681 -15 q 316 48 429 -15 q 140 225 203 111 q 76 486 76 339 q 140 747 76 633 q 317 924 203 861 q 578 988 431 988 q 925 843 778 988 l 885 800 q 744 896 822 863 q 578 929 665 929 q 349 874 449 929 q 193 717 249 818 q 138 486 138 617 q 193 256 138 357 q 348 99 249 156 q 575 43 447 43 q 744 75 663 43 q 882 164 825 107 l 882 442 l 532 442 l 532 500 l 942 500 m 589 -110 q 620 -122 607 -110 q 633 -153 633 -133 q 624 -192 633 -167 q 578 -297 615 -217 l 532 -297 l 571 -190 q 543 -153 543 -182 q 557 -122 543 -133 q 589 -110 571 -110 z "},"Ġ":{"ha":1033,"x_min":76,"x_max":942,"o":"m 942 500 l 942 138 q 774 24 867 63 q 575 -15 681 -15 q 316 48 429 -15 q 140 225 203 111 q 76 486 76 339 q 140 747 76 633 q 317 924 203 861 q 578 988 431 988 q 925 843 778 988 l 885 800 q 744 896 822 863 q 578 929 665 929 q 349 874 449 929 q 193 717 249 818 q 138 486 138 617 q 193 256 138 357 q 348 99 249 156 q 575 43 447 43 q 744 75 663 43 q 882 164 825 107 l 882 442 l 532 442 l 532 500 l 942 500 m 565 1133 q 527 1148 542 1133 q 513 1185 513 1163 q 527 1222 513 1207 q 565 1238 542 1238 q 602 1222 588 1238 q 617 1185 617 1207 q 602 1148 617 1163 q 565 1133 588 1133 z "},"H":{"ha":1046,"x_min":140,"x_max":906,"o":"m 844 972 l 906 972 l 906 0 l 844 0 l 844 469 l 201 469 l 201 0 l 140 0 l 140 972 l 201 972 l 201 528 l 844 528 l 844 972 z "},"Ħ":{"ha":1060,"x_min":44,"x_max":1017,"o":"m 1017 796 l 1017 742 l 913 742 l 913 0 l 851 0 l 851 468 l 208 468 l 208 0 l 147 0 l 147 742 l 44 742 l 44 796 l 147 796 l 147 972 l 208 972 l 208 796 l 851 796 l 851 972 l 913 972 l 913 796 l 1017 796 m 208 526 l 851 526 l 851 742 l 208 742 l 208 526 z "},"Ĥ":{"ha":1046,"x_min":140,"x_max":906,"o":"m 844 972 l 906 972 l 906 0 l 844 0 l 844 469 l 201 469 l 201 0 l 140 0 l 140 972 l 201 972 l 201 528 l 844 528 l 844 972 m 710 1083 l 643 1083 l 522 1200 l 400 1083 l 333 1083 l 496 1246 l 547 1246 l 710 1083 z "},"I":{"ha":342,"x_min":140,"x_max":201,"o":"m 140 972 l 201 972 l 201 0 l 140 0 l 140 972 z "},"Ĳ":{"ha":1263,"x_min":140,"x_max":1133,"o":"m 140 972 l 201 972 l 201 0 l 140 0 l 140 972 m 1133 972 l 1133 361 q 1086 165 1133 250 q 953 33 1039 79 q 758 -14 868 -14 q 565 34 650 -14 q 432 167 479 82 q 385 363 385 253 l 443 363 q 483 197 443 269 q 595 85 524 125 q 758 44 667 44 q 922 84 851 44 q 1033 196 993 124 q 1072 363 1072 268 l 1072 913 l 690 913 l 690 972 l 1133 972 z "},"Í":{"ha":342,"x_min":138,"x_max":314,"o":"m 140 972 l 201 972 l 201 0 l 140 0 l 140 972 m 244 1246 l 314 1246 l 194 1083 l 138 1083 l 244 1246 z "},"Ĭ":{"ha":342,"x_min":4,"x_max":340,"o":"m 140 972 l 201 972 l 201 0 l 140 0 l 140 972 m 172 1085 q 51 1129 99 1085 q 4 1243 4 1174 l 54 1243 q 87 1165 54 1194 q 172 1135 119 1135 q 257 1165 225 1135 q 289 1243 289 1194 l 340 1243 q 293 1130 340 1175 q 172 1085 246 1085 z "},"Î":{"ha":342,"x_min":-11,"x_max":351,"o":"m 140 972 l 201 972 l 201 0 l 140 0 l 140 972 m 351 1083 l 285 1083 l 171 1199 l 57 1083 l -11 1083 l 144 1246 l 196 1246 l 351 1083 z "},"Ï":{"ha":342,"x_min":-12,"x_max":357,"o":"m 140 972 l 201 972 l 201 0 l 140 0 l 140 972 m 39 1129 q 2 1144 17 1129 q -12 1182 -12 1160 q 2 1219 -12 1204 q 39 1235 17 1235 q 76 1220 61 1235 q 92 1182 92 1206 q 76 1144 92 1160 q 39 1129 61 1129 m 304 1129 q 267 1144 282 1129 q 251 1182 251 1160 q 267 1219 251 1204 q 304 1235 282 1235 q 342 1220 326 1235 q 357 1182 357 1206 q 342 1144 357 1160 q 304 1129 326 1129 z "},"İ":{"ha":342,"x_min":119,"x_max":224,"o":"m 140 972 l 201 972 l 201 0 l 140 0 l 140 972 m 172 1133 q 134 1148 149 1133 q 119 1185 119 1163 q 134 1222 119 1207 q 172 1238 149 1238 q 209 1222 194 1238 q 224 1185 224 1207 q 209 1148 224 1163 q 172 1133 194 1133 z "},"Ì":{"ha":342,"x_min":29,"x_max":206,"o":"m 140 972 l 201 972 l 201 0 l 140 0 l 140 972 m 150 1083 l 29 1246 l 99 1246 l 206 1083 l 150 1083 z "},"Ī":{"ha":342,"x_min":-10,"x_max":353,"o":"m 140 972 l 201 972 l 201 0 l 140 0 l 140 972 m -10 1178 l 353 1178 l 353 1129 l -10 1129 l -10 1178 z "},"Į":{"ha":342,"x_min":10,"x_max":301,"o":"m 301 -197 q 146 -257 233 -257 q 47 -224 83 -257 q 10 -136 10 -192 q 43 -48 10 -89 q 140 24 76 -7 l 140 972 l 201 972 l 201 0 q 99 -61 132 -29 q 67 -131 67 -93 q 89 -184 67 -165 q 151 -203 111 -203 q 272 -157 221 -203 l 301 -197 z "},"Ĩ":{"ha":342,"x_min":-8,"x_max":353,"o":"m 140 972 l 201 972 l 201 0 l 140 0 l 140 972 m 261 1113 q 219 1119 240 1113 q 165 1144 197 1126 q 114 1170 131 1164 q 82 1176 97 1176 q 31 1128 47 1176 l -8 1144 q 26 1205 3 1183 q 82 1226 49 1226 q 122 1219 101 1226 q 183 1190 142 1213 q 230 1168 214 1174 q 260 1163 246 1163 q 313 1213 296 1163 l 353 1199 q 319 1135 343 1157 q 261 1113 294 1113 z "},"J":{"ha":921,"x_min":43,"x_max":792,"o":"m 792 972 l 792 361 q 744 165 792 250 q 612 33 697 79 q 417 -14 526 -14 q 223 34 308 -14 q 90 167 138 82 q 43 363 43 253 l 101 363 q 142 197 101 269 q 253 85 182 125 q 417 44 325 44 q 581 84 510 44 q 691 196 651 124 q 731 363 731 268 l 731 913 l 349 913 l 349 972 l 792 972 z "},"Ĵ":{"ha":921,"x_min":43,"x_max":792,"o":"m 792 972 l 792 361 q 744 165 792 250 q 612 33 697 79 q 417 -14 526 -14 q 223 34 308 -14 q 90 167 138 82 q 43 363 43 253 l 101 363 q 142 197 101 269 q 253 85 182 125 q 417 44 325 44 q 581 84 510 44 q 691 196 651 124 q 731 363 731 268 l 731 913 l 349 913 l 349 972 l 792 972 m 749 1083 l 682 1083 l 568 1199 l 454 1083 l 386 1083 l 542 1246 l 593 1246 l 749 1083 z "},"K":{"ha":811,"x_min":140,"x_max":811,"o":"m 811 0 l 725 0 l 201 486 l 201 0 l 140 0 l 140 972 l 201 972 l 201 525 l 685 972 l 769 972 l 267 507 l 811 0 z "},"Ķ":{"ha":811,"x_min":140,"x_max":811,"o":"m 811 0 l 725 0 l 201 486 l 201 0 l 140 0 l 140 972 l 201 972 l 201 525 l 685 972 l 769 972 l 267 507 l 811 0 m 444 -110 q 476 -122 463 -110 q 489 -153 489 -133 q 480 -192 489 -167 q 433 -297 471 -217 l 388 -297 l 426 -190 q 399 -153 399 -182 q 413 -122 399 -133 q 444 -110 426 -110 z "},"L":{"ha":783,"x_min":140,"x_max":758,"o":"m 140 972 l 201 972 l 201 60 l 758 60 l 758 0 l 140 0 l 140 972 z "},"Ĺ":{"ha":783,"x_min":138,"x_max":758,"o":"m 140 972 l 201 972 l 201 60 l 758 60 l 758 0 l 140 0 l 140 972 m 244 1246 l 314 1246 l 194 1083 l 138 1083 l 244 1246 z "},"Ľ":{"ha":783,"x_min":140,"x_max":758,"o":"m 140 972 l 201 972 l 201 60 l 758 60 l 758 0 l 140 0 l 140 972 m 597 972 l 661 972 l 588 757 l 536 757 l 597 972 z "},"Ļ":{"ha":783,"x_min":140,"x_max":758,"o":"m 140 972 l 201 972 l 201 60 l 758 60 l 758 0 l 140 0 l 140 972 m 451 -110 q 483 -122 469 -110 q 496 -153 496 -133 q 487 -192 496 -167 q 440 -297 478 -217 l 394 -297 l 433 -190 q 406 -153 406 -182 q 419 -122 406 -133 q 451 -110 433 -110 z "},"Ŀ":{"ha":783,"x_min":140,"x_max":758,"o":"m 201 972 l 201 60 l 758 60 l 758 0 l 140 0 l 140 972 l 201 972 m 500 461 q 465 475 479 461 q 451 510 451 489 q 465 544 451 531 q 500 557 479 557 q 535 544 521 557 q 549 510 549 531 q 535 475 549 489 q 500 461 521 461 z "},"Ł":{"ha":789,"x_min":38,"x_max":764,"o":"m 207 60 l 764 60 l 764 0 l 147 0 l 147 426 l 38 382 l 38 436 l 147 482 l 147 972 l 207 972 l 207 507 l 435 603 l 435 544 l 207 451 l 207 60 z "},"M":{"ha":1258,"x_min":140,"x_max":1118,"o":"m 1051 972 l 1118 972 l 1118 0 l 1058 0 l 1058 879 l 638 297 l 622 297 l 201 878 l 201 0 l 140 0 l 140 972 l 207 972 l 629 388 l 1051 972 z "},"N":{"ha":1046,"x_min":140,"x_max":906,"o":"m 846 972 l 906 972 l 906 0 l 842 0 l 201 879 l 201 0 l 140 0 l 140 972 l 207 972 l 846 96 l 846 972 z "},"Ń":{"ha":1046,"x_min":140,"x_max":906,"o":"m 846 972 l 906 972 l 906 0 l 842 0 l 201 879 l 201 0 l 140 0 l 140 972 l 207 972 l 846 96 l 846 972 m 590 1246 l 660 1246 l 540 1083 l 483 1083 l 590 1246 z "},"Ň":{"ha":1046,"x_min":140,"x_max":906,"o":"m 846 972 l 906 972 l 906 0 l 842 0 l 201 879 l 201 0 l 140 0 l 140 972 l 207 972 l 846 96 l 846 972 m 639 1247 l 706 1247 l 543 1085 l 492 1085 l 329 1247 l 396 1247 l 518 1131 l 639 1247 z "},"Ņ":{"ha":1046,"x_min":140,"x_max":906,"o":"m 846 972 l 906 972 l 906 0 l 842 0 l 201 879 l 201 0 l 140 0 l 140 972 l 207 972 l 846 96 l 846 972 m 515 -110 q 547 -122 533 -110 q 560 -153 560 -133 q 551 -192 560 -167 q 504 -297 542 -217 l 458 -297 l 497 -190 q 469 -153 469 -182 q 483 -122 469 -133 q 515 -110 497 -110 z "},"Ŋ":{"ha":1046,"x_min":140,"x_max":906,"o":"m 906 972 l 906 -53 q 865 -219 906 -168 q 735 -271 825 -271 q 667 -260 700 -271 q 613 -235 635 -250 l 626 -182 q 678 -206 654 -199 q 732 -214 703 -214 q 821 -177 796 -214 q 846 -50 846 -140 l 846 -4 l 201 879 l 201 0 l 140 0 l 140 972 l 207 972 l 846 96 l 846 972 l 906 972 z "},"Ñ":{"ha":1046,"x_min":140,"x_max":906,"o":"m 846 972 l 906 972 l 906 0 l 842 0 l 201 879 l 201 0 l 140 0 l 140 972 l 207 972 l 846 96 l 846 972 m 606 1113 q 563 1119 585 1113 q 510 1144 542 1126 q 458 1170 475 1164 q 426 1176 442 1176 q 375 1128 392 1176 l 336 1144 q 370 1205 347 1183 q 426 1226 393 1226 q 466 1219 446 1226 q 528 1190 486 1213 q 574 1168 558 1174 q 604 1163 590 1163 q 657 1213 640 1163 l 697 1199 q 663 1135 688 1157 q 606 1113 639 1113 z "},"O":{"ha":1133,"x_min":76,"x_max":1057,"o":"m 567 -17 q 313 47 425 -17 q 139 226 201 111 q 76 486 76 340 q 139 747 76 632 q 313 925 201 861 q 567 989 425 989 q 820 925 708 989 q 994 747 932 861 q 1057 486 1057 632 q 994 226 1057 340 q 820 47 932 111 q 567 -17 708 -17 m 567 42 q 788 98 690 42 q 941 256 886 154 q 996 486 996 357 q 941 717 996 615 q 788 874 886 818 q 567 931 690 931 q 345 874 443 931 q 192 717 247 818 q 138 486 138 615 q 192 256 138 357 q 345 98 247 154 q 567 42 443 42 z "},"Ó":{"ha":1133,"x_min":76,"x_max":1057,"o":"m 567 -17 q 313 47 425 -17 q 139 226 201 111 q 76 486 76 340 q 139 747 76 632 q 313 925 201 861 q 567 989 425 989 q 820 925 708 989 q 994 747 932 861 q 1057 486 1057 632 q 994 226 1057 340 q 820 47 932 111 q 567 -17 708 -17 m 567 42 q 788 98 690 42 q 941 256 886 154 q 996 486 996 357 q 941 717 996 615 q 788 874 886 818 q 567 931 690 931 q 345 874 443 931 q 192 717 247 818 q 138 486 138 615 q 192 256 138 357 q 345 98 247 154 q 567 42 443 42 m 639 1246 l 708 1246 l 589 1083 l 532 1083 l 639 1246 z "},"Ŏ":{"ha":1133,"x_min":76,"x_max":1057,"o":"m 567 -17 q 313 47 425 -17 q 139 226 201 111 q 76 486 76 340 q 139 747 76 632 q 313 925 201 861 q 567 989 425 989 q 820 925 708 989 q 994 747 932 861 q 1057 486 1057 632 q 994 226 1057 340 q 820 47 932 111 q 567 -17 708 -17 m 567 42 q 788 98 690 42 q 941 256 886 154 q 996 486 996 357 q 941 717 996 615 q 788 874 886 818 q 567 931 690 931 q 345 874 443 931 q 192 717 247 818 q 138 486 138 615 q 192 256 138 357 q 345 98 247 154 q 567 42 443 42 m 567 1085 q 446 1129 493 1085 q 399 1243 399 1174 l 449 1243 q 481 1165 449 1194 q 567 1135 514 1135 q 651 1165 619 1135 q 683 1243 683 1194 l 735 1243 q 688 1130 735 1175 q 567 1085 640 1085 z "},"Ô":{"ha":1133,"x_min":76,"x_max":1057,"o":"m 567 -17 q 313 47 425 -17 q 139 226 201 111 q 76 486 76 340 q 139 747 76 632 q 313 925 201 861 q 567 989 425 989 q 820 925 708 989 q 994 747 932 861 q 1057 486 1057 632 q 994 226 1057 340 q 820 47 932 111 q 567 -17 708 -17 m 567 42 q 788 98 690 42 q 941 256 886 154 q 996 486 996 357 q 941 717 996 615 q 788 874 886 818 q 567 931 690 931 q 345 874 443 931 q 192 717 247 818 q 138 486 138 615 q 192 256 138 357 q 345 98 247 154 q 567 42 443 42 m 754 1083 l 688 1083 l 567 1200 l 444 1083 l 378 1083 l 540 1246 l 592 1246 l 754 1083 z "},"Ö":{"ha":1133,"x_min":76,"x_max":1057,"o":"m 567 -17 q 313 47 425 -17 q 139 226 201 111 q 76 486 76 340 q 139 747 76 632 q 313 925 201 861 q 567 989 425 989 q 820 925 708 989 q 994 747 932 861 q 1057 486 1057 632 q 994 226 1057 340 q 820 47 932 111 q 567 -17 708 -17 m 567 42 q 788 98 690 42 q 941 256 886 154 q 996 486 996 357 q 941 717 996 615 q 788 874 886 818 q 567 931 690 931 q 345 874 443 931 q 192 717 247 818 q 138 486 138 615 q 192 256 138 357 q 345 98 247 154 q 567 42 443 42 m 433 1129 q 397 1144 411 1129 q 382 1182 382 1160 q 397 1219 382 1204 q 433 1235 411 1235 q 471 1220 456 1235 q 486 1182 486 1206 q 471 1144 486 1160 q 433 1129 456 1129 m 699 1129 q 661 1144 676 1129 q 646 1182 646 1160 q 661 1219 646 1204 q 699 1235 676 1235 q 736 1220 721 1235 q 751 1182 751 1206 q 736 1144 751 1160 q 699 1129 721 1129 z "},"Ò":{"ha":1133,"x_min":76,"x_max":1057,"o":"m 567 -17 q 313 47 425 -17 q 139 226 201 111 q 76 486 76 340 q 139 747 76 632 q 313 925 201 861 q 567 989 425 989 q 820 925 708 989 q 994 747 932 861 q 1057 486 1057 632 q 994 226 1057 340 q 820 47 932 111 q 567 -17 708 -17 m 567 42 q 788 98 690 42 q 941 256 886 154 q 996 486 996 357 q 941 717 996 615 q 788 874 886 818 q 567 931 690 931 q 345 874 443 931 q 192 717 247 818 q 138 486 138 615 q 192 256 138 357 q 345 98 247 154 q 567 42 443 42 m 544 1083 l 424 1246 l 493 1246 l 600 1083 l 544 1083 z "},"Ő":{"ha":1133,"x_min":76,"x_max":1057,"o":"m 567 -17 q 313 47 425 -17 q 139 226 201 111 q 76 486 76 340 q 139 747 76 632 q 313 925 201 861 q 567 989 425 989 q 820 925 708 989 q 994 747 932 861 q 1057 486 1057 632 q 994 226 1057 340 q 820 47 932 111 q 567 -17 708 -17 m 567 42 q 788 98 690 42 q 941 256 886 154 q 996 486 996 357 q 941 717 996 615 q 788 874 886 818 q 567 931 690 931 q 345 874 443 931 q 192 717 247 818 q 138 486 138 615 q 192 256 138 357 q 345 98 247 154 q 567 42 443 42 m 535 1258 l 603 1258 l 494 1090 l 438 1090 l 535 1258 m 715 1258 l 785 1258 l 675 1090 l 618 1090 l 715 1258 z "},"Ō":{"ha":1133,"x_min":76,"x_max":1057,"o":"m 567 -17 q 313 47 425 -17 q 139 226 201 111 q 76 486 76 340 q 139 747 76 632 q 313 925 201 861 q 567 989 425 989 q 820 925 708 989 q 994 747 932 861 q 1057 486 1057 632 q 994 226 1057 340 q 820 47 932 111 q 567 -17 708 -17 m 567 42 q 788 98 690 42 q 941 256 886 154 q 996 486 996 357 q 941 717 996 615 q 788 874 886 818 q 567 931 690 931 q 345 874 443 931 q 192 717 247 818 q 138 486 138 615 q 192 256 138 357 q 345 98 247 154 q 567 42 443 42 m 371 1178 l 761 1178 l 761 1129 l 371 1129 l 371 1178 z "},"Ø":{"ha":1133,"x_min":76,"x_max":1057,"o":"m 853 904 q 1003 729 949 838 q 1057 486 1057 621 q 994 226 1057 340 q 820 47 932 111 q 567 -17 708 -17 q 331 38 436 -17 l 244 -103 l 178 -103 l 281 67 q 131 242 185 133 q 76 486 76 350 q 139 747 76 632 q 313 925 201 861 q 567 989 425 989 q 804 933 697 989 l 889 1074 l 956 1074 l 853 904 m 138 486 q 184 273 138 368 q 313 119 231 178 l 772 882 q 567 931 682 931 q 345 874 443 931 q 192 717 247 818 q 138 486 138 615 m 567 42 q 788 98 690 42 q 941 256 886 154 q 996 486 996 357 q 950 699 996 604 q 822 853 904 793 l 361 89 q 567 42 453 42 z "},"Ǿ":{"ha":1133,"x_min":76,"x_max":1057,"o":"m 853 904 q 1003 729 949 838 q 1057 486 1057 621 q 994 226 1057 340 q 820 47 932 111 q 567 -17 708 -17 q 331 38 436 -17 l 244 -103 l 178 -103 l 281 67 q 131 242 185 133 q 76 486 76 350 q 139 747 76 632 q 313 925 201 861 q 567 989 425 989 q 804 933 697 989 l 889 1074 l 956 1074 l 853 904 m 138 486 q 184 273 138 368 q 313 119 231 178 l 772 882 q 567 931 682 931 q 345 874 443 931 q 192 717 247 818 q 138 486 138 615 m 567 42 q 788 98 690 42 q 941 256 886 154 q 996 486 996 357 q 950 699 996 604 q 822 853 904 793 l 361 89 q 567 42 453 42 m 639 1246 l 708 1246 l 589 1083 l 532 1083 l 639 1246 z "},"Õ":{"ha":1133,"x_min":76,"x_max":1057,"o":"m 567 -17 q 313 47 425 -17 q 139 226 201 111 q 76 486 76 340 q 139 747 76 632 q 313 925 201 861 q 567 989 425 989 q 820 925 708 989 q 994 747 932 861 q 1057 486 1057 632 q 994 226 1057 340 q 820 47 932 111 q 567 -17 708 -17 m 567 42 q 788 98 690 42 q 941 256 886 154 q 996 486 996 357 q 941 717 996 615 q 788 874 886 818 q 567 931 690 931 q 345 874 443 931 q 192 717 247 818 q 138 486 138 615 q 192 256 138 357 q 345 98 247 154 q 567 42 443 42 m 656 1113 q 613 1119 635 1113 q 560 1144 592 1126 q 508 1170 525 1164 q 476 1176 492 1176 q 425 1128 442 1176 l 386 1144 q 420 1205 397 1183 q 476 1226 443 1226 q 516 1219 496 1226 q 578 1190 536 1213 q 624 1168 608 1174 q 654 1163 640 1163 q 707 1213 690 1163 l 747 1199 q 713 1135 738 1157 q 656 1113 689 1113 z "},"Œ":{"ha":1346,"x_min":76,"x_max":1263,"o":"m 1263 58 l 1263 0 l 668 0 q 576 -7 613 -7 q 313 53 425 -7 q 138 226 200 114 q 76 486 76 338 q 138 747 76 635 q 313 919 200 858 q 576 979 425 979 q 675 972 626 979 l 1244 972 l 1244 914 l 729 914 l 729 521 l 1217 521 l 1217 463 l 729 463 l 729 58 l 1263 58 m 579 51 q 668 60 597 51 l 668 914 q 576 921 626 921 q 344 867 443 921 q 191 715 244 814 q 138 486 138 617 q 192 255 138 353 q 345 104 246 157 q 579 51 444 51 z "},"P":{"ha":928,"x_min":140,"x_max":876,"o":"m 553 972 q 727 932 654 972 q 838 819 800 892 q 876 654 876 747 q 838 491 876 563 q 726 379 800 419 q 553 339 653 339 l 201 339 l 201 0 l 140 0 l 140 972 l 553 972 m 551 397 q 747 468 678 397 q 817 656 817 539 q 747 843 817 772 q 551 914 678 914 l 201 914 l 201 397 l 551 397 z "},"Þ":{"ha":928,"x_min":140,"x_max":876,"o":"m 553 804 q 727 764 654 804 q 838 652 800 724 q 876 488 876 581 q 838 323 876 394 q 727 211 800 251 q 553 171 654 171 l 201 171 l 201 0 l 140 0 l 140 972 l 201 972 l 201 804 l 553 804 m 551 229 q 747 300 678 229 q 817 488 817 371 q 747 675 817 604 q 551 746 678 746 l 201 746 l 201 229 l 551 229 z "},"Q":{"ha":1133,"x_min":76,"x_max":1096,"o":"m 1053 -44 l 896 101 q 748 14 832 44 q 567 -17 664 -17 q 313 47 425 -17 q 139 226 201 111 q 76 486 76 340 q 139 747 76 632 q 313 925 201 861 q 567 989 425 989 q 820 925 708 989 q 994 747 932 861 q 1057 486 1057 632 q 1026 298 1057 385 q 939 144 996 211 l 1096 -1 l 1053 -44 m 567 42 q 788 98 690 42 q 941 256 886 154 q 996 486 996 357 q 941 717 996 615 q 788 874 886 818 q 567 931 690 931 q 345 874 443 931 q 192 717 247 818 q 138 486 138 615 q 192 256 138 357 q 345 98 247 154 q 567 42 443 42 z "},"R":{"ha":968,"x_min":140,"x_max":907,"o":"m 483 374 l 201 374 l 201 0 l 140 0 l 140 972 l 561 972 q 727 935 656 972 q 838 829 799 897 q 876 672 876 761 q 838 516 876 583 q 728 411 799 449 q 563 374 657 374 l 907 0 l 828 0 l 483 374 m 815 672 q 747 847 815 782 q 561 913 678 913 l 201 913 l 201 432 l 561 432 q 747 497 678 432 q 815 672 815 563 z "},"Ŕ":{"ha":968,"x_min":140,"x_max":907,"o":"m 483 374 l 201 374 l 201 0 l 140 0 l 140 972 l 561 972 q 727 935 656 972 q 838 829 799 897 q 876 672 876 761 q 838 516 876 583 q 728 411 799 449 q 563 374 657 374 l 907 0 l 828 0 l 483 374 m 815 672 q 747 847 815 782 q 561 913 678 913 l 201 913 l 201 432 l 561 432 q 747 497 678 432 q 815 672 815 563 m 547 1246 l 617 1246 l 497 1083 l 440 1083 l 547 1246 z "},"Ř":{"ha":968,"x_min":140,"x_max":907,"o":"m 483 374 l 201 374 l 201 0 l 140 0 l 140 972 l 561 972 q 727 935 656 972 q 838 829 799 897 q 876 672 876 761 q 838 516 876 583 q 728 411 799 449 q 563 374 657 374 l 907 0 l 828 0 l 483 374 m 815 672 q 747 847 815 782 q 561 913 678 913 l 201 913 l 201 432 l 561 432 q 747 497 678 432 q 815 672 815 563 m 596 1247 l 663 1247 l 500 1085 l 449 1085 l 286 1247 l 353 1247 l 475 1131 l 596 1247 z "},"Ŗ":{"ha":968,"x_min":140,"x_max":907,"o":"m 483 374 l 201 374 l 201 0 l 140 0 l 140 972 l 561 972 q 727 935 656 972 q 838 829 799 897 q 876 672 876 761 q 838 516 876 583 q 728 411 799 449 q 563 374 657 374 l 907 0 l 828 0 l 483 374 m 815 672 q 747 847 815 782 q 561 913 678 913 l 201 913 l 201 432 l 561 432 q 747 497 678 432 q 815 672 815 563 m 493 -110 q 524 -122 511 -110 q 538 -153 538 -133 q 528 -192 538 -167 q 482 -297 519 -217 l 436 -297 l 475 -190 q 447 -153 447 -182 q 461 -122 447 -133 q 493 -110 475 -110 z "},"S":{"ha":910,"x_min":69,"x_max":842,"o":"m 463 -15 q 236 34 343 -15 q 69 165 129 83 l 111 207 q 257 89 158 135 q 463 43 356 43 q 695 98 610 43 q 781 247 781 153 q 751 346 781 307 q 651 413 721 385 q 450 465 581 440 q 240 526 317 492 q 128 611 163 561 q 93 736 93 661 q 138 869 93 811 q 266 958 183 926 q 457 989 349 989 q 651 953 563 989 q 801 850 740 918 l 763 807 q 630 899 710 867 q 456 932 550 932 q 235 878 318 932 q 153 736 153 825 q 182 640 153 678 q 278 574 211 601 q 463 524 344 547 q 690 460 608 494 q 806 375 771 425 q 842 249 842 325 q 740 56 842 126 q 463 -15 638 -15 z "},"Ś":{"ha":910,"x_min":69,"x_max":842,"o":"m 463 -15 q 236 34 343 -15 q 69 165 129 83 l 111 207 q 257 89 158 135 q 463 43 356 43 q 695 98 610 43 q 781 247 781 153 q 751 346 781 307 q 651 413 721 385 q 450 465 581 440 q 240 526 317 492 q 128 611 163 561 q 93 736 93 661 q 138 869 93 811 q 266 958 183 926 q 457 989 349 989 q 651 953 563 989 q 801 850 740 918 l 763 807 q 630 899 710 867 q 456 932 550 932 q 235 878 318 932 q 153 736 153 825 q 182 640 153 678 q 278 574 211 601 q 463 524 344 547 q 690 460 608 494 q 806 375 771 425 q 842 249 842 325 q 740 56 842 126 q 463 -15 638 -15 m 528 1246 l 597 1246 l 478 1083 l 421 1083 l 528 1246 z "},"Š":{"ha":910,"x_min":69,"x_max":842,"o":"m 463 -15 q 236 34 343 -15 q 69 165 129 83 l 111 207 q 257 89 158 135 q 463 43 356 43 q 695 98 610 43 q 781 247 781 153 q 751 346 781 307 q 651 413 721 385 q 450 465 581 440 q 240 526 317 492 q 128 611 163 561 q 93 736 93 661 q 138 869 93 811 q 266 958 183 926 q 457 989 349 989 q 651 953 563 989 q 801 850 740 918 l 763 807 q 630 899 710 867 q 456 932 550 932 q 235 878 318 932 q 153 736 153 825 q 182 640 153 678 q 278 574 211 601 q 463 524 344 547 q 690 460 608 494 q 806 375 771 425 q 842 249 842 325 q 740 56 842 126 q 463 -15 638 -15 m 576 1247 l 643 1247 l 481 1085 l 429 1085 l 267 1247 l 333 1247 l 456 1131 l 576 1247 z "},"Ş":{"ha":910,"x_min":69,"x_max":842,"o":"m 842 249 q 747 62 842 132 q 489 -15 653 -8 l 474 -65 l 486 -65 q 584 -95 547 -65 q 621 -175 621 -125 q 580 -258 621 -225 q 476 -290 539 -290 q 338 -240 396 -290 l 365 -204 q 475 -242 415 -242 q 542 -223 515 -242 q 569 -174 569 -204 q 544 -124 569 -142 q 472 -107 518 -107 q 435 -111 451 -107 l 415 -97 l 440 -15 q 226 39 328 -10 q 69 165 125 88 l 111 207 q 257 89 158 135 q 463 43 356 43 q 695 98 610 43 q 781 247 781 153 q 751 346 781 307 q 651 413 721 385 q 450 465 581 440 q 240 526 317 492 q 128 611 163 561 q 93 736 93 661 q 138 869 93 811 q 266 958 183 926 q 457 989 349 989 q 651 953 563 989 q 801 850 740 918 l 763 807 q 630 899 710 867 q 456 932 550 932 q 235 878 318 932 q 153 736 153 825 q 182 640 153 678 q 278 574 211 601 q 463 524 344 547 q 690 460 608 494 q 806 375 771 425 q 842 249 842 325 z "},"Ŝ":{"ha":910,"x_min":69,"x_max":842,"o":"m 463 -15 q 236 34 343 -15 q 69 165 129 83 l 111 207 q 257 89 158 135 q 463 43 356 43 q 695 98 610 43 q 781 247 781 153 q 751 346 781 307 q 651 413 721 385 q 450 465 581 440 q 240 526 317 492 q 128 611 163 561 q 93 736 93 661 q 138 869 93 811 q 266 958 183 926 q 457 989 349 989 q 651 953 563 989 q 801 850 740 918 l 763 807 q 630 899 710 867 q 456 932 550 932 q 235 878 318 932 q 153 736 153 825 q 182 640 153 678 q 278 574 211 601 q 463 524 344 547 q 690 460 608 494 q 806 375 771 425 q 842 249 842 325 q 740 56 842 126 q 463 -15 638 -15 m 642 1083 l 575 1083 l 454 1200 l 332 1083 l 265 1083 l 428 1246 l 479 1246 l 642 1083 z "},"Ș":{"ha":910,"x_min":69,"x_max":842,"o":"m 463 -15 q 236 34 343 -15 q 69 165 129 83 l 111 207 q 257 89 158 135 q 463 43 356 43 q 695 98 610 43 q 781 247 781 153 q 751 346 781 307 q 651 413 721 385 q 450 465 581 440 q 240 526 317 492 q 128 611 163 561 q 93 736 93 661 q 138 869 93 811 q 266 958 183 926 q 457 989 349 989 q 651 953 563 989 q 801 850 740 918 l 763 807 q 630 899 710 867 q 456 932 550 932 q 235 878 318 932 q 153 736 153 825 q 182 640 153 678 q 278 574 211 601 q 463 524 344 547 q 690 460 608 494 q 806 375 771 425 q 842 249 842 325 q 740 56 842 126 q 463 -15 638 -15 m 472 -110 q 503 -122 490 -110 q 517 -153 517 -133 q 508 -192 517 -167 q 461 -297 499 -217 l 415 -297 l 454 -190 q 426 -153 426 -182 q 440 -122 426 -133 q 472 -110 454 -110 z "},"ẞ":{"ha":979,"x_min":140,"x_max":922,"o":"m 582 618 q 831 535 739 618 q 922 307 922 451 q 826 72 922 154 q 553 -11 731 -11 q 356 25 447 -11 l 375 81 q 551 49 456 49 q 783 115 704 49 q 861 307 861 181 q 785 494 861 428 q 572 560 710 560 l 514 560 l 496 600 l 743 913 l 457 913 q 264 849 326 913 q 201 654 201 786 l 201 -1 l 140 -1 l 140 656 q 456 972 140 972 l 829 972 l 829 929 l 582 618 z "},"T":{"ha":818,"x_min":21,"x_max":797,"o":"m 797 972 l 797 913 l 439 913 l 439 0 l 379 0 l 379 913 l 21 913 l 21 972 l 797 972 z "},"Ŧ":{"ha":818,"x_min":21,"x_max":797,"o":"m 797 913 l 439 913 l 439 521 l 626 521 l 626 469 l 439 469 l 439 0 l 379 0 l 379 469 l 192 469 l 192 521 l 379 521 l 379 913 l 21 913 l 21 972 l 797 972 l 797 913 z "},"Ť":{"ha":818,"x_min":21,"x_max":797,"o":"m 797 972 l 797 913 l 439 913 l 439 0 l 379 0 l 379 913 l 21 913 l 21 972 l 797 972 m 532 1247 l 599 1247 l 436 1085 l 385 1085 l 222 1247 l 289 1247 l 411 1131 l 532 1247 z "},"Ţ":{"ha":818,"x_min":21,"x_max":797,"o":"m 436 0 l 417 -65 l 429 -65 q 527 -95 490 -65 q 564 -175 564 -125 q 523 -258 564 -225 q 419 -290 482 -290 q 281 -240 339 -290 l 308 -204 q 418 -242 358 -242 q 485 -223 458 -242 q 513 -174 513 -204 q 487 -124 513 -142 q 415 -107 461 -107 q 378 -111 394 -107 l 358 -97 l 388 0 l 379 0 l 379 913 l 21 913 l 21 972 l 797 972 l 797 913 l 439 913 l 439 0 l 436 0 z "},"Ț":{"ha":818,"x_min":21,"x_max":797,"o":"m 797 972 l 797 913 l 439 913 l 439 0 l 379 0 l 379 913 l 21 913 l 21 972 l 797 972 m 414 -110 q 445 -122 432 -110 q 458 -153 458 -133 q 449 -192 458 -167 q 403 -297 440 -217 l 357 -297 l 396 -190 q 368 -153 368 -182 q 382 -122 368 -133 q 414 -110 396 -110 z "},"U":{"ha":1017,"x_min":129,"x_max":888,"o":"m 508 -15 q 311 33 397 -15 q 177 170 225 82 q 129 372 129 258 l 129 972 l 190 972 l 190 372 q 231 201 190 275 q 343 85 271 126 q 508 43 415 43 q 674 85 601 43 q 786 201 746 126 q 826 372 826 275 l 826 972 l 888 972 l 888 372 q 840 170 888 258 q 706 33 792 82 q 508 -15 619 -15 z "},"Ú":{"ha":1017,"x_min":129,"x_max":888,"o":"m 508 -15 q 311 33 397 -15 q 177 170 225 82 q 129 372 129 258 l 129 972 l 190 972 l 190 372 q 231 201 190 275 q 343 85 271 126 q 508 43 415 43 q 674 85 601 43 q 786 201 746 126 q 826 372 826 275 l 826 972 l 888 972 l 888 372 q 840 170 888 258 q 706 33 792 82 q 508 -15 619 -15 m 581 1246 l 650 1246 l 531 1083 l 474 1083 l 581 1246 z "},"Ŭ":{"ha":1017,"x_min":129,"x_max":888,"o":"m 508 -15 q 311 33 397 -15 q 177 170 225 82 q 129 372 129 258 l 129 972 l 190 972 l 190 372 q 231 201 190 275 q 343 85 271 126 q 508 43 415 43 q 674 85 601 43 q 786 201 746 126 q 826 372 826 275 l 826 972 l 888 972 l 888 372 q 840 170 888 258 q 706 33 792 82 q 508 -15 619 -15 m 508 1085 q 388 1129 435 1085 q 340 1243 340 1174 l 390 1243 q 423 1165 390 1194 q 508 1135 456 1135 q 593 1165 561 1135 q 625 1243 625 1194 l 676 1243 q 629 1130 676 1175 q 508 1085 582 1085 z "},"Û":{"ha":1017,"x_min":129,"x_max":888,"o":"m 508 -15 q 311 33 397 -15 q 177 170 225 82 q 129 372 129 258 l 129 972 l 190 972 l 190 372 q 231 201 190 275 q 343 85 271 126 q 508 43 415 43 q 674 85 601 43 q 786 201 746 126 q 826 372 826 275 l 826 972 l 888 972 l 888 372 q 840 170 888 258 q 706 33 792 82 q 508 -15 619 -15 m 696 1083 l 629 1083 l 508 1200 l 386 1083 l 319 1083 l 482 1246 l 533 1246 l 696 1083 z "},"Ü":{"ha":1017,"x_min":129,"x_max":888,"o":"m 508 -15 q 311 33 397 -15 q 177 170 225 82 q 129 372 129 258 l 129 972 l 190 972 l 190 372 q 231 201 190 275 q 343 85 271 126 q 508 43 415 43 q 674 85 601 43 q 786 201 746 126 q 826 372 826 275 l 826 972 l 888 972 l 888 372 q 840 170 888 258 q 706 33 792 82 q 508 -15 619 -15 m 375 1129 q 338 1144 353 1129 q 324 1182 324 1160 q 338 1219 324 1204 q 375 1235 353 1235 q 413 1220 397 1235 q 428 1182 428 1206 q 413 1144 428 1160 q 375 1129 397 1129 m 640 1129 q 603 1144 618 1129 q 588 1182 588 1160 q 603 1219 588 1204 q 640 1235 618 1235 q 678 1220 663 1235 q 693 1182 693 1206 q 678 1144 693 1160 q 640 1129 663 1129 z "},"Ù":{"ha":1017,"x_min":129,"x_max":888,"o":"m 508 -15 q 311 33 397 -15 q 177 170 225 82 q 129 372 129 258 l 129 972 l 190 972 l 190 372 q 231 201 190 275 q 343 85 271 126 q 508 43 415 43 q 674 85 601 43 q 786 201 746 126 q 826 372 826 275 l 826 972 l 888 972 l 888 372 q 840 170 888 258 q 706 33 792 82 q 508 -15 619 -15 m 486 1083 l 365 1246 l 435 1246 l 542 1083 l 486 1083 z "},"Ű":{"ha":1017,"x_min":129,"x_max":888,"o":"m 508 -15 q 311 33 397 -15 q 177 170 225 82 q 129 372 129 258 l 129 972 l 190 972 l 190 372 q 231 201 190 275 q 343 85 271 126 q 508 43 415 43 q 674 85 601 43 q 786 201 746 126 q 826 372 826 275 l 826 972 l 888 972 l 888 372 q 840 170 888 258 q 706 33 792 82 q 508 -15 619 -15 m 476 1258 l 544 1258 l 436 1090 l 379 1090 l 476 1258 m 657 1258 l 726 1258 l 617 1090 l 560 1090 l 657 1258 z "},"Ū":{"ha":1017,"x_min":129,"x_max":888,"o":"m 508 -15 q 311 33 397 -15 q 177 170 225 82 q 129 372 129 258 l 129 972 l 190 972 l 190 372 q 231 201 190 275 q 343 85 271 126 q 508 43 415 43 q 674 85 601 43 q 786 201 746 126 q 826 372 826 275 l 826 972 l 888 972 l 888 372 q 840 170 888 258 q 706 33 792 82 q 508 -15 619 -15 m 313 1178 l 703 1178 l 703 1129 l 313 1129 l 313 1178 z "},"Ų":{"ha":1017,"x_min":129,"x_max":888,"o":"m 888 972 l 888 372 q 817 134 888 233 q 626 0 746 35 q 524 -61 557 -29 q 492 -131 492 -93 q 514 -184 492 -165 q 576 -203 536 -203 q 697 -157 646 -203 l 726 -197 q 571 -257 658 -257 q 472 -224 508 -257 q 435 -136 435 -192 q 501 -15 435 -68 q 308 35 392 -14 q 176 172 224 85 q 129 372 129 260 l 129 972 l 190 972 l 190 372 q 231 201 190 275 q 343 85 271 126 q 508 43 415 43 q 674 85 601 43 q 786 201 746 126 q 826 372 826 275 l 826 972 l 888 972 z "},"Ů":{"ha":1017,"x_min":129,"x_max":888,"o":"m 508 -15 q 311 33 397 -15 q 177 170 225 82 q 129 372 129 258 l 129 972 l 190 972 l 190 372 q 231 201 190 275 q 343 85 271 126 q 508 43 415 43 q 674 85 601 43 q 786 201 746 126 q 826 372 826 275 l 826 972 l 888 972 l 888 372 q 840 170 888 258 q 706 33 792 82 q 508 -15 619 -15 m 508 1035 q 406 1072 446 1035 q 367 1169 367 1110 q 406 1267 367 1229 q 508 1304 446 1304 q 610 1267 571 1304 q 650 1169 650 1229 q 610 1072 650 1110 q 508 1035 571 1035 m 508 1081 q 576 1105 550 1081 q 601 1169 601 1129 q 576 1234 601 1210 q 508 1258 550 1258 q 441 1234 467 1258 q 415 1169 415 1210 q 441 1105 415 1129 q 508 1081 467 1081 z "},"Ũ":{"ha":1017,"x_min":129,"x_max":888,"o":"m 508 -15 q 311 33 397 -15 q 177 170 225 82 q 129 372 129 258 l 129 972 l 190 972 l 190 372 q 231 201 190 275 q 343 85 271 126 q 508 43 415 43 q 674 85 601 43 q 786 201 746 126 q 826 372 826 275 l 826 972 l 888 972 l 888 372 q 840 170 888 258 q 706 33 792 82 q 508 -15 619 -15 m 597 1113 q 555 1119 576 1113 q 501 1144 533 1126 q 450 1170 467 1164 q 418 1176 433 1176 q 367 1128 383 1176 l 328 1144 q 362 1205 339 1183 q 418 1226 385 1226 q 458 1219 438 1226 q 519 1190 478 1213 q 566 1168 550 1174 q 596 1163 582 1163 q 649 1213 632 1163 l 689 1199 q 655 1135 679 1157 q 597 1113 631 1113 z "},"V":{"ha":961,"x_min":44,"x_max":915,"o":"m 850 972 l 915 972 l 515 0 l 444 0 l 44 972 l 110 972 l 329 440 l 481 71 l 850 972 z "},"W":{"ha":1506,"x_min":53,"x_max":1451,"o":"m 1386 972 l 1451 972 l 1113 0 l 1042 0 l 889 468 l 751 888 l 613 468 l 457 0 l 386 0 l 53 972 l 118 972 l 421 75 l 717 972 l 786 972 l 1078 75 l 1204 442 l 1386 972 z "},"Ẃ":{"ha":1506,"x_min":53,"x_max":1451,"o":"m 1386 972 l 1451 972 l 1113 0 l 1042 0 l 889 468 l 751 888 l 613 468 l 457 0 l 386 0 l 53 972 l 118 972 l 421 75 l 717 972 l 786 972 l 1078 75 l 1204 442 l 1386 972 m 825 1246 l 894 1246 l 775 1083 l 718 1083 l 825 1246 z "},"Ŵ":{"ha":1506,"x_min":53,"x_max":1451,"o":"m 1386 972 l 1451 972 l 1113 0 l 1042 0 l 889 468 l 751 888 l 613 468 l 457 0 l 386 0 l 53 972 l 118 972 l 421 75 l 717 972 l 786 972 l 1078 75 l 1204 442 l 1386 972 m 939 1083 l 872 1083 l 751 1200 l 629 1083 l 563 1083 l 725 1246 l 776 1246 l 939 1083 z "},"Ẅ":{"ha":1506,"x_min":53,"x_max":1451,"o":"m 1386 972 l 1451 972 l 1113 0 l 1042 0 l 889 468 l 751 888 l 613 468 l 457 0 l 386 0 l 53 972 l 118 972 l 421 75 l 717 972 l 786 972 l 1078 75 l 1204 442 l 1386 972 m 619 1129 q 583 1144 597 1129 q 568 1182 568 1160 q 583 1219 568 1204 q 619 1235 597 1235 q 657 1220 642 1235 q 672 1182 672 1206 q 657 1144 672 1160 q 619 1129 642 1129 m 885 1129 q 847 1144 863 1129 q 832 1182 832 1160 q 847 1219 832 1204 q 885 1235 863 1235 q 922 1220 907 1235 q 938 1182 938 1206 q 922 1144 938 1160 q 885 1129 907 1129 z "},"Ẁ":{"ha":1506,"x_min":53,"x_max":1451,"o":"m 1386 972 l 1451 972 l 1113 0 l 1042 0 l 889 468 l 751 888 l 613 468 l 457 0 l 386 0 l 53 972 l 118 972 l 421 75 l 717 972 l 786 972 l 1078 75 l 1204 442 l 1386 972 m 731 1083 l 610 1246 l 679 1246 l 786 1083 l 731 1083 z "},"X":{"ha":832,"x_min":17,"x_max":815,"o":"m 454 500 l 815 0 l 740 0 l 415 453 l 90 0 l 17 0 l 375 499 l 44 972 l 118 972 l 250 782 l 417 546 l 582 782 l 714 972 l 788 972 l 454 500 z "},"Y":{"ha":911,"x_min":42,"x_max":868,"o":"m 868 972 l 485 388 l 485 0 l 424 0 l 424 388 l 42 972 l 114 972 l 454 447 l 794 972 l 868 972 z "},"Ý":{"ha":911,"x_min":42,"x_max":868,"o":"m 868 972 l 485 388 l 485 0 l 424 0 l 424 388 l 42 972 l 114 972 l 454 447 l 794 972 l 868 972 m 528 1246 l 597 1246 l 478 1083 l 421 1083 l 528 1246 z "},"Ŷ":{"ha":911,"x_min":42,"x_max":868,"o":"m 868 972 l 485 388 l 485 0 l 424 0 l 424 388 l 42 972 l 114 972 l 454 447 l 794 972 l 868 972 m 642 1083 l 575 1083 l 454 1200 l 332 1083 l 265 1083 l 428 1246 l 479 1246 l 642 1083 z "},"Ÿ":{"ha":911,"x_min":42,"x_max":868,"o":"m 868 972 l 485 388 l 485 0 l 424 0 l 424 388 l 42 972 l 114 972 l 454 447 l 794 972 l 868 972 m 322 1129 q 285 1144 300 1129 q 271 1182 271 1160 q 285 1219 271 1204 q 322 1235 300 1235 q 360 1220 344 1235 q 375 1182 375 1206 q 360 1144 375 1160 q 322 1129 344 1129 m 588 1129 q 550 1144 565 1129 q 535 1182 535 1160 q 550 1219 535 1204 q 588 1235 565 1235 q 625 1220 610 1235 q 640 1182 640 1206 q 625 1144 640 1160 q 588 1129 610 1129 z "},"Ỳ":{"ha":911,"x_min":42,"x_max":868,"o":"m 868 972 l 485 388 l 485 0 l 424 0 l 424 388 l 42 972 l 114 972 l 454 447 l 794 972 l 868 972 m 433 1083 l 313 1246 l 382 1246 l 489 1083 l 433 1083 z "},"Z":{"ha":813,"x_min":28,"x_max":764,"o":"m 764 972 l 764 939 l 119 60 l 764 60 l 764 0 l 28 0 l 28 35 l 672 914 l 78 914 l 78 972 l 764 972 z "},"Ź":{"ha":813,"x_min":28,"x_max":764,"o":"m 764 972 l 764 939 l 119 60 l 764 60 l 764 0 l 28 0 l 28 35 l 672 914 l 78 914 l 78 972 l 764 972 m 486 1246 l 556 1246 l 436 1083 l 379 1083 l 486 1246 z "},"Ž":{"ha":813,"x_min":28,"x_max":764,"o":"m 764 972 l 764 939 l 119 60 l 764 60 l 764 0 l 28 0 l 28 35 l 672 914 l 78 914 l 78 972 l 764 972 m 535 1247 l 601 1247 l 439 1085 l 388 1085 l 225 1247 l 292 1247 l 414 1131 l 535 1247 z "},"Ż":{"ha":813,"x_min":28,"x_max":764,"o":"m 764 972 l 764 939 l 119 60 l 764 60 l 764 0 l 28 0 l 28 35 l 672 914 l 78 914 l 78 972 l 764 972 m 414 1133 q 376 1148 390 1133 q 361 1185 361 1163 q 376 1222 361 1207 q 414 1238 390 1238 q 451 1222 436 1238 q 465 1185 465 1207 q 451 1148 465 1163 q 414 1133 436 1133 z "},"a":{"ha":878,"x_min":69,"x_max":764,"o":"m 764 686 l 764 0 l 708 0 l 707 153 q 590 33 668 76 q 413 -11 511 -11 q 235 34 313 -11 q 113 160 157 79 q 69 343 69 240 q 113 526 69 446 q 235 652 157 607 q 413 697 313 697 q 590 653 511 697 q 707 532 668 608 l 708 686 l 764 686 m 417 43 q 566 81 500 43 q 669 186 632 118 q 706 343 706 254 q 669 500 706 432 q 566 606 632 568 q 417 643 500 643 q 267 606 332 643 q 165 500 201 568 q 128 343 128 432 q 165 186 128 254 q 267 81 201 118 q 417 43 332 43 z "},"á":{"ha":878,"x_min":69,"x_max":764,"o":"m 764 686 l 764 0 l 708 0 l 707 153 q 590 33 668 76 q 413 -11 511 -11 q 235 34 313 -11 q 113 160 157 79 q 69 343 69 240 q 113 526 69 446 q 235 652 157 607 q 413 697 313 697 q 590 653 511 697 q 707 532 668 608 l 708 686 l 764 686 m 417 43 q 566 81 500 43 q 669 186 632 118 q 706 343 706 254 q 669 500 706 432 q 566 606 632 568 q 417 643 500 643 q 267 606 332 643 q 165 500 201 568 q 128 343 128 432 q 165 186 128 254 q 267 81 201 118 q 417 43 332 43 m 494 972 l 564 972 l 446 804 l 389 804 l 494 972 z "},"ă":{"ha":878,"x_min":69,"x_max":764,"o":"m 764 686 l 764 0 l 708 0 l 707 153 q 590 33 668 76 q 413 -11 511 -11 q 235 34 313 -11 q 113 160 157 79 q 69 343 69 240 q 113 526 69 446 q 235 652 157 607 q 413 697 313 697 q 590 653 511 697 q 707 532 668 608 l 708 686 l 764 686 m 417 43 q 566 81 500 43 q 669 186 632 118 q 706 343 706 254 q 669 500 706 432 q 566 606 632 568 q 417 643 500 643 q 267 606 332 643 q 165 500 201 568 q 128 343 128 432 q 165 186 128 254 q 267 81 201 118 q 417 43 332 43 m 439 824 q 318 865 365 824 q 271 972 271 907 l 319 972 q 353 899 319 928 q 439 871 386 871 q 524 899 492 871 q 557 972 557 928 l 607 972 q 560 866 607 908 q 439 824 513 824 z "},"â":{"ha":878,"x_min":69,"x_max":764,"o":"m 764 686 l 764 0 l 708 0 l 707 153 q 590 33 668 76 q 413 -11 511 -11 q 235 34 313 -11 q 113 160 157 79 q 69 343 69 240 q 113 526 69 446 q 235 652 157 607 q 413 697 313 697 q 590 653 511 697 q 707 532 668 608 l 708 686 l 764 686 m 417 43 q 566 81 500 43 q 669 186 632 118 q 706 343 706 254 q 669 500 706 432 q 566 606 632 568 q 417 643 500 643 q 267 606 332 643 q 165 500 201 568 q 128 343 128 432 q 165 186 128 254 q 267 81 201 118 q 417 43 332 43 m 638 804 l 571 804 l 438 926 l 303 804 l 236 804 l 411 972 l 463 972 l 638 804 z "},"ä":{"ha":878,"x_min":69,"x_max":764,"o":"m 764 686 l 764 0 l 708 0 l 707 153 q 590 33 668 76 q 413 -11 511 -11 q 235 34 313 -11 q 113 160 157 79 q 69 343 69 240 q 113 526 69 446 q 235 652 157 607 q 413 697 313 697 q 590 653 511 697 q 707 532 668 608 l 708 686 l 764 686 m 417 43 q 566 81 500 43 q 669 186 632 118 q 706 343 706 254 q 669 500 706 432 q 566 606 632 568 q 417 643 500 643 q 267 606 332 643 q 165 500 201 568 q 128 343 128 432 q 165 186 128 254 q 267 81 201 118 q 417 43 332 43 m 308 849 q 272 863 286 849 q 257 900 257 878 q 272 936 257 922 q 308 950 286 950 q 345 936 331 950 q 360 900 360 922 q 345 863 360 878 q 308 849 331 849 m 569 849 q 533 863 547 849 q 518 900 518 878 q 533 936 518 922 q 569 950 547 950 q 606 936 592 950 q 619 900 619 922 q 606 863 619 878 q 569 849 592 849 z "},"à":{"ha":878,"x_min":69,"x_max":764,"o":"m 764 686 l 764 0 l 708 0 l 707 153 q 590 33 668 76 q 413 -11 511 -11 q 235 34 313 -11 q 113 160 157 79 q 69 343 69 240 q 113 526 69 446 q 235 652 157 607 q 413 697 313 697 q 590 653 511 697 q 707 532 668 608 l 708 686 l 764 686 m 417 43 q 566 81 500 43 q 669 186 632 118 q 706 343 706 254 q 669 500 706 432 q 566 606 632 568 q 417 643 500 643 q 267 606 332 643 q 165 500 201 568 q 128 343 128 432 q 165 186 128 254 q 267 81 201 118 q 417 43 332 43 m 431 804 l 313 972 l 382 972 l 488 804 l 431 804 z "},"ā":{"ha":878,"x_min":69,"x_max":764,"o":"m 764 686 l 764 0 l 708 0 l 707 153 q 590 33 668 76 q 413 -11 511 -11 q 235 34 313 -11 q 113 160 157 79 q 69 343 69 240 q 113 526 69 446 q 235 652 157 607 q 413 697 313 697 q 590 653 511 697 q 707 532 668 608 l 708 686 l 764 686 m 417 43 q 566 81 500 43 q 669 186 632 118 q 706 343 706 254 q 669 500 706 432 q 566 606 632 568 q 417 643 500 643 q 267 606 332 643 q 165 500 201 568 q 128 343 128 432 q 165 186 128 254 q 267 81 201 118 q 417 43 332 43 m 258 892 l 618 892 l 618 843 l 258 843 l 258 892 z "},"ą":{"ha":878,"x_min":69,"x_max":861,"o":"m 861 -196 q 704 -256 793 -256 q 607 -224 643 -256 q 571 -139 571 -193 q 708 25 571 -40 l 707 153 q 590 33 668 76 q 413 -11 511 -11 q 235 34 313 -11 q 113 160 157 79 q 69 343 69 240 q 113 526 69 446 q 235 652 157 607 q 413 697 313 697 q 590 653 511 697 q 707 532 668 608 l 708 686 l 764 686 l 764 0 q 658 -60 692 -28 q 625 -133 625 -93 q 647 -185 625 -167 q 711 -204 669 -204 q 831 -157 776 -204 l 861 -196 m 417 43 q 566 81 500 43 q 669 186 632 118 q 706 343 706 254 q 669 500 706 432 q 566 606 632 568 q 417 643 500 643 q 267 606 332 643 q 165 500 201 568 q 128 343 128 432 q 165 186 128 254 q 267 81 201 118 q 417 43 332 43 z "},"å":{"ha":878,"x_min":69,"x_max":764,"o":"m 764 686 l 764 0 l 708 0 l 707 153 q 590 33 668 76 q 413 -11 511 -11 q 235 34 313 -11 q 113 160 157 79 q 69 343 69 240 q 113 526 69 446 q 235 652 157 607 q 413 697 313 697 q 590 653 511 697 q 707 532 668 608 l 708 686 l 764 686 m 417 43 q 566 81 500 43 q 669 186 632 118 q 706 343 706 254 q 669 500 706 432 q 566 606 632 568 q 417 643 500 643 q 267 606 332 643 q 165 500 201 568 q 128 343 128 432 q 165 186 128 254 q 267 81 201 118 q 417 43 332 43 m 439 749 q 337 786 376 749 q 297 883 297 824 q 337 981 297 943 q 439 1018 376 1018 q 541 981 501 1018 q 581 883 581 943 q 541 786 581 824 q 439 749 501 749 m 439 794 q 506 819 481 794 q 532 883 532 843 q 506 948 532 924 q 439 972 481 972 q 372 948 397 972 q 346 883 346 924 q 372 819 346 843 q 439 794 397 794 z "},"ã":{"ha":878,"x_min":69,"x_max":764,"o":"m 764 686 l 764 0 l 708 0 l 707 153 q 590 33 668 76 q 413 -11 511 -11 q 235 34 313 -11 q 113 160 157 79 q 69 343 69 240 q 113 526 69 446 q 235 652 157 607 q 413 697 313 697 q 590 653 511 697 q 707 532 668 608 l 708 686 l 764 686 m 417 43 q 566 81 500 43 q 669 186 632 118 q 706 343 706 254 q 669 500 706 432 q 566 606 632 568 q 417 643 500 643 q 267 606 332 643 q 165 500 201 568 q 128 343 128 432 q 165 186 128 254 q 267 81 201 118 q 417 43 332 43 m 522 853 q 483 860 503 853 q 432 885 464 867 q 383 910 397 904 q 354 915 369 915 q 303 867 319 915 l 264 883 q 298 944 275 924 q 354 965 321 965 q 392 958 374 965 q 450 929 410 951 q 493 908 479 914 q 521 903 507 903 q 572 953 556 903 l 613 938 q 579 874 603 896 q 522 853 556 853 z "},"æ":{"ha":1451,"x_min":69,"x_max":1393,"o":"m 1054 699 q 1232 656 1156 699 q 1351 538 1308 614 q 1393 363 1393 461 q 1392 321 1393 335 l 765 321 q 851 118 774 193 q 1053 43 929 43 q 1197 74 1128 43 q 1306 153 1267 104 l 1347 119 q 1222 24 1300 58 q 1054 -11 1144 -11 q 882 31 958 -11 q 761 151 806 74 l 761 0 l 706 0 l 706 153 q 590 33 668 76 q 413 -11 511 -11 q 235 34 313 -11 q 113 160 157 79 q 69 343 69 240 q 113 526 69 446 q 235 652 157 607 q 413 697 313 697 q 588 654 510 697 q 706 536 665 611 l 706 686 l 761 686 l 761 535 q 882 656 806 613 q 1054 699 958 699 m 1050 644 q 854 570 932 644 q 765 375 776 496 l 1338 375 q 1301 515 1338 454 q 1199 610 1264 576 q 1050 644 1135 644 m 415 43 q 565 81 500 43 q 667 186 631 118 q 703 343 703 254 q 667 500 703 432 q 565 606 631 568 q 415 643 500 643 q 265 606 331 643 q 164 500 200 568 q 128 343 128 432 q 164 187 128 256 q 265 81 200 118 q 415 43 331 43 z "},"ǽ":{"ha":1451,"x_min":69,"x_max":1393,"o":"m 1054 699 q 1232 656 1156 699 q 1351 538 1308 614 q 1393 363 1393 461 q 1392 321 1393 335 l 765 321 q 851 118 774 193 q 1053 43 929 43 q 1197 74 1128 43 q 1306 153 1267 104 l 1347 119 q 1222 24 1300 58 q 1054 -11 1144 -11 q 882 31 958 -11 q 761 151 806 74 l 761 0 l 706 0 l 706 153 q 590 33 668 76 q 413 -11 511 -11 q 235 34 313 -11 q 113 160 157 79 q 69 343 69 240 q 113 526 69 446 q 235 652 157 607 q 413 697 313 697 q 588 654 510 697 q 706 536 665 611 l 706 686 l 761 686 l 761 535 q 882 656 806 613 q 1054 699 958 699 m 1050 644 q 854 570 932 644 q 765 375 776 496 l 1338 375 q 1301 515 1338 454 q 1199 610 1264 576 q 1050 644 1135 644 m 415 43 q 565 81 500 43 q 667 186 631 118 q 703 343 703 254 q 667 500 703 432 q 565 606 631 568 q 415 643 500 643 q 265 606 331 643 q 164 500 200 568 q 128 343 128 432 q 164 187 128 256 q 265 81 200 118 q 415 43 331 43 m 789 972 l 858 972 l 740 804 l 683 804 l 789 972 z "},"b":{"ha":878,"x_min":115,"x_max":810,"o":"m 465 697 q 644 652 565 697 q 766 526 722 607 q 810 343 810 446 q 766 160 810 240 q 644 34 722 79 q 465 -11 565 -11 q 287 33 365 -11 q 171 153 208 78 l 171 0 l 115 0 l 115 972 l 174 972 l 174 536 q 290 654 213 611 q 465 697 367 697 m 463 43 q 612 81 546 43 q 715 186 678 118 q 751 343 751 254 q 715 500 751 432 q 612 606 678 568 q 463 643 546 643 q 313 606 378 643 q 210 500 247 568 q 174 343 174 432 q 210 186 174 254 q 313 81 247 118 q 463 43 378 43 z "},"c":{"ha":735,"x_min":69,"x_max":676,"o":"m 425 -12 q 244 33 325 -12 q 116 159 163 78 q 69 343 69 240 q 116 529 69 449 q 243 654 163 610 q 425 699 324 699 q 669 597 568 699 l 631 558 q 537 622 590 601 q 424 643 483 643 q 274 608 342 643 q 167 504 207 572 q 128 343 128 436 q 167 185 128 253 q 275 80 207 117 q 425 43 343 43 q 540 65 485 43 q 638 129 594 86 l 676 88 q 560 13 625 39 q 425 -12 494 -12 z "},"ć":{"ha":735,"x_min":69,"x_max":676,"o":"m 425 -12 q 244 33 325 -12 q 116 159 163 78 q 69 343 69 240 q 116 529 69 449 q 243 654 163 610 q 425 699 324 699 q 669 597 568 699 l 631 558 q 537 622 590 601 q 424 643 483 643 q 274 608 342 643 q 167 504 207 572 q 128 343 128 436 q 167 185 128 253 q 275 80 207 117 q 425 43 343 43 q 540 65 485 43 q 638 129 594 86 l 676 88 q 560 13 625 39 q 425 -12 494 -12 m 476 972 l 546 972 l 428 804 l 371 804 l 476 972 z "},"č":{"ha":735,"x_min":69,"x_max":676,"o":"m 425 -12 q 244 33 325 -12 q 116 159 163 78 q 69 343 69 240 q 116 529 69 449 q 243 654 163 610 q 425 699 324 699 q 669 597 568 699 l 631 558 q 537 622 590 601 q 424 643 483 643 q 274 608 342 643 q 167 504 207 572 q 128 343 128 436 q 167 185 128 253 q 275 80 207 117 q 425 43 343 43 q 540 65 485 43 q 638 129 594 86 l 676 88 q 560 13 625 39 q 425 -12 494 -12 m 554 972 l 621 972 l 446 804 l 394 804 l 219 972 l 286 972 l 421 849 l 554 972 z "},"ç":{"ha":735,"x_min":69,"x_max":676,"o":"m 431 -65 q 528 -95 492 -65 q 564 -175 564 -125 q 524 -258 564 -225 q 421 -290 483 -290 q 283 -240 340 -290 l 310 -206 q 419 -243 360 -243 q 487 -224 460 -243 q 514 -174 514 -204 q 488 -124 514 -142 q 417 -107 463 -107 q 379 -111 396 -107 l 361 -97 l 386 -11 q 224 44 296 -3 q 110 169 151 92 q 69 343 69 247 q 116 529 69 449 q 243 654 163 610 q 425 699 324 699 q 669 597 568 699 l 631 558 q 537 622 590 601 q 424 643 483 643 q 274 608 342 643 q 167 504 207 572 q 128 343 128 436 q 167 185 128 253 q 275 80 207 117 q 425 43 343 43 q 540 65 485 43 q 638 129 594 86 l 676 88 q 565 15 628 40 q 435 -12 503 -10 l 418 -65 l 431 -65 z "},"ĉ":{"ha":735,"x_min":69,"x_max":676,"o":"m 425 -12 q 244 33 325 -12 q 116 159 163 78 q 69 343 69 240 q 116 529 69 449 q 243 654 163 610 q 425 699 324 699 q 669 597 568 699 l 631 558 q 537 622 590 601 q 424 643 483 643 q 274 608 342 643 q 167 504 207 572 q 128 343 128 436 q 167 185 128 253 q 275 80 207 117 q 425 43 343 43 q 540 65 485 43 q 638 129 594 86 l 676 88 q 560 13 625 39 q 425 -12 494 -12 m 619 804 l 553 804 l 419 926 l 285 804 l 218 804 l 393 972 l 444 972 l 619 804 z "},"ċ":{"ha":735,"x_min":69,"x_max":676,"o":"m 425 -12 q 244 33 325 -12 q 116 159 163 78 q 69 343 69 240 q 116 529 69 449 q 243 654 163 610 q 425 699 324 699 q 669 597 568 699 l 631 558 q 537 622 590 601 q 424 643 483 643 q 274 608 342 643 q 167 504 207 572 q 128 343 128 436 q 167 185 128 253 q 275 80 207 117 q 425 43 343 43 q 540 65 485 43 q 638 129 594 86 l 676 88 q 560 13 625 39 q 425 -12 494 -12 m 421 849 q 383 863 397 849 q 368 899 368 876 q 383 935 368 921 q 421 950 399 950 q 458 935 443 950 q 472 899 472 921 q 458 863 472 876 q 421 849 443 849 z "},"d":{"ha":879,"x_min":69,"x_max":764,"o":"m 764 972 l 764 0 l 708 0 l 707 151 q 590 33 668 76 q 413 -11 511 -11 q 235 34 314 -11 q 113 160 157 79 q 69 343 69 240 q 113 526 69 446 q 235 652 157 607 q 413 697 314 697 q 589 654 511 697 q 706 536 667 611 l 706 972 l 764 972 m 417 43 q 566 81 500 43 q 669 186 632 118 q 706 343 706 254 q 669 500 706 432 q 566 606 632 568 q 417 643 500 643 q 267 606 332 643 q 165 500 201 568 q 128 343 128 432 q 165 186 128 254 q 267 81 201 118 q 417 43 332 43 z "},"ð":{"ha":849,"x_min":69,"x_max":775,"o":"m 499 875 q 775 344 775 690 q 731 159 775 240 q 606 33 686 78 q 422 -11 526 -11 q 230 37 310 -11 q 110 164 150 85 q 69 336 69 243 q 110 506 69 426 q 229 635 150 586 q 419 683 308 683 q 578 647 506 683 q 692 547 651 610 q 605 704 663 632 q 469 832 547 776 l 413 749 l 374 772 l 431 857 q 290 921 361 897 l 308 971 q 460 900 390 940 l 519 989 l 560 965 l 499 875 m 422 43 q 582 85 515 43 q 683 193 649 126 q 717 336 717 260 q 683 480 717 413 q 582 588 649 547 q 422 629 515 629 q 263 589 329 629 q 162 481 196 549 q 128 336 128 414 q 163 190 128 257 q 263 83 197 122 q 422 43 329 43 z "},"ď":{"ha":892,"x_min":69,"x_max":943,"o":"m 706 972 l 764 972 l 764 0 l 708 0 l 707 151 q 590 33 668 76 q 413 -11 511 -11 q 235 34 314 -11 q 113 160 157 79 q 69 343 69 240 q 113 526 69 446 q 235 652 157 607 q 413 697 314 697 q 589 654 511 697 q 706 536 667 611 l 706 972 m 885 972 l 943 972 l 876 769 l 832 769 l 885 972 m 417 43 q 567 81 501 43 q 669 186 633 118 q 706 343 706 254 q 669 500 706 432 q 567 606 633 568 q 417 643 501 643 q 267 606 332 643 q 165 500 201 568 q 128 343 128 432 q 164 186 128 254 q 266 81 200 118 q 417 43 332 43 z "},"đ":{"ha":878,"x_min":69,"x_max":860,"o":"m 860 815 l 764 815 l 764 0 l 708 0 l 707 151 q 590 33 668 76 q 413 -11 511 -11 q 235 34 314 -11 q 113 160 157 79 q 69 343 69 240 q 113 526 69 446 q 235 652 157 607 q 413 697 314 697 q 589 654 511 697 q 706 536 667 611 l 706 815 l 514 815 l 514 863 l 706 863 l 706 972 l 764 972 l 764 863 l 860 863 l 860 815 m 417 43 q 567 81 501 43 q 669 186 633 118 q 706 343 706 254 q 669 500 706 432 q 567 606 633 568 q 417 643 501 643 q 267 606 332 643 q 165 500 201 568 q 128 343 128 432 q 164 186 128 254 q 266 81 200 118 q 417 43 332 43 z "},"e":{"ha":815,"x_min":69,"x_max":758,"o":"m 414 699 q 595 656 517 699 q 716 538 674 614 q 758 361 758 461 q 757 321 758 335 l 128 321 q 215 117 138 192 q 417 42 293 42 q 563 72 493 42 q 669 153 632 103 l 711 118 q 585 22 663 57 q 417 -14 507 -14 q 238 32 317 -14 q 114 159 158 78 q 69 343 69 240 q 113 526 69 446 q 235 653 157 607 q 414 699 314 699 m 414 644 q 215 570 293 644 q 128 375 138 496 l 701 375 q 665 515 701 454 q 563 610 628 576 q 414 644 499 644 z "},"é":{"ha":815,"x_min":69,"x_max":758,"o":"m 414 699 q 595 656 517 699 q 716 538 674 614 q 758 361 758 461 q 757 321 758 335 l 128 321 q 215 117 138 192 q 417 42 293 42 q 563 72 493 42 q 669 153 632 103 l 711 118 q 585 22 663 57 q 417 -14 507 -14 q 238 32 317 -14 q 114 159 158 78 q 69 343 69 240 q 113 526 69 446 q 235 653 157 607 q 414 699 314 699 m 414 644 q 215 570 293 644 q 128 375 138 496 l 701 375 q 665 515 701 454 q 563 610 628 576 q 414 644 499 644 m 471 972 l 540 972 l 422 804 l 365 804 l 471 972 z "},"ĕ":{"ha":815,"x_min":69,"x_max":758,"o":"m 414 699 q 595 656 517 699 q 716 538 674 614 q 758 361 758 461 q 757 321 758 335 l 128 321 q 215 117 138 192 q 417 42 293 42 q 563 72 493 42 q 669 153 632 103 l 711 118 q 585 22 663 57 q 417 -14 507 -14 q 238 32 317 -14 q 114 159 158 78 q 69 343 69 240 q 113 526 69 446 q 235 653 157 607 q 414 699 314 699 m 414 644 q 215 570 293 644 q 128 375 138 496 l 701 375 q 665 515 701 454 q 563 610 628 576 q 414 644 499 644 m 415 824 q 294 865 342 824 q 247 972 247 907 l 296 972 q 329 899 296 928 q 415 871 363 871 q 501 899 468 871 q 533 972 533 928 l 583 972 q 536 866 583 908 q 415 824 489 824 z "},"ě":{"ha":815,"x_min":69,"x_max":758,"o":"m 414 699 q 595 656 517 699 q 716 538 674 614 q 758 361 758 461 q 757 321 758 335 l 128 321 q 215 117 138 192 q 417 42 293 42 q 563 72 493 42 q 669 153 632 103 l 711 118 q 585 22 663 57 q 417 -14 507 -14 q 238 32 317 -14 q 114 159 158 78 q 69 343 69 240 q 113 526 69 446 q 235 653 157 607 q 414 699 314 699 m 414 644 q 215 570 293 644 q 128 375 138 496 l 701 375 q 665 515 701 454 q 563 610 628 576 q 414 644 499 644 m 549 972 l 615 972 l 440 804 l 389 804 l 214 972 l 281 972 l 415 849 l 549 972 z "},"ê":{"ha":815,"x_min":69,"x_max":758,"o":"m 414 699 q 595 656 517 699 q 716 538 674 614 q 758 361 758 461 q 757 321 758 335 l 128 321 q 215 117 138 192 q 417 42 293 42 q 563 72 493 42 q 669 153 632 103 l 711 118 q 585 22 663 57 q 417 -14 507 -14 q 238 32 317 -14 q 114 159 158 78 q 69 343 69 240 q 113 526 69 446 q 235 653 157 607 q 414 699 314 699 m 414 644 q 215 570 293 644 q 128 375 138 496 l 701 375 q 665 515 701 454 q 563 610 628 576 q 414 644 499 644 m 614 804 l 547 804 l 414 926 l 279 804 l 213 804 l 388 972 l 439 972 l 614 804 z "},"ë":{"ha":815,"x_min":69,"x_max":758,"o":"m 414 699 q 595 656 517 699 q 716 538 674 614 q 758 361 758 461 q 757 321 758 335 l 128 321 q 215 117 138 192 q 417 42 293 42 q 563 72 493 42 q 669 153 632 103 l 711 118 q 585 22 663 57 q 417 -14 507 -14 q 238 32 317 -14 q 114 159 158 78 q 69 343 69 240 q 113 526 69 446 q 235 653 157 607 q 414 699 314 699 m 414 644 q 215 570 293 644 q 128 375 138 496 l 701 375 q 665 515 701 454 q 563 610 628 576 q 414 644 499 644 m 285 849 q 248 863 263 849 q 233 900 233 878 q 248 936 233 922 q 285 950 263 950 q 322 936 307 950 q 336 900 336 922 q 322 863 336 878 q 285 849 307 849 m 546 849 q 509 863 524 849 q 494 900 494 878 q 509 936 494 922 q 546 950 524 950 q 582 936 568 950 q 596 900 596 922 q 582 863 596 878 q 546 849 568 849 z "},"ė":{"ha":815,"x_min":69,"x_max":758,"o":"m 414 699 q 595 656 517 699 q 716 538 674 614 q 758 361 758 461 q 757 321 758 335 l 128 321 q 215 117 138 192 q 417 42 293 42 q 563 72 493 42 q 669 153 632 103 l 711 118 q 585 22 663 57 q 417 -14 507 -14 q 238 32 317 -14 q 114 159 158 78 q 69 343 69 240 q 113 526 69 446 q 235 653 157 607 q 414 699 314 699 m 414 644 q 215 570 293 644 q 128 375 138 496 l 701 375 q 665 515 701 454 q 563 610 628 576 q 414 644 499 644 m 415 849 q 377 863 392 849 q 363 899 363 876 q 378 935 363 921 q 415 950 393 950 q 452 935 438 950 q 467 899 467 921 q 452 863 467 876 q 415 849 438 849 z "},"è":{"ha":815,"x_min":69,"x_max":758,"o":"m 414 699 q 595 656 517 699 q 716 538 674 614 q 758 361 758 461 q 757 321 758 335 l 128 321 q 215 117 138 192 q 417 42 293 42 q 563 72 493 42 q 669 153 632 103 l 711 118 q 585 22 663 57 q 417 -14 507 -14 q 238 32 317 -14 q 114 159 158 78 q 69 343 69 240 q 113 526 69 446 q 235 653 157 607 q 414 699 314 699 m 414 644 q 215 570 293 644 q 128 375 138 496 l 701 375 q 665 515 701 454 q 563 610 628 576 q 414 644 499 644 m 407 804 l 289 972 l 358 972 l 464 804 l 407 804 z "},"ē":{"ha":815,"x_min":69,"x_max":758,"o":"m 414 699 q 595 656 517 699 q 716 538 674 614 q 758 361 758 461 q 757 321 758 335 l 128 321 q 215 117 138 192 q 417 42 293 42 q 563 72 493 42 q 669 153 632 103 l 711 118 q 585 22 663 57 q 417 -14 507 -14 q 238 32 317 -14 q 114 159 158 78 q 69 343 69 240 q 113 526 69 446 q 235 653 157 607 q 414 699 314 699 m 414 644 q 215 570 293 644 q 128 375 138 496 l 701 375 q 665 515 701 454 q 563 610 628 576 q 414 644 499 644 m 235 892 l 594 892 l 594 843 l 235 843 l 235 892 z "},"ę":{"ha":817,"x_min":69,"x_max":758,"o":"m 414 699 q 595 656 517 699 q 716 538 674 614 q 758 361 758 461 q 757 321 758 335 l 128 321 q 215 116 138 190 q 417 42 293 42 q 563 72 493 42 q 671 153 632 103 l 713 118 q 631 46 676 72 q 531 0 586 19 q 397 -131 397 -49 q 419 -185 397 -165 q 482 -204 442 -204 q 603 -157 549 -204 l 633 -196 q 476 -256 565 -256 q 379 -224 415 -256 q 343 -136 343 -192 q 408 -14 343 -64 q 233 34 310 -12 q 113 160 156 81 q 69 343 69 240 q 113 526 69 446 q 235 653 157 607 q 414 699 314 699 m 414 644 q 215 570 293 644 q 128 375 138 496 l 703 375 q 666 515 703 454 q 564 610 629 576 q 414 644 499 644 z "},"f":{"ha":490,"x_min":47,"x_max":522,"o":"m 386 935 q 281 894 317 935 q 246 761 246 854 l 246 686 l 475 686 l 475 632 l 246 632 l 246 0 l 188 0 l 188 632 l 47 632 l 47 686 l 188 686 l 188 761 q 385 989 188 989 q 522 942 465 989 l 492 900 q 386 935 447 935 z "},"g":{"ha":843,"x_min":69,"x_max":772,"o":"m 553 61 q 710 -22 654 38 q 765 -165 765 -81 q 722 -295 765 -239 q 601 -383 679 -351 q 422 -414 524 -414 q 248 -379 325 -414 q 128 -283 171 -344 q 86 -143 86 -221 l 144 -143 q 180 -253 144 -204 q 278 -331 215 -303 q 422 -358 342 -358 q 629 -306 551 -358 q 707 -165 707 -253 q 629 -25 707 -78 q 422 28 551 28 q 235 69 315 28 q 113 185 156 110 q 69 361 69 260 q 115 532 69 456 q 242 652 161 608 q 421 696 322 696 q 538 679 479 696 q 635 635 596 663 l 722 740 l 765 707 l 676 601 q 751 485 729 538 q 772 361 772 432 q 711 171 772 254 q 553 61 650 88 m 128 361 q 206 158 128 232 q 422 83 285 83 q 569 120 503 83 q 675 221 636 157 q 714 361 714 285 q 678 508 714 444 q 575 606 642 571 q 422 640 508 640 q 270 604 338 640 q 165 505 203 568 q 128 361 128 442 z "},"ğ":{"ha":843,"x_min":69,"x_max":772,"o":"m 553 61 q 710 -22 654 38 q 765 -165 765 -81 q 722 -295 765 -239 q 601 -383 679 -351 q 422 -414 524 -414 q 248 -379 325 -414 q 128 -283 171 -344 q 86 -143 86 -221 l 144 -143 q 180 -253 144 -204 q 278 -331 215 -303 q 422 -358 342 -358 q 629 -306 551 -358 q 707 -165 707 -253 q 629 -25 707 -78 q 422 28 551 28 q 235 69 315 28 q 113 185 156 110 q 69 361 69 260 q 115 532 69 456 q 242 652 161 608 q 421 696 322 696 q 538 679 479 696 q 635 635 596 663 l 722 740 l 765 707 l 676 601 q 751 485 729 538 q 772 361 772 432 q 711 171 772 254 q 553 61 650 88 m 128 361 q 206 158 128 232 q 422 83 285 83 q 569 120 503 83 q 675 221 636 157 q 714 361 714 285 q 678 508 714 444 q 575 606 642 571 q 422 640 508 640 q 270 604 338 640 q 165 505 203 568 q 128 361 128 442 m 422 824 q 301 865 349 824 q 254 972 254 907 l 303 972 q 336 899 303 928 q 422 871 369 871 q 508 899 475 871 q 540 972 540 928 l 590 972 q 543 866 590 908 q 422 824 496 824 z "},"ĝ":{"ha":843,"x_min":69,"x_max":772,"o":"m 553 61 q 710 -22 654 38 q 765 -165 765 -81 q 722 -295 765 -239 q 601 -383 679 -351 q 422 -414 524 -414 q 248 -379 325 -414 q 128 -283 171 -344 q 86 -143 86 -221 l 144 -143 q 180 -253 144 -204 q 278 -331 215 -303 q 422 -358 342 -358 q 629 -306 551 -358 q 707 -165 707 -253 q 629 -25 707 -78 q 422 28 551 28 q 235 69 315 28 q 113 185 156 110 q 69 361 69 260 q 115 532 69 456 q 242 652 161 608 q 421 696 322 696 q 538 679 479 696 q 635 635 596 663 l 722 740 l 765 707 l 676 601 q 751 485 729 538 q 772 361 772 432 q 711 171 772 254 q 553 61 650 88 m 128 361 q 206 158 128 232 q 422 83 285 83 q 569 120 503 83 q 675 221 636 157 q 714 361 714 285 q 678 508 714 444 q 575 606 642 571 q 422 640 508 640 q 270 604 338 640 q 165 505 203 568 q 128 361 128 442 m 621 806 l 554 806 l 421 928 l 286 806 l 219 806 l 394 974 l 446 974 l 621 806 z "},"ģ":{"ha":843,"x_min":69,"x_max":772,"o":"m 553 61 q 710 -22 654 38 q 765 -165 765 -81 q 722 -295 765 -239 q 601 -383 679 -351 q 422 -414 524 -414 q 248 -379 325 -414 q 128 -283 171 -344 q 86 -143 86 -221 l 144 -143 q 180 -253 144 -204 q 278 -331 215 -303 q 422 -358 342 -358 q 629 -306 551 -358 q 707 -165 707 -253 q 629 -25 707 -78 q 422 28 551 28 q 235 69 315 28 q 113 185 156 110 q 69 361 69 260 q 115 532 69 456 q 242 652 161 608 q 421 696 322 696 q 538 679 479 696 q 635 635 596 663 l 722 740 l 765 707 l 676 601 q 751 485 729 538 q 772 361 772 432 q 711 171 772 254 q 553 61 650 88 m 128 361 q 206 158 128 232 q 422 83 285 83 q 569 120 503 83 q 675 221 636 157 q 714 361 714 285 q 678 508 714 444 q 575 606 642 571 q 422 640 508 640 q 270 604 338 640 q 165 505 203 568 q 128 361 128 442 m 424 881 q 449 865 439 878 q 458 836 458 853 q 444 803 458 817 q 411 789 431 789 q 377 803 390 789 q 364 838 364 817 q 376 899 364 858 q 419 1026 388 939 l 467 1026 l 424 881 z "},"ġ":{"ha":843,"x_min":69,"x_max":772,"o":"m 553 61 q 710 -22 654 38 q 765 -165 765 -81 q 722 -295 765 -239 q 601 -383 679 -351 q 422 -414 524 -414 q 248 -379 325 -414 q 128 -283 171 -344 q 86 -143 86 -221 l 144 -143 q 180 -253 144 -204 q 278 -331 215 -303 q 422 -358 342 -358 q 629 -306 551 -358 q 707 -165 707 -253 q 629 -25 707 -78 q 422 28 551 28 q 235 69 315 28 q 113 185 156 110 q 69 361 69 260 q 115 532 69 456 q 242 652 161 608 q 421 696 322 696 q 538 679 479 696 q 635 635 596 663 l 722 740 l 765 707 l 676 601 q 751 485 729 538 q 772 361 772 432 q 711 171 772 254 q 553 61 650 88 m 128 361 q 206 158 128 232 q 422 83 285 83 q 569 120 503 83 q 675 221 636 157 q 714 361 714 285 q 678 508 714 444 q 575 606 642 571 q 422 640 508 640 q 270 604 338 640 q 165 505 203 568 q 128 361 128 442 m 422 849 q 384 863 399 849 q 369 899 369 876 q 385 935 369 921 q 422 950 400 950 q 459 935 444 950 q 474 899 474 921 q 459 863 474 876 q 422 849 444 849 z "},"h":{"ha":836,"x_min":115,"x_max":731,"o":"m 440 696 q 653 617 576 696 q 731 396 731 538 l 731 0 l 672 0 l 672 393 q 611 576 672 513 q 438 640 550 640 q 301 606 361 640 q 207 513 240 572 q 174 382 174 454 l 174 0 l 115 0 l 115 972 l 174 972 l 174 553 q 284 658 214 619 q 440 696 354 696 z "},"ħ":{"ha":836,"x_min":22,"x_max":731,"o":"m 440 696 q 653 617 576 696 q 731 394 731 538 l 731 0 l 672 0 l 672 393 q 610 576 672 511 q 436 640 549 640 q 301 606 361 640 q 207 513 240 572 q 174 382 174 454 l 174 0 l 115 0 l 115 813 l 22 813 l 22 863 l 115 863 l 115 972 l 174 972 l 174 863 l 378 863 l 378 813 l 174 813 l 174 553 q 285 658 215 619 q 440 696 356 696 z "},"ĥ":{"ha":836,"x_min":-57,"x_max":731,"o":"m 440 696 q 653 617 576 696 q 731 396 731 538 l 731 0 l 672 0 l 672 393 q 611 576 672 513 q 438 640 550 640 q 301 606 361 640 q 207 513 240 572 q 174 382 174 454 l 174 0 l 115 0 l 115 972 l 174 972 l 174 553 q 284 658 214 619 q 440 696 354 696 m 344 1090 l 278 1090 l 144 1213 l 10 1090 l -57 1090 l 118 1258 l 169 1258 l 344 1090 z "},"i":{"ha":288,"x_min":92,"x_max":197,"o":"m 144 849 q 106 863 121 849 q 92 900 92 878 q 106 938 92 922 q 144 953 121 953 q 182 938 167 953 q 197 900 197 922 q 182 863 197 878 q 144 849 167 849 m 115 686 l 174 686 l 174 0 l 115 0 l 115 686 z "},"ı":{"ha":288,"x_min":115,"x_max":174,"o":"m 115 686 l 174 686 l 174 0 l 115 0 l 115 686 z "},"í":{"ha":288,"x_min":103,"x_max":256,"o":"m 115 686 l 174 686 l 174 0 l 115 0 l 115 686 m 186 972 l 256 972 l 160 804 l 103 804 l 186 972 z "},"ĭ":{"ha":288,"x_min":-4,"x_max":293,"o":"m 115 686 l 174 686 l 174 0 l 115 0 l 115 686 m 144 811 q 36 853 76 811 q -4 960 -4 894 l 43 960 q 69 886 43 914 q 144 858 96 858 q 218 886 192 858 q 244 960 244 914 l 293 960 q 253 853 293 894 q 144 811 213 811 z "},"î":{"ha":288,"x_min":-31,"x_max":318,"o":"m 115 686 l 174 686 l 174 0 l 115 0 l 115 686 m 318 804 l 254 804 l 143 926 l 33 804 l -31 804 l 118 972 l 169 972 l 318 804 z "},"ï":{"ha":288,"x_min":-12,"x_max":300,"o":"m 115 686 l 174 686 l 174 0 l 115 0 l 115 686 m 39 849 q 2 863 17 849 q -12 900 -12 878 q 2 935 -12 921 q 39 950 17 950 q 75 935 61 950 q 89 900 89 921 q 75 863 89 878 q 39 849 61 849 m 250 849 q 213 863 228 849 q 199 900 199 878 q 213 935 199 921 q 250 950 228 950 q 286 935 272 950 q 300 900 300 921 q 286 863 300 878 q 250 849 272 849 z "},"ì":{"ha":288,"x_min":32,"x_max":185,"o":"m 115 686 l 174 686 l 174 0 l 115 0 l 115 686 m 128 804 l 32 972 l 101 972 l 185 804 l 128 804 z "},"ĳ":{"ha":575,"x_min":92,"x_max":485,"o":"m 144 849 q 106 863 121 849 q 92 900 92 878 q 106 938 92 922 q 144 953 121 953 q 182 938 167 953 q 197 900 197 922 q 182 863 197 878 q 144 849 167 849 m 115 686 l 174 686 l 174 0 l 115 0 l 115 686 m 432 849 q 394 863 408 849 q 379 900 379 878 q 394 938 379 922 q 432 953 408 953 q 469 938 454 953 q 485 900 485 922 q 469 863 485 878 q 432 849 454 849 m 281 -351 q 156 -315 222 -351 l 176 -267 q 281 -296 224 -296 q 374 -256 346 -296 q 403 -119 403 -215 l 403 686 l 461 686 l 461 -119 q 418 -296 461 -240 q 281 -351 375 -351 z "},"ī":{"ha":288,"x_min":-11,"x_max":297,"o":"m 115 686 l 174 686 l 174 0 l 115 0 l 115 686 m -11 892 l 297 892 l 297 843 l -11 843 l -11 892 z "},"į":{"ha":288,"x_min":1,"x_max":257,"o":"m 144 849 q 106 863 121 849 q 92 899 92 876 q 107 935 92 921 q 144 950 122 950 q 181 935 167 950 q 196 899 196 921 q 181 863 196 876 q 144 849 167 849 m 257 -196 q 118 -256 194 -256 q 33 -226 64 -256 q 1 -144 1 -196 q 115 21 1 -49 l 115 686 l 174 686 l 174 0 q 56 -136 56 -54 q 74 -187 56 -169 q 124 -204 92 -204 q 178 -192 150 -204 q 228 -157 206 -179 l 257 -196 z "},"ĩ":{"ha":288,"x_min":-26,"x_max":311,"o":"m 115 686 l 174 686 l 174 0 l 115 0 l 115 686 m 221 853 q 183 860 201 853 q 136 885 165 867 q 92 910 106 904 q 65 915 79 915 q 14 867 28 915 l -26 883 q 64 965 -3 965 q 101 958 83 965 q 154 929 118 951 q 193 908 181 914 q 219 903 206 903 q 271 953 254 903 l 311 938 q 277 874 301 896 q 221 853 253 853 z "},"j":{"ha":288,"x_min":-132,"x_max":197,"o":"m 144 849 q 106 863 121 849 q 92 900 92 878 q 106 938 92 922 q 144 953 121 953 q 182 938 167 953 q 197 900 197 922 q 182 863 197 878 q 144 849 167 849 m -7 -351 q -132 -315 -65 -351 l -111 -267 q -7 -296 -64 -296 q 87 -256 58 -296 q 115 -119 115 -215 l 115 686 l 174 686 l 174 -119 q 131 -296 174 -240 q -7 -351 88 -351 z "},"ȷ":{"ha":288,"x_min":-132,"x_max":174,"o":"m -7 -351 q -132 -315 -65 -351 l -111 -267 q -7 -296 -64 -296 q 87 -256 58 -296 q 115 -119 115 -215 l 115 686 l 174 686 l 174 -119 q 131 -296 174 -240 q -7 -351 88 -351 z "},"ĵ":{"ha":288,"x_min":-132,"x_max":318,"o":"m -7 -351 q -132 -315 -65 -351 l -111 -267 q -7 -296 -64 -296 q 87 -256 58 -296 q 115 -119 115 -215 l 115 686 l 174 686 l 174 -119 q 131 -296 174 -240 q -7 -351 88 -351 m 318 804 l 254 804 l 143 926 l 33 804 l -31 804 l 118 972 l 169 972 l 318 804 z "},"k":{"ha":640,"x_min":115,"x_max":629,"o":"m 629 0 l 546 0 l 174 328 l 174 0 l 115 0 l 115 972 l 174 972 l 174 371 l 508 686 l 588 686 l 231 350 l 629 0 z "},"ķ":{"ha":640,"x_min":115,"x_max":629,"o":"m 629 0 l 546 0 l 174 328 l 174 0 l 115 0 l 115 972 l 174 972 l 174 371 l 508 686 l 588 686 l 231 350 l 629 0 m 332 -110 q 363 -122 350 -110 q 376 -153 376 -133 q 367 -192 376 -167 q 321 -297 358 -217 l 275 -297 l 314 -190 q 286 -153 286 -182 q 300 -122 286 -133 q 332 -110 314 -110 z "},"ĸ":{"ha":640,"x_min":115,"x_max":629,"o":"m 629 0 l 546 0 l 174 326 l 174 0 l 115 0 l 115 686 l 174 686 l 174 372 l 508 686 l 588 686 l 231 351 l 629 0 z "},"l":{"ha":288,"x_min":115,"x_max":174,"o":"m 115 972 l 174 972 l 174 0 l 115 0 l 115 972 z "},"ĺ":{"ha":288,"x_min":94,"x_max":269,"o":"m 115 972 l 174 972 l 174 0 l 115 0 l 115 972 m 200 1258 l 269 1258 l 151 1090 l 94 1090 l 200 1258 z "},"ľ":{"ha":301,"x_min":115,"x_max":353,"o":"m 115 972 l 174 972 l 174 0 l 115 0 l 115 972 m 294 972 l 353 972 l 286 769 l 242 769 l 294 972 z "},"ļ":{"ha":288,"x_min":92,"x_max":193,"o":"m 115 972 l 174 972 l 174 0 l 115 0 l 115 972 m 149 -110 q 180 -122 167 -110 q 193 -153 193 -133 q 184 -192 193 -167 q 138 -297 175 -217 l 92 -297 l 131 -190 q 103 -153 103 -182 q 117 -122 103 -133 q 149 -110 131 -110 z "},"ŀ":{"ha":404,"x_min":115,"x_max":388,"o":"m 115 972 l 174 972 l 174 0 l 115 0 l 115 972 z "},"ł":{"ha":346,"x_min":36,"x_max":310,"o":"m 310 575 l 310 521 l 201 478 l 201 0 l 143 0 l 143 454 l 36 413 l 36 467 l 143 508 l 143 972 l 201 972 l 201 532 l 310 575 z "},"m":{"ha":1286,"x_min":115,"x_max":1181,"o":"m 910 696 q 1108 617 1036 696 q 1181 400 1181 539 l 1181 0 l 1122 0 l 1122 397 q 1067 577 1122 514 q 908 640 1011 640 q 790 607 843 640 q 706 516 736 574 q 676 386 676 458 l 676 0 l 618 0 l 618 397 q 563 577 618 514 q 404 640 508 640 q 286 607 339 640 q 203 516 233 574 q 174 386 174 458 l 174 0 l 115 0 l 115 686 l 171 686 l 171 557 q 270 659 208 622 q 406 696 332 696 q 563 652 499 696 q 654 526 628 608 q 758 651 690 606 q 910 696 825 696 z "},"n":{"ha":836,"x_min":115,"x_max":731,"o":"m 440 696 q 653 617 576 696 q 731 396 731 538 l 731 0 l 672 0 l 672 393 q 611 576 672 513 q 438 640 550 640 q 301 606 361 640 q 207 513 240 572 q 174 382 174 454 l 174 0 l 115 0 l 115 686 l 171 686 l 171 551 q 282 657 211 618 q 440 696 353 696 z "},"ń":{"ha":836,"x_min":115,"x_max":731,"o":"m 440 696 q 653 617 576 696 q 731 396 731 538 l 731 0 l 672 0 l 672 393 q 611 576 672 513 q 438 640 550 640 q 301 606 361 640 q 207 513 240 572 q 174 382 174 454 l 174 0 l 115 0 l 115 686 l 171 686 l 171 551 q 282 657 211 618 q 440 696 353 696 m 486 972 l 556 972 l 438 804 l 381 804 l 486 972 z "},"ŉ":{"ha":968,"x_min":118,"x_max":861,"o":"m 571 696 q 784 617 707 696 q 861 396 861 538 l 861 0 l 803 0 l 803 393 q 742 576 803 513 q 568 640 681 640 q 431 606 492 640 q 338 513 371 572 q 304 382 304 454 l 304 0 l 246 0 l 246 686 l 301 686 l 301 551 q 413 657 342 618 q 571 696 483 696 m 174 982 q 206 969 193 982 q 219 935 219 956 q 208 875 219 915 q 164 749 196 835 l 118 749 l 160 893 q 135 908 144 896 q 126 936 126 919 q 140 969 126 956 q 174 982 153 982 z "},"ň":{"ha":836,"x_min":115,"x_max":731,"o":"m 440 696 q 653 617 576 696 q 731 396 731 538 l 731 0 l 672 0 l 672 393 q 611 576 672 513 q 438 640 550 640 q 301 606 361 640 q 207 513 240 572 q 174 382 174 454 l 174 0 l 115 0 l 115 686 l 171 686 l 171 551 q 282 657 211 618 q 440 696 353 696 m 564 972 l 631 972 l 456 804 l 404 804 l 229 972 l 296 972 l 431 849 l 564 972 z "},"ņ":{"ha":836,"x_min":115,"x_max":731,"o":"m 440 696 q 653 617 576 696 q 731 396 731 538 l 731 0 l 672 0 l 672 393 q 611 576 672 513 q 438 640 550 640 q 301 606 361 640 q 207 513 240 572 q 174 382 174 454 l 174 0 l 115 0 l 115 686 l 171 686 l 171 551 q 282 657 211 618 q 440 696 353 696 m 428 -110 q 459 -122 446 -110 q 472 -153 472 -133 q 463 -192 472 -167 q 417 -297 454 -217 l 371 -297 l 410 -190 q 382 -153 382 -182 q 396 -122 382 -133 q 428 -110 410 -110 z "},"ŋ":{"ha":836,"x_min":115,"x_max":731,"o":"m 440 696 q 654 617 578 696 q 731 396 731 538 l 731 -21 q 690 -201 731 -143 q 563 -260 649 -260 q 504 -253 531 -260 q 442 -228 478 -246 l 461 -176 q 561 -204 511 -204 q 647 -162 622 -204 q 672 -21 672 -121 l 672 393 q 612 576 672 513 q 438 640 551 640 q 302 607 363 640 q 208 515 242 574 q 174 382 174 456 l 174 0 l 115 0 l 115 686 l 171 686 l 171 547 q 281 656 210 617 q 440 696 353 696 z "},"ñ":{"ha":836,"x_min":115,"x_max":731,"o":"m 440 696 q 653 617 576 696 q 731 396 731 538 l 731 0 l 672 0 l 672 393 q 611 576 672 513 q 438 640 550 640 q 301 606 361 640 q 207 513 240 572 q 174 382 174 454 l 174 0 l 115 0 l 115 686 l 171 686 l 171 551 q 282 657 211 618 q 440 696 353 696 m 513 853 q 474 860 493 853 q 422 885 454 867 q 374 910 388 904 q 344 915 360 915 q 293 867 310 915 l 254 883 q 288 944 265 924 q 344 965 311 965 q 382 958 364 965 q 440 929 400 951 q 483 908 469 914 q 511 903 497 903 q 563 953 546 903 l 603 938 q 569 874 593 896 q 513 853 546 853 z "},"o":{"ha":840,"x_min":69,"x_max":771,"o":"m 419 -12 q 240 33 319 -12 q 115 160 160 79 q 69 343 69 242 q 115 526 69 444 q 240 653 160 607 q 419 699 319 699 q 601 653 521 699 q 726 526 681 607 q 771 343 771 444 q 726 160 771 242 q 601 33 681 79 q 419 -12 521 -12 m 419 43 q 569 82 503 43 q 674 190 636 121 q 713 343 713 258 q 674 497 713 428 q 569 604 636 565 q 419 643 503 643 q 269 604 336 643 q 165 497 203 565 q 128 343 128 428 q 165 190 128 258 q 269 82 203 121 q 419 43 336 43 z "},"ó":{"ha":840,"x_min":69,"x_max":771,"o":"m 419 -12 q 240 33 319 -12 q 115 160 160 79 q 69 343 69 242 q 115 526 69 444 q 240 653 160 607 q 419 699 319 699 q 601 653 521 699 q 726 526 681 607 q 771 343 771 444 q 726 160 771 242 q 601 33 681 79 q 419 -12 521 -12 m 419 43 q 569 82 503 43 q 674 190 636 121 q 713 343 713 258 q 674 497 713 428 q 569 604 636 565 q 419 643 503 643 q 269 604 336 643 q 165 497 203 565 q 128 343 128 428 q 165 190 128 258 q 269 82 203 121 q 419 43 336 43 m 476 972 l 546 972 l 428 804 l 371 804 l 476 972 z "},"ŏ":{"ha":840,"x_min":69,"x_max":771,"o":"m 419 -12 q 240 33 319 -12 q 115 160 160 79 q 69 343 69 242 q 115 526 69 444 q 240 653 160 607 q 419 699 319 699 q 601 653 521 699 q 726 526 681 607 q 771 343 771 444 q 726 160 771 242 q 601 33 681 79 q 419 -12 521 -12 m 419 43 q 569 82 503 43 q 674 190 636 121 q 713 343 713 258 q 674 497 713 428 q 569 604 636 565 q 419 643 503 643 q 269 604 336 643 q 165 497 203 565 q 128 343 128 428 q 165 190 128 258 q 269 82 203 121 q 419 43 336 43 m 421 824 q 300 865 347 824 q 253 972 253 907 l 301 972 q 335 899 301 928 q 421 871 368 871 q 506 899 474 871 q 539 972 539 928 l 589 972 q 542 866 589 908 q 421 824 494 824 z "},"ô":{"ha":840,"x_min":69,"x_max":771,"o":"m 419 -12 q 240 33 319 -12 q 115 160 160 79 q 69 343 69 242 q 115 526 69 444 q 240 653 160 607 q 419 699 319 699 q 601 653 521 699 q 726 526 681 607 q 771 343 771 444 q 726 160 771 242 q 601 33 681 79 q 419 -12 521 -12 m 419 43 q 569 82 503 43 q 674 190 636 121 q 713 343 713 258 q 674 497 713 428 q 569 604 636 565 q 419 643 503 643 q 269 604 336 643 q 165 497 203 565 q 128 343 128 428 q 165 190 128 258 q 269 82 203 121 q 419 43 336 43 m 619 804 l 553 804 l 419 926 l 285 804 l 218 804 l 393 972 l 444 972 l 619 804 z "},"ö":{"ha":840,"x_min":69,"x_max":771,"o":"m 419 -12 q 240 33 319 -12 q 115 160 160 79 q 69 343 69 242 q 115 526 69 444 q 240 653 160 607 q 419 699 319 699 q 601 653 521 699 q 726 526 681 607 q 771 343 771 444 q 726 160 771 242 q 601 33 681 79 q 419 -12 521 -12 m 419 43 q 569 82 503 43 q 674 190 636 121 q 713 343 713 258 q 674 497 713 428 q 569 604 636 565 q 419 643 503 643 q 269 604 336 643 q 165 497 203 565 q 128 343 128 428 q 165 190 128 258 q 269 82 203 121 q 419 43 336 43 m 290 849 q 253 863 268 849 q 239 900 239 878 q 253 936 239 922 q 290 950 268 950 q 327 936 313 950 q 342 900 342 922 q 327 863 342 878 q 290 849 313 849 m 551 849 q 515 863 529 849 q 500 900 500 878 q 515 936 500 922 q 551 950 529 950 q 588 936 574 950 q 601 900 601 922 q 588 863 601 878 q 551 849 574 849 z "},"ò":{"ha":840,"x_min":69,"x_max":771,"o":"m 419 -12 q 240 33 319 -12 q 115 160 160 79 q 69 343 69 242 q 115 526 69 444 q 240 653 160 607 q 419 699 319 699 q 601 653 521 699 q 726 526 681 607 q 771 343 771 444 q 726 160 771 242 q 601 33 681 79 q 419 -12 521 -12 m 419 43 q 569 82 503 43 q 674 190 636 121 q 713 343 713 258 q 674 497 713 428 q 569 604 636 565 q 419 643 503 643 q 269 604 336 643 q 165 497 203 565 q 128 343 128 428 q 165 190 128 258 q 269 82 203 121 q 419 43 336 43 m 413 804 l 294 972 l 364 972 l 469 804 l 413 804 z "},"ő":{"ha":840,"x_min":69,"x_max":771,"o":"m 419 -12 q 240 33 319 -12 q 115 160 160 79 q 69 343 69 242 q 115 526 69 444 q 240 653 160 607 q 419 699 319 699 q 601 653 521 699 q 726 526 681 607 q 771 343 771 444 q 726 160 771 242 q 601 33 681 79 q 419 -12 521 -12 m 419 43 q 569 82 503 43 q 674 190 636 121 q 713 343 713 258 q 674 497 713 428 q 569 604 636 565 q 419 643 503 643 q 269 604 336 643 q 165 497 203 565 q 128 343 128 428 q 165 190 128 258 q 269 82 203 121 q 419 43 336 43 m 386 972 l 456 972 l 349 804 l 293 804 l 386 972 m 568 972 l 636 972 l 528 804 l 472 804 l 568 972 z "},"ō":{"ha":840,"x_min":69,"x_max":771,"o":"m 419 -12 q 240 33 319 -12 q 115 160 160 79 q 69 343 69 242 q 115 526 69 444 q 240 653 160 607 q 419 699 319 699 q 601 653 521 699 q 726 526 681 607 q 771 343 771 444 q 726 160 771 242 q 601 33 681 79 q 419 -12 521 -12 m 419 43 q 569 82 503 43 q 674 190 636 121 q 713 343 713 258 q 674 497 713 428 q 569 604 636 565 q 419 643 503 643 q 269 604 336 643 q 165 497 203 565 q 128 343 128 428 q 165 190 128 258 q 269 82 203 121 q 419 43 336 43 m 240 892 l 600 892 l 600 843 l 240 843 l 240 892 z "},"ø":{"ha":838,"x_min":69,"x_max":768,"o":"m 628 635 q 731 513 693 588 q 768 343 768 438 q 721 156 768 236 q 594 31 674 75 q 418 -12 514 -12 q 261 22 335 -12 l 206 -71 l 143 -71 l 214 49 q 108 172 146 96 q 69 343 69 247 q 117 531 69 450 q 243 655 164 611 q 418 699 322 699 q 582 661 507 699 l 635 750 l 697 750 l 628 635 m 128 343 q 158 202 128 265 q 243 99 189 139 l 553 613 q 418 643 489 643 q 273 606 339 643 q 167 500 207 568 q 128 343 128 432 m 418 43 q 564 81 497 43 q 670 186 631 118 q 710 343 710 254 q 680 482 710 419 q 599 585 650 544 l 289 71 q 418 43 349 43 z "},"ǿ":{"ha":838,"x_min":69,"x_max":768,"o":"m 628 635 q 731 513 693 588 q 768 343 768 438 q 721 156 768 236 q 594 31 674 75 q 418 -12 514 -12 q 261 22 335 -12 l 206 -71 l 143 -71 l 214 49 q 108 172 146 96 q 69 343 69 247 q 117 531 69 450 q 243 655 164 611 q 418 699 322 699 q 582 661 507 699 l 635 750 l 697 750 l 628 635 m 128 343 q 158 202 128 265 q 243 99 189 139 l 553 613 q 418 643 489 643 q 273 606 339 643 q 167 500 207 568 q 128 343 128 432 m 418 43 q 564 81 497 43 q 670 186 631 118 q 710 343 710 254 q 680 482 710 419 q 599 585 650 544 l 289 71 q 418 43 349 43 m 475 972 l 544 972 l 426 804 l 369 804 l 475 972 z "},"õ":{"ha":840,"x_min":69,"x_max":771,"o":"m 419 -12 q 240 33 319 -12 q 115 160 160 79 q 69 343 69 242 q 115 526 69 444 q 240 653 160 607 q 419 699 319 699 q 601 653 521 699 q 726 526 681 607 q 771 343 771 444 q 726 160 771 242 q 601 33 681 79 q 419 -12 521 -12 m 419 43 q 569 82 503 43 q 674 190 636 121 q 713 343 713 258 q 674 497 713 428 q 569 604 636 565 q 419 643 503 643 q 269 604 336 643 q 165 497 203 565 q 128 343 128 428 q 165 190 128 258 q 269 82 203 121 q 419 43 336 43 m 503 853 q 464 860 483 853 q 413 885 444 867 q 364 910 378 904 q 335 915 350 915 q 283 867 300 915 l 244 883 q 278 944 256 924 q 335 965 301 965 q 372 958 354 965 q 431 929 390 951 q 474 908 460 914 q 501 903 488 903 q 553 953 536 903 l 593 938 q 560 874 583 896 q 503 853 536 853 z "},"œ":{"ha":1456,"x_min":69,"x_max":1397,"o":"m 1054 699 q 1233 656 1156 699 q 1354 538 1311 614 q 1397 361 1397 461 q 1396 321 1397 335 l 768 321 q 855 117 778 190 q 1056 43 932 43 q 1201 73 1131 43 q 1310 153 1271 103 l 1351 119 q 1226 22 1304 57 q 1057 -12 1147 -12 q 859 45 943 -12 q 739 201 775 103 q 614 44 701 101 q 417 -12 526 -12 q 243 31 322 -12 q 117 156 164 75 q 69 343 69 236 q 117 531 69 450 q 243 655 164 611 q 417 699 322 699 q 611 642 524 699 q 738 488 699 586 q 860 641 775 583 q 1054 699 944 699 m 1054 644 q 856 570 935 644 q 768 375 778 496 l 1342 375 q 1305 515 1342 454 q 1203 610 1268 576 q 1054 644 1139 644 m 419 43 q 565 81 499 43 q 672 186 632 118 q 711 343 711 254 q 672 500 711 432 q 565 606 632 568 q 419 643 499 643 q 274 606 340 643 q 167 500 207 568 q 128 343 128 432 q 167 186 128 254 q 274 81 207 118 q 419 43 340 43 z "},"p":{"ha":878,"x_min":115,"x_max":810,"o":"m 465 697 q 644 652 565 697 q 766 526 722 607 q 810 343 810 446 q 766 160 810 240 q 644 34 722 79 q 465 -11 565 -11 q 290 32 367 -11 q 174 150 213 75 l 174 -333 l 115 -333 l 115 686 l 171 686 l 171 533 q 287 653 208 608 q 465 697 365 697 m 463 43 q 612 81 546 43 q 715 186 678 118 q 751 343 751 254 q 715 500 751 432 q 612 606 678 568 q 463 643 546 643 q 313 606 378 643 q 210 500 247 568 q 174 343 174 432 q 210 186 174 254 q 313 81 247 118 q 463 43 378 43 z "},"þ":{"ha":878,"x_min":115,"x_max":810,"o":"m 465 697 q 644 652 565 697 q 766 526 722 607 q 810 343 810 446 q 766 160 810 240 q 644 34 722 79 q 465 -11 565 -11 q 290 33 368 -11 q 174 150 211 76 l 174 -333 l 115 -333 l 115 972 l 174 972 l 174 536 q 290 654 213 611 q 465 697 368 697 m 463 43 q 613 81 547 43 q 715 186 679 118 q 751 343 751 254 q 715 500 751 432 q 613 606 678 568 q 463 643 547 643 q 312 606 378 643 q 210 500 246 568 q 174 343 174 432 q 210 186 174 254 q 312 81 246 118 q 463 43 378 43 z "},"q":{"ha":879,"x_min":69,"x_max":764,"o":"m 764 686 l 764 -333 l 706 -333 l 706 150 q 589 32 667 75 q 413 -11 511 -11 q 235 34 313 -11 q 113 160 157 79 q 69 343 69 240 q 113 526 69 446 q 235 652 157 607 q 413 697 313 697 q 590 653 511 697 q 707 535 668 610 l 708 686 l 764 686 m 417 43 q 566 81 500 43 q 669 186 632 118 q 706 343 706 254 q 669 500 706 432 q 566 606 632 568 q 417 643 500 643 q 267 606 332 643 q 165 500 201 568 q 128 343 128 432 q 165 186 128 254 q 267 81 201 118 q 417 43 332 43 z "},"r":{"ha":554,"x_min":115,"x_max":547,"o":"m 407 693 q 547 656 489 693 l 521 606 q 406 636 469 636 q 288 599 342 636 q 204 496 235 561 q 174 353 174 431 l 174 0 l 115 0 l 115 686 l 171 686 l 171 533 q 269 651 207 608 q 407 693 331 693 z "},"ŕ":{"ha":554,"x_min":115,"x_max":547,"o":"m 407 693 q 547 656 489 693 l 521 606 q 406 636 469 636 q 288 599 342 636 q 204 496 235 561 q 174 353 174 431 l 174 0 l 115 0 l 115 686 l 171 686 l 171 533 q 269 651 207 608 q 407 693 331 693 m 364 972 l 433 972 l 315 804 l 258 804 l 364 972 z "},"ř":{"ha":554,"x_min":107,"x_max":547,"o":"m 407 693 q 547 656 489 693 l 521 606 q 406 636 469 636 q 288 599 342 636 q 204 496 235 561 q 174 353 174 431 l 174 0 l 115 0 l 115 686 l 171 686 l 171 533 q 269 651 207 608 q 407 693 331 693 m 442 972 l 508 972 l 333 804 l 282 804 l 107 972 l 174 972 l 308 849 l 442 972 z "},"ŗ":{"ha":554,"x_min":92,"x_max":547,"o":"m 407 693 q 547 656 489 693 l 521 606 q 406 636 469 636 q 288 599 342 636 q 204 496 235 561 q 174 353 174 431 l 174 0 l 115 0 l 115 686 l 171 686 l 171 533 q 269 651 207 608 q 407 693 331 693 m 149 -110 q 180 -122 167 -110 q 193 -153 193 -133 q 184 -192 193 -167 q 138 -297 175 -217 l 92 -297 l 131 -190 q 103 -153 103 -182 q 117 -122 103 -133 q 149 -110 131 -110 z "},"s":{"ha":697,"x_min":57,"x_max":636,"o":"m 356 -12 q 182 22 263 -12 q 57 111 101 57 l 93 150 q 206 72 136 101 q 356 43 275 43 q 518 81 457 43 q 579 183 579 119 q 558 247 579 222 q 488 290 538 272 q 346 326 439 308 q 188 369 244 346 q 106 426 131 392 q 81 513 81 460 q 156 649 81 599 q 358 699 231 699 q 503 676 440 699 q 622 608 567 654 l 589 567 q 485 626 539 607 q 360 644 432 644 q 197 610 254 644 q 139 513 139 575 q 158 452 139 475 q 223 413 178 429 q 354 379 268 396 q 522 335 461 360 q 609 274 582 311 q 636 182 636 238 q 559 41 636 94 q 356 -12 482 -12 z "},"ś":{"ha":697,"x_min":57,"x_max":636,"o":"m 356 -12 q 182 22 263 -12 q 57 111 101 57 l 93 150 q 206 72 136 101 q 356 43 275 43 q 518 81 457 43 q 579 183 579 119 q 558 247 579 222 q 488 290 538 272 q 346 326 439 308 q 188 369 244 346 q 106 426 131 392 q 81 513 81 460 q 156 649 81 599 q 358 699 231 699 q 503 676 440 699 q 622 608 567 654 l 589 567 q 485 626 539 607 q 360 644 432 644 q 197 610 254 644 q 139 513 139 575 q 158 452 139 475 q 223 413 178 429 q 354 379 268 396 q 522 335 461 360 q 609 274 582 311 q 636 182 636 238 q 559 41 636 94 q 356 -12 482 -12 m 406 972 l 475 972 l 357 804 l 300 804 l 406 972 z "},"š":{"ha":697,"x_min":57,"x_max":636,"o":"m 356 -12 q 182 22 263 -12 q 57 111 101 57 l 93 150 q 206 72 136 101 q 356 43 275 43 q 518 81 457 43 q 579 183 579 119 q 558 247 579 222 q 488 290 538 272 q 346 326 439 308 q 188 369 244 346 q 106 426 131 392 q 81 513 81 460 q 156 649 81 599 q 358 699 231 699 q 503 676 440 699 q 622 608 567 654 l 589 567 q 485 626 539 607 q 360 644 432 644 q 197 610 254 644 q 139 513 139 575 q 158 452 139 475 q 223 413 178 429 q 354 379 268 396 q 522 335 461 360 q 609 274 582 311 q 636 182 636 238 q 559 41 636 94 q 356 -12 482 -12 m 483 972 l 550 972 l 375 804 l 324 804 l 149 972 l 215 972 l 350 849 l 483 972 z "},"ş":{"ha":697,"x_min":57,"x_max":636,"o":"m 636 182 q 561 43 636 96 q 363 -12 486 -10 l 346 -65 l 358 -65 q 456 -95 419 -65 q 492 -175 492 -125 q 451 -258 492 -225 q 349 -290 411 -290 q 211 -240 268 -290 l 238 -206 q 347 -243 288 -243 q 415 -224 388 -243 q 442 -174 442 -204 q 416 -124 442 -142 q 344 -107 390 -107 q 307 -111 324 -107 l 289 -97 l 314 -11 q 165 29 233 -4 q 57 111 97 63 l 93 150 q 206 72 136 101 q 356 43 275 43 q 518 81 457 43 q 579 183 579 119 q 558 247 579 222 q 488 290 538 272 q 346 326 439 308 q 188 369 244 346 q 106 426 131 392 q 81 513 81 460 q 156 649 81 599 q 358 699 231 699 q 503 676 440 699 q 622 608 567 654 l 589 567 q 485 626 539 607 q 360 644 432 644 q 197 610 254 644 q 139 513 139 575 q 158 452 139 475 q 223 413 178 429 q 354 379 268 396 q 522 335 461 360 q 609 274 582 311 q 636 182 636 238 z "},"ŝ":{"ha":697,"x_min":57,"x_max":636,"o":"m 356 -12 q 182 22 263 -12 q 57 111 101 57 l 93 150 q 206 72 136 101 q 356 43 275 43 q 518 81 457 43 q 579 183 579 119 q 558 247 579 222 q 488 290 538 272 q 346 326 439 308 q 188 369 244 346 q 106 426 131 392 q 81 513 81 460 q 156 649 81 599 q 358 699 231 699 q 503 676 440 699 q 622 608 567 654 l 589 567 q 485 626 539 607 q 360 644 432 644 q 197 610 254 644 q 139 513 139 575 q 158 452 139 475 q 223 413 178 429 q 354 379 268 396 q 522 335 461 360 q 609 274 582 311 q 636 182 636 238 q 559 41 636 94 q 356 -12 482 -12 m 549 804 l 482 804 l 349 926 l 214 804 l 147 804 l 322 972 l 374 972 l 549 804 z "},"ș":{"ha":697,"x_min":57,"x_max":636,"o":"m 356 -12 q 182 22 263 -12 q 57 111 101 57 l 93 150 q 206 72 136 101 q 356 43 275 43 q 518 81 457 43 q 579 183 579 119 q 558 247 579 222 q 488 290 538 272 q 346 326 439 308 q 188 369 244 346 q 106 426 131 392 q 81 513 81 460 q 156 649 81 599 q 358 699 231 699 q 503 676 440 699 q 622 608 567 654 l 589 567 q 485 626 539 607 q 360 644 432 644 q 197 610 254 644 q 139 513 139 575 q 158 452 139 475 q 223 413 178 429 q 354 379 268 396 q 522 335 461 360 q 609 274 582 311 q 636 182 636 238 q 559 41 636 94 q 356 -12 482 -12 m 354 -110 q 385 -122 372 -110 q 399 -153 399 -133 q 390 -192 399 -167 q 343 -297 381 -217 l 297 -297 l 336 -190 q 308 -153 308 -182 q 322 -122 308 -133 q 354 -110 336 -110 z "},"ß":{"ha":836,"x_min":115,"x_max":768,"o":"m 540 532 q 708 440 649 510 q 768 264 768 371 q 687 59 768 135 q 468 -17 606 -17 q 272 24 365 -17 l 272 83 q 458 39 364 39 q 642 98 575 39 q 710 263 710 157 q 631 440 710 379 q 396 500 551 500 l 274 500 l 274 553 l 390 553 q 568 602 504 553 q 632 740 632 651 q 573 883 632 833 q 400 932 514 932 q 230 875 286 932 q 174 700 174 818 l 174 0 l 115 0 l 115 701 q 188 914 115 840 q 400 988 261 988 q 615 923 539 988 q 690 740 690 858 q 650 609 690 665 q 540 532 610 553 z "},"ſ":{"ha":389,"x_min":47,"x_max":522,"o":"m 385 989 q 522 942 463 989 l 492 900 q 386 935 447 935 q 281 894 317 935 q 246 761 246 854 l 246 0 l 188 0 l 188 632 l 47 632 l 47 686 l 188 686 l 188 761 q 385 989 188 989 z "},"t":{"ha":551,"x_min":50,"x_max":525,"o":"m 525 25 q 385 -12 450 -12 q 239 42 281 -12 q 197 206 197 96 l 197 632 l 50 632 l 50 686 l 197 686 l 197 889 l 256 894 l 256 686 l 493 686 l 493 632 l 256 632 l 256 206 q 282 82 256 124 q 385 40 308 40 q 442 50 408 40 q 503 74 475 60 l 525 25 z "},"ŧ":{"ha":551,"x_min":50,"x_max":525,"o":"m 525 25 q 385 -12 450 -12 q 239 42 281 -12 q 197 206 197 96 l 197 350 l 85 350 l 85 401 l 197 401 l 197 632 l 50 632 l 50 686 l 197 686 l 197 889 l 256 894 l 256 686 l 493 686 l 493 632 l 256 632 l 256 401 l 429 401 l 429 350 l 256 350 l 256 206 q 282 82 256 124 q 385 40 308 40 q 442 50 408 40 q 503 74 475 60 l 525 25 z "},"ť":{"ha":557,"x_min":50,"x_max":603,"o":"m 543 904 l 603 904 l 533 692 l 486 692 l 543 904 m 385 40 q 440 49 407 40 q 503 74 472 58 l 525 25 q 385 -12 447 -12 q 242 39 286 -12 q 197 206 197 90 l 197 632 l 50 632 l 50 686 l 197 686 l 197 889 l 256 894 l 256 686 l 428 686 l 428 632 l 256 632 l 256 206 q 285 78 256 117 q 385 40 315 40 z "},"ţ":{"ha":551,"x_min":50,"x_max":525,"o":"m 363 -65 q 460 -95 424 -65 q 496 -175 496 -125 q 456 -258 496 -225 q 353 -290 415 -290 q 215 -240 272 -290 l 242 -206 q 351 -243 292 -243 q 419 -224 392 -243 q 446 -174 446 -204 q 420 -124 446 -142 q 349 -107 394 -107 q 311 -111 328 -107 l 293 -97 l 319 -6 q 225 63 253 10 q 197 206 197 115 l 197 632 l 50 632 l 50 686 l 197 686 l 197 889 l 256 894 l 256 686 l 493 686 l 493 632 l 256 632 l 256 206 q 282 82 256 124 q 385 40 308 40 q 442 50 408 40 q 503 74 475 60 l 525 25 q 385 -12 450 -12 l 367 -12 l 350 -65 l 363 -65 z "},"ț":{"ha":551,"x_min":50,"x_max":525,"o":"m 525 25 q 385 -12 450 -12 q 239 42 281 -12 q 197 206 197 96 l 197 632 l 50 632 l 50 686 l 197 686 l 197 889 l 256 894 l 256 686 l 493 686 l 493 632 l 256 632 l 256 206 q 282 82 256 124 q 385 40 308 40 q 442 50 408 40 q 503 74 475 60 l 525 25 m 358 -110 q 390 -122 376 -110 q 403 -153 403 -133 q 394 -192 403 -167 q 347 -297 385 -217 l 301 -297 l 340 -190 q 313 -153 313 -182 q 326 -122 313 -133 q 358 -110 340 -110 z "},"u":{"ha":828,"x_min":106,"x_max":713,"o":"m 713 686 l 713 0 l 657 0 l 657 138 q 547 30 617 69 q 392 -10 478 -10 q 182 69 258 -10 q 106 290 106 149 l 106 686 l 164 686 l 164 293 q 224 110 164 174 q 396 46 285 46 q 530 80 471 46 q 622 173 589 114 q 654 304 654 232 l 654 686 l 713 686 z "},"ú":{"ha":828,"x_min":106,"x_max":713,"o":"m 713 686 l 713 0 l 657 0 l 657 138 q 547 30 617 69 q 392 -10 478 -10 q 182 69 258 -10 q 106 290 106 149 l 106 686 l 164 686 l 164 293 q 224 110 164 174 q 396 46 285 46 q 530 80 471 46 q 622 173 589 114 q 654 304 654 232 l 654 686 l 713 686 m 465 972 l 535 972 l 417 804 l 360 804 l 465 972 z "},"ŭ":{"ha":828,"x_min":106,"x_max":713,"o":"m 713 686 l 713 0 l 657 0 l 657 138 q 547 30 617 69 q 392 -10 478 -10 q 182 69 258 -10 q 106 290 106 149 l 106 686 l 164 686 l 164 293 q 224 110 164 174 q 396 46 285 46 q 530 80 471 46 q 622 173 589 114 q 654 304 654 232 l 654 686 l 713 686 m 410 824 q 289 865 336 824 q 242 972 242 907 l 290 972 q 324 899 290 928 q 410 871 357 871 q 495 899 463 871 q 528 972 528 928 l 578 972 q 531 866 578 908 q 410 824 483 824 z "},"û":{"ha":828,"x_min":106,"x_max":713,"o":"m 713 686 l 713 0 l 657 0 l 657 138 q 547 30 617 69 q 392 -10 478 -10 q 182 69 258 -10 q 106 290 106 149 l 106 686 l 164 686 l 164 293 q 224 110 164 174 q 396 46 285 46 q 530 80 471 46 q 622 173 589 114 q 654 304 654 232 l 654 686 l 713 686 m 608 804 l 542 804 l 408 926 l 274 804 l 207 804 l 382 972 l 433 972 l 608 804 z "},"ü":{"ha":828,"x_min":106,"x_max":713,"o":"m 713 686 l 713 0 l 657 0 l 657 138 q 547 30 617 69 q 392 -10 478 -10 q 182 69 258 -10 q 106 290 106 149 l 106 686 l 164 686 l 164 293 q 224 110 164 174 q 396 46 285 46 q 530 80 471 46 q 622 173 589 114 q 654 304 654 232 l 654 686 l 713 686 m 279 849 q 242 863 257 849 q 228 900 228 878 q 242 936 228 922 q 279 950 257 950 q 316 936 301 950 q 331 900 331 922 q 316 863 331 878 q 279 849 301 849 m 540 849 q 503 863 518 849 q 489 900 489 878 q 503 936 489 922 q 540 950 518 950 q 576 936 563 950 q 590 900 590 922 q 576 863 590 878 q 540 849 563 849 z "},"ù":{"ha":828,"x_min":106,"x_max":713,"o":"m 713 686 l 713 0 l 657 0 l 657 138 q 547 30 617 69 q 392 -10 478 -10 q 182 69 258 -10 q 106 290 106 149 l 106 686 l 164 686 l 164 293 q 224 110 164 174 q 396 46 285 46 q 530 80 471 46 q 622 173 589 114 q 654 304 654 232 l 654 686 l 713 686 m 401 804 l 283 972 l 353 972 l 458 804 l 401 804 z "},"ű":{"ha":828,"x_min":106,"x_max":713,"o":"m 713 686 l 713 0 l 657 0 l 657 138 q 547 30 617 69 q 392 -10 478 -10 q 182 69 258 -10 q 106 290 106 149 l 106 686 l 164 686 l 164 293 q 224 110 164 174 q 396 46 285 46 q 530 80 471 46 q 622 173 589 114 q 654 304 654 232 l 654 686 l 713 686 m 375 972 l 444 972 l 338 804 l 282 804 l 375 972 m 557 972 l 625 972 l 517 804 l 461 804 l 557 972 z "},"ū":{"ha":828,"x_min":106,"x_max":713,"o":"m 713 686 l 713 0 l 657 0 l 657 138 q 547 30 617 69 q 392 -10 478 -10 q 182 69 258 -10 q 106 290 106 149 l 106 686 l 164 686 l 164 293 q 224 110 164 174 q 396 46 285 46 q 530 80 471 46 q 622 173 589 114 q 654 304 654 232 l 654 686 l 713 686 m 229 892 l 589 892 l 589 843 l 229 843 l 229 892 z "},"ų":{"ha":828,"x_min":106,"x_max":810,"o":"m 810 -196 q 653 -256 742 -256 q 556 -224 592 -256 q 519 -139 519 -193 q 657 25 519 -40 l 657 138 q 547 30 617 69 q 392 -10 478 -10 q 182 69 258 -10 q 106 290 106 149 l 106 686 l 164 686 l 164 293 q 224 110 164 174 q 396 46 285 46 q 530 80 471 46 q 622 173 589 114 q 654 304 654 232 l 654 686 l 713 686 l 713 0 q 607 -60 640 -28 q 574 -133 574 -93 q 596 -185 574 -167 q 660 -204 618 -204 q 779 -157 725 -204 l 810 -196 z "},"ů":{"ha":828,"x_min":106,"x_max":713,"o":"m 713 686 l 713 0 l 657 0 l 657 138 q 547 30 617 69 q 392 -10 478 -10 q 182 69 258 -10 q 106 290 106 149 l 106 686 l 164 686 l 164 293 q 224 110 164 174 q 396 46 285 46 q 530 80 471 46 q 622 173 589 114 q 654 304 654 232 l 654 686 l 713 686 m 410 749 q 308 786 347 749 q 268 883 268 824 q 308 981 268 943 q 410 1018 347 1018 q 512 981 472 1018 q 551 883 551 943 q 512 786 551 824 q 410 749 472 749 m 410 794 q 477 819 451 794 q 503 883 503 843 q 477 948 503 924 q 410 972 451 972 q 342 948 368 972 q 317 883 317 924 q 342 819 317 843 q 410 794 368 794 z "},"ũ":{"ha":828,"x_min":106,"x_max":713,"o":"m 713 686 l 713 0 l 657 0 l 657 138 q 547 30 617 69 q 392 -10 478 -10 q 182 69 258 -10 q 106 290 106 149 l 106 686 l 164 686 l 164 293 q 224 110 164 174 q 396 46 285 46 q 530 80 471 46 q 622 173 589 114 q 654 304 654 232 l 654 686 l 713 686 m 493 853 q 454 860 474 853 q 403 885 435 867 q 354 910 368 904 q 325 915 340 915 q 274 867 290 915 l 235 883 q 269 944 246 924 q 325 965 292 965 q 363 958 344 965 q 421 929 381 951 q 464 908 450 914 q 492 903 478 903 q 543 953 526 903 l 583 938 q 550 874 574 896 q 493 853 526 853 z "},"v":{"ha":749,"x_min":54,"x_max":694,"o":"m 631 686 l 694 686 l 406 0 l 342 0 l 54 686 l 118 686 l 243 385 l 374 68 l 506 385 l 631 686 z "},"w":{"ha":1133,"x_min":56,"x_max":1076,"o":"m 1014 686 l 1076 686 l 839 0 l 776 0 l 708 196 l 567 594 l 425 196 l 357 0 l 294 0 l 56 686 l 118 686 l 215 401 l 326 78 l 542 686 l 593 686 l 807 75 l 918 401 l 1014 686 z "},"ẃ":{"ha":1133,"x_min":56,"x_max":1076,"o":"m 1014 686 l 1076 686 l 839 0 l 776 0 l 708 196 l 567 594 l 425 196 l 357 0 l 294 0 l 56 686 l 118 686 l 215 401 l 326 78 l 542 686 l 593 686 l 807 75 l 918 401 l 1014 686 m 624 972 l 693 972 l 575 804 l 518 804 l 624 972 z "},"ŵ":{"ha":1133,"x_min":56,"x_max":1076,"o":"m 1014 686 l 1076 686 l 839 0 l 776 0 l 708 196 l 567 594 l 425 196 l 357 0 l 294 0 l 56 686 l 118 686 l 215 401 l 326 78 l 542 686 l 593 686 l 807 75 l 918 401 l 1014 686 m 767 804 l 700 804 l 567 926 l 432 804 l 365 804 l 540 972 l 592 972 l 767 804 z "},"ẅ":{"ha":1133,"x_min":56,"x_max":1076,"o":"m 1014 686 l 1076 686 l 839 0 l 776 0 l 708 196 l 567 594 l 425 196 l 357 0 l 294 0 l 56 686 l 118 686 l 215 401 l 326 78 l 542 686 l 593 686 l 807 75 l 918 401 l 1014 686 m 438 849 q 401 863 415 849 q 386 900 386 878 q 401 936 386 922 q 438 950 415 950 q 474 936 460 950 q 489 900 489 922 q 474 863 489 878 q 438 849 460 849 m 699 849 q 662 863 676 849 q 647 900 647 878 q 662 936 647 922 q 699 950 676 950 q 735 936 721 950 q 749 900 749 922 q 735 863 749 878 q 699 849 721 849 z "},"ẁ":{"ha":1133,"x_min":56,"x_max":1076,"o":"m 1014 686 l 1076 686 l 839 0 l 776 0 l 708 196 l 567 594 l 425 196 l 357 0 l 294 0 l 56 686 l 118 686 l 215 401 l 326 78 l 542 686 l 593 686 l 807 75 l 918 401 l 1014 686 m 560 804 l 442 972 l 511 972 l 617 804 l 560 804 z "},"x":{"ha":656,"x_min":25,"x_max":632,"o":"m 363 358 l 632 0 l 560 0 l 328 311 l 176 108 l 94 0 l 25 0 l 292 358 l 46 686 l 118 686 l 326 406 l 438 550 l 539 686 l 611 686 l 363 358 z "},"y":{"ha":757,"x_min":54,"x_max":703,"o":"m 639 686 l 703 686 l 258 -333 l 194 -333 l 342 4 l 54 686 l 118 686 l 283 289 l 374 74 l 639 686 z "},"ý":{"ha":757,"x_min":54,"x_max":703,"o":"m 639 686 l 703 686 l 258 -333 l 194 -333 l 342 4 l 54 686 l 118 686 l 283 289 l 374 74 l 639 686 m 435 972 l 504 972 l 386 804 l 329 804 l 435 972 z "},"ŷ":{"ha":757,"x_min":54,"x_max":703,"o":"m 639 686 l 703 686 l 258 -333 l 194 -333 l 342 4 l 54 686 l 118 686 l 283 289 l 374 74 l 639 686 m 578 804 l 511 804 l 378 926 l 243 804 l 176 804 l 351 972 l 403 972 l 578 804 z "},"ÿ":{"ha":757,"x_min":54,"x_max":703,"o":"m 639 686 l 703 686 l 258 -333 l 194 -333 l 342 4 l 54 686 l 118 686 l 283 289 l 374 74 l 639 686 m 249 849 q 212 863 226 849 q 197 900 197 878 q 212 936 197 922 q 249 950 226 950 q 285 936 271 950 q 300 900 300 922 q 285 863 300 878 q 249 849 271 849 m 510 849 q 473 863 488 849 q 458 900 458 878 q 473 936 458 922 q 510 950 488 950 q 546 936 532 950 q 560 900 560 922 q 546 863 560 878 q 510 849 532 849 z "},"ỳ":{"ha":757,"x_min":54,"x_max":703,"o":"m 639 686 l 703 686 l 258 -333 l 194 -333 l 342 4 l 54 686 l 118 686 l 283 289 l 374 74 l 639 686 m 371 804 l 253 972 l 322 972 l 428 804 l 371 804 z "},"z":{"ha":656,"x_min":42,"x_max":604,"o":"m 604 686 l 604 656 l 131 56 l 603 56 l 603 0 l 42 0 l 42 31 l 513 631 l 63 631 l 63 686 l 604 686 z "},"ź":{"ha":656,"x_min":42,"x_max":604,"o":"m 604 686 l 604 656 l 131 56 l 603 56 l 603 0 l 42 0 l 42 31 l 513 631 l 63 631 l 63 686 l 604 686 m 390 972 l 460 972 l 342 804 l 285 804 l 390 972 z "},"ž":{"ha":656,"x_min":42,"x_max":604,"o":"m 604 686 l 604 656 l 131 56 l 603 56 l 603 0 l 42 0 l 42 31 l 513 631 l 63 631 l 63 686 l 604 686 m 468 972 l 535 972 l 360 804 l 308 804 l 133 972 l 200 972 l 335 849 l 468 972 z "},"ż":{"ha":656,"x_min":42,"x_max":604,"o":"m 604 686 l 604 656 l 131 56 l 603 56 l 603 0 l 42 0 l 42 31 l 513 631 l 63 631 l 63 686 l 604 686 m 335 849 q 297 863 311 849 q 282 899 282 876 q 297 935 282 921 q 335 950 313 950 q 372 935 357 950 q 386 899 386 921 q 372 863 386 876 q 335 849 357 849 z "},"ﬁ":{"ha":788,"x_min":47,"x_max":696,"o":"m 672 0 l 614 0 l 614 632 l 246 632 l 246 0 l 188 0 l 188 632 l 47 632 l 47 686 l 188 686 l 188 761 q 386 989 188 989 q 518 946 464 989 l 489 903 q 386 935 446 935 q 281 894 317 935 q 246 761 246 854 l 246 686 l 672 686 l 672 0 m 643 953 q 681 938 667 953 q 696 900 696 922 q 681 863 696 878 q 643 849 667 849 q 606 863 621 849 q 592 900 592 878 q 606 938 592 922 q 643 953 621 953 z "},"ﬂ":{"ha":792,"x_min":47,"x_max":678,"o":"m 678 972 l 678 0 l 619 0 l 619 876 q 435 935 536 935 q 246 744 246 935 l 246 686 l 476 686 l 476 632 l 246 632 l 246 0 l 188 0 l 188 632 l 47 632 l 47 686 l 188 686 l 188 747 q 252 926 188 863 q 431 989 317 989 q 619 939 532 989 l 619 972 l 678 972 z "},"ª":{"ha":707,"x_min":107,"x_max":583,"o":"m 333 519 q 170 583 233 519 q 107 749 107 647 q 170 914 107 850 q 333 978 233 978 q 441 953 394 978 q 515 883 488 929 l 515 972 l 565 972 l 565 522 l 515 522 l 515 614 q 441 544 488 568 q 333 519 394 519 m 336 929 q 208 880 256 929 q 160 749 160 831 q 208 617 160 667 q 336 568 256 568 q 465 617 417 568 q 513 749 513 667 q 465 880 513 831 q 336 929 417 929 m 125 421 l 583 421 l 583 369 l 125 369 l 125 421 z "},"º":{"ha":671,"x_min":107,"x_max":563,"o":"m 335 519 q 170 583 233 519 q 107 749 107 647 q 170 914 107 850 q 335 978 233 978 q 501 915 439 978 q 563 749 563 851 q 501 583 563 646 q 335 519 439 519 m 335 568 q 462 617 414 568 q 510 749 510 667 q 462 880 510 831 q 335 929 414 929 q 208 880 256 929 q 160 749 160 831 q 208 617 160 667 q 335 568 256 568 m 121 421 l 551 421 l 551 369 l 121 369 l 121 421 z "},"А":{"ha":1022,"x_min":39,"x_max":983,"o":"m 917 0 l 807 244 l 215 244 l 106 0 l 39 0 l 475 972 l 547 972 l 983 0 l 917 0 m 511 907 l 240 304 l 782 304 l 511 907 z "},"Б":{"ha":968,"x_min":140,"x_max":888,"o":"m 572 571 q 804 496 721 571 q 888 286 888 421 q 804 76 888 151 q 572 0 721 0 l 140 0 l 140 972 l 814 972 l 814 913 l 201 913 l 201 571 l 572 571 m 575 60 q 760 119 694 60 q 826 286 826 178 q 760 453 826 393 q 575 513 694 513 l 201 513 l 201 60 l 575 60 z "},"В":{"ha":965,"x_min":140,"x_max":888,"o":"m 704 497 q 839 407 790 469 q 888 260 888 344 q 801 69 888 139 q 564 0 715 0 l 140 0 l 140 972 l 564 972 q 774 903 694 972 q 853 721 853 835 q 813 582 853 643 q 704 497 772 521 m 793 718 q 731 861 793 808 q 564 914 669 914 l 201 914 l 201 525 l 564 525 q 733 576 672 525 q 793 718 793 628 m 567 58 q 758 113 689 58 q 826 263 826 167 q 756 412 826 357 q 567 467 686 467 l 201 467 l 201 58 l 567 58 z "},"Г":{"ha":775,"x_min":140,"x_max":726,"o":"m 726 972 l 726 913 l 201 913 l 201 0 l 140 0 l 140 972 l 726 972 z "},"Ѓ":{"ha":775,"x_min":140,"x_max":726,"o":"m 726 972 l 726 913 l 201 913 l 201 0 l 140 0 l 140 972 l 726 972 m 508 1246 l 578 1246 l 458 1083 l 401 1083 l 508 1246 z "},"Ґ":{"ha":768,"x_min":140,"x_max":719,"o":"m 661 1189 l 719 1189 l 719 914 l 201 914 l 201 0 l 140 0 l 140 972 l 661 972 l 661 1189 z "},"Д":{"ha":1106,"x_min":25,"x_max":1057,"o":"m 1057 60 l 1057 -221 l 997 -221 l 997 0 l 85 0 l 85 -221 l 25 -221 l 25 60 l 110 60 q 219 200 186 125 q 260 408 251 275 l 294 972 l 915 972 l 915 60 l 1057 60 m 319 403 q 285 202 313 276 q 193 58 257 128 l 856 58 l 856 913 l 350 913 l 319 403 z "},"Е":{"ha":907,"x_min":140,"x_max":825,"o":"m 201 58 l 825 58 l 825 0 l 140 0 l 140 972 l 807 972 l 807 914 l 201 914 l 201 521 l 778 521 l 778 463 l 201 463 l 201 58 z "},"Ѐ":{"ha":907,"x_min":140,"x_max":825,"o":"m 201 58 l 825 58 l 825 0 l 140 0 l 140 972 l 807 972 l 807 914 l 201 914 l 201 521 l 778 521 l 778 463 l 201 463 l 201 58 m 465 1083 l 344 1246 l 414 1246 l 521 1083 l 465 1083 z "},"Ё":{"ha":907,"x_min":140,"x_max":825,"o":"m 201 58 l 825 58 l 825 0 l 140 0 l 140 972 l 807 972 l 807 914 l 201 914 l 201 521 l 778 521 l 778 463 l 201 463 l 201 58 m 354 1129 q 317 1144 332 1129 q 303 1182 303 1160 q 317 1219 303 1204 q 354 1235 332 1235 q 392 1220 376 1235 q 407 1182 407 1206 q 392 1144 407 1160 q 354 1129 376 1129 m 619 1129 q 582 1144 597 1129 q 567 1182 567 1160 q 582 1219 567 1204 q 619 1235 597 1235 q 657 1220 642 1235 q 672 1182 672 1206 q 657 1144 672 1160 q 619 1129 642 1129 z "},"Ж":{"ha":1225,"x_min":0,"x_max":1225,"o":"m 1225 0 l 1142 0 l 643 485 l 643 0 l 583 0 l 583 485 l 82 0 l 0 0 l 521 506 l 40 972 l 124 972 l 583 526 l 583 972 l 643 972 l 643 526 l 1101 972 l 1183 972 l 704 506 l 1225 0 z "},"З":{"ha":864,"x_min":58,"x_max":785,"o":"m 599 500 q 736 410 688 474 q 785 256 785 346 q 688 56 785 128 q 422 -17 592 -17 q 226 17 315 -17 q 58 124 136 51 l 96 168 q 421 43 231 43 q 645 99 565 43 q 725 258 725 156 q 654 413 725 356 q 460 469 583 469 l 256 469 l 256 528 l 458 528 q 629 580 567 528 q 692 725 692 632 q 618 874 692 818 q 421 931 544 931 q 256 901 328 931 q 119 807 185 872 l 79 849 q 237 956 154 922 q 428 989 319 989 q 597 956 524 989 q 711 865 671 924 q 751 728 751 806 q 710 585 751 646 q 599 500 668 524 z "},"И":{"ha":1046,"x_min":140,"x_max":906,"o":"m 840 972 l 906 972 l 906 0 l 846 0 l 846 882 l 204 0 l 140 0 l 140 972 l 201 972 l 201 96 l 840 972 z "},"Й":{"ha":1046,"x_min":140,"x_max":906,"o":"m 840 972 l 906 972 l 906 0 l 846 0 l 846 882 l 204 0 l 140 0 l 140 972 l 201 972 l 201 96 l 840 972 m 529 1071 q 333 1233 369 1071 l 381 1247 q 429 1152 393 1183 q 529 1121 465 1121 q 629 1152 593 1121 q 678 1247 665 1183 l 725 1233 q 529 1071 689 1071 z "},"Ѝ":{"ha":1046,"x_min":140,"x_max":906,"o":"m 840 972 l 906 972 l 906 0 l 846 0 l 846 882 l 204 0 l 140 0 l 140 972 l 201 972 l 201 96 l 840 972 m 507 1083 l 386 1246 l 456 1246 l 563 1083 l 507 1083 z "},"К":{"ha":811,"x_min":140,"x_max":811,"o":"m 811 0 l 725 0 l 201 486 l 201 0 l 140 0 l 140 972 l 201 972 l 201 525 l 685 972 l 769 972 l 267 507 l 811 0 z "},"Ќ":{"ha":811,"x_min":140,"x_max":811,"o":"m 811 0 l 725 0 l 201 486 l 201 0 l 140 0 l 140 972 l 201 972 l 201 525 l 685 972 l 769 972 l 267 507 l 811 0 m 479 1246 l 549 1246 l 429 1083 l 372 1083 l 479 1246 z "},"Л":{"ha":1074,"x_min":44,"x_max":933,"o":"m 933 972 l 933 0 l 872 0 l 872 913 l 346 913 l 318 435 q 283 224 310 306 q 206 88 257 142 q 67 -6 154 35 l 44 50 q 162 130 118 83 q 229 252 206 176 q 260 447 253 328 l 290 972 l 933 972 z "},"М":{"ha":1258,"x_min":140,"x_max":1118,"o":"m 1051 972 l 1118 972 l 1118 0 l 1058 0 l 1058 879 l 638 297 l 622 297 l 201 878 l 201 0 l 140 0 l 140 972 l 207 972 l 629 388 l 1051 972 z "},"Н":{"ha":1046,"x_min":140,"x_max":906,"o":"m 844 972 l 906 972 l 906 0 l 844 0 l 844 469 l 201 469 l 201 0 l 140 0 l 140 972 l 201 972 l 201 528 l 844 528 l 844 972 z "},"О":{"ha":1133,"x_min":76,"x_max":1057,"o":"m 567 -17 q 313 47 425 -17 q 139 226 201 111 q 76 486 76 340 q 139 747 76 632 q 313 925 201 861 q 567 989 425 989 q 820 925 708 989 q 994 747 932 861 q 1057 486 1057 632 q 994 226 1057 340 q 820 47 932 111 q 567 -17 708 -17 m 567 42 q 788 98 690 42 q 941 256 886 154 q 996 486 996 357 q 941 717 996 615 q 788 874 886 818 q 567 931 690 931 q 345 874 443 931 q 192 717 247 818 q 138 486 138 615 q 192 256 138 357 q 345 98 247 154 q 567 42 443 42 z "},"П":{"ha":1046,"x_min":140,"x_max":906,"o":"m 140 972 l 906 972 l 906 0 l 844 0 l 844 913 l 201 913 l 201 0 l 140 0 l 140 972 z "},"Р":{"ha":928,"x_min":140,"x_max":876,"o":"m 553 972 q 727 932 654 972 q 838 819 800 892 q 876 654 876 747 q 838 491 876 563 q 726 379 800 419 q 553 339 653 339 l 201 339 l 201 0 l 140 0 l 140 972 l 553 972 m 551 397 q 747 468 678 397 q 817 656 817 539 q 747 843 817 772 q 551 914 678 914 l 201 914 l 201 397 l 551 397 z "},"С":{"ha":994,"x_min":76,"x_max":925,"o":"m 575 -17 q 317 47 431 -17 q 140 226 203 111 q 76 486 76 340 q 140 747 76 632 q 316 925 203 861 q 574 989 429 989 q 763 951 674 989 q 919 844 851 914 l 878 804 q 740 898 817 865 q 575 931 663 931 q 347 874 447 931 q 192 717 247 818 q 138 486 138 617 q 192 255 138 356 q 347 98 247 154 q 575 42 447 42 q 742 74 663 42 q 885 168 822 107 l 925 128 q 767 20 857 57 q 575 -17 676 -17 z "},"Т":{"ha":818,"x_min":21,"x_max":797,"o":"m 797 972 l 797 913 l 439 913 l 439 0 l 379 0 l 379 913 l 21 913 l 21 972 l 797 972 z "},"У":{"ha":926,"x_min":46,"x_max":906,"o":"m 906 972 l 504 174 q 403 31 453 72 q 279 -10 353 -10 q 171 14 221 -10 l 193 68 q 279 49 235 49 q 367 78 331 49 q 442 182 403 108 l 472 243 l 46 972 l 118 972 l 504 306 l 838 972 l 906 972 z "},"Ў":{"ha":926,"x_min":46,"x_max":906,"o":"m 906 972 l 504 174 q 403 31 453 72 q 279 -10 353 -10 q 171 14 221 -10 l 193 68 q 279 49 235 49 q 367 78 331 49 q 442 182 403 108 l 472 243 l 46 972 l 118 972 l 504 306 l 838 972 l 906 972 m 499 1071 q 303 1233 339 1071 l 350 1247 q 399 1152 363 1183 q 499 1121 435 1121 q 599 1152 563 1121 q 647 1247 635 1183 l 694 1233 q 499 1071 658 1071 z "},"Ф":{"ha":1160,"x_min":76,"x_max":1083,"o":"m 613 892 q 876 837 771 892 q 1033 690 982 782 q 1083 486 1083 599 q 1033 281 1083 374 q 876 134 982 189 q 611 79 769 79 l 610 79 l 610 -46 l 550 -46 l 550 79 l 544 79 q 282 135 388 79 q 126 282 176 190 q 76 486 76 374 q 127 690 76 599 q 284 837 178 782 q 549 892 390 892 l 550 892 l 550 1018 l 610 1018 l 610 892 l 613 892 m 136 486 q 179 313 136 392 q 314 185 222 233 q 546 138 406 138 l 550 138 l 550 835 l 549 835 q 315 787 407 835 q 179 660 222 739 q 136 486 136 581 m 613 138 q 845 185 753 138 q 981 312 938 233 q 1024 486 1024 390 q 981 660 1024 582 q 845 787 938 739 q 613 835 753 835 l 610 835 l 610 138 l 613 138 z "},"Х":{"ha":832,"x_min":17,"x_max":815,"o":"m 454 500 l 815 0 l 740 0 l 415 453 l 90 0 l 17 0 l 375 499 l 44 972 l 118 972 l 250 782 l 417 546 l 582 782 l 714 972 l 788 972 l 454 500 z "},"Ч":{"ha":965,"x_min":103,"x_max":824,"o":"m 824 972 l 824 0 l 764 0 l 764 475 q 633 356 715 397 q 447 314 551 314 q 193 410 283 314 q 103 685 103 507 l 103 972 l 164 972 l 164 688 q 238 453 164 533 q 453 372 311 372 q 615 409 544 372 q 725 513 686 446 q 764 668 764 581 l 764 972 l 824 972 z "},"Ц":{"ha":1090,"x_min":140,"x_max":1042,"o":"m 906 60 l 1042 60 l 1042 -221 l 981 -221 l 981 0 l 140 0 l 140 972 l 201 972 l 201 60 l 844 60 l 844 972 l 906 972 l 906 60 z "},"Ш":{"ha":1561,"x_min":140,"x_max":1421,"o":"m 1360 972 l 1421 972 l 1421 0 l 140 0 l 140 972 l 201 972 l 201 60 l 750 60 l 750 972 l 811 972 l 811 60 l 1360 60 l 1360 972 z "},"Щ":{"ha":1604,"x_min":140,"x_max":1556,"o":"m 1421 60 l 1556 60 l 1556 -221 l 1496 -221 l 1496 0 l 140 0 l 140 972 l 201 972 l 201 60 l 750 60 l 750 972 l 811 972 l 811 60 l 1360 60 l 1360 972 l 1421 972 l 1421 60 z "},"Џ":{"ha":1046,"x_min":140,"x_max":906,"o":"m 906 972 l 906 0 l 553 0 l 553 -221 l 492 -221 l 492 0 l 140 0 l 140 972 l 201 972 l 201 60 l 844 60 l 844 972 l 906 972 z "},"Ь":{"ha":965,"x_min":140,"x_max":878,"o":"m 539 615 q 789 538 700 615 q 878 318 878 460 q 789 81 878 161 q 539 0 700 0 l 140 0 l 140 972 l 201 972 l 201 615 l 539 615 m 542 60 q 746 124 674 60 q 818 318 818 188 q 745 496 818 435 q 542 557 672 557 l 201 557 l 201 60 l 542 60 z "},"Ъ":{"ha":1118,"x_min":19,"x_max":1031,"o":"m 692 615 q 942 538 853 615 q 1031 318 1031 460 q 942 81 1031 161 q 692 0 853 0 l 293 0 l 293 914 l 19 914 l 19 972 l 354 972 l 354 615 l 692 615 m 694 60 q 899 124 826 60 q 971 318 971 188 q 898 496 971 435 q 694 557 825 557 l 354 557 l 354 60 l 694 60 z "},"Ы":{"ha":1246,"x_min":140,"x_max":1104,"o":"m 539 615 q 789 538 700 615 q 878 318 878 460 q 789 81 878 161 q 539 0 700 0 l 140 0 l 140 972 l 201 972 l 201 615 l 539 615 m 542 60 q 746 124 674 60 q 818 318 818 188 q 745 496 818 435 q 542 557 672 557 l 201 557 l 201 60 l 542 60 m 1043 972 l 1104 972 l 1104 0 l 1043 0 l 1043 972 z "},"Љ":{"ha":1651,"x_min":44,"x_max":1564,"o":"m 1225 615 q 1475 538 1386 615 q 1564 318 1564 461 q 1475 81 1564 161 q 1225 0 1386 0 l 838 0 l 838 913 l 346 913 l 319 435 q 284 224 311 306 q 206 88 257 142 q 67 -6 154 35 l 44 50 q 162 130 118 83 q 229 252 206 176 q 260 447 253 328 l 290 972 l 897 972 l 897 615 l 1225 615 m 1228 60 q 1432 124 1360 60 q 1504 318 1504 188 q 1431 496 1504 435 q 1228 557 1358 557 l 897 557 l 897 60 l 1228 60 z "},"Њ":{"ha":1582,"x_min":140,"x_max":1496,"o":"m 1158 586 q 1407 516 1318 586 q 1496 294 1496 446 q 1406 74 1496 149 q 1158 0 1315 0 l 799 0 l 799 522 l 201 522 l 201 0 l 140 0 l 140 972 l 201 972 l 201 582 l 799 582 l 799 972 l 860 972 l 860 586 l 1158 586 m 1160 60 q 1360 119 1286 60 q 1435 294 1435 179 q 1363 474 1435 421 q 1160 528 1292 528 l 860 528 l 860 60 l 1160 60 z "},"Ѕ":{"ha":910,"x_min":69,"x_max":842,"o":"m 463 -15 q 236 34 343 -15 q 69 165 129 83 l 111 207 q 257 89 158 135 q 463 43 356 43 q 695 98 610 43 q 781 247 781 153 q 751 346 781 307 q 651 413 721 385 q 450 465 581 440 q 240 526 317 492 q 128 611 163 561 q 93 736 93 661 q 138 869 93 811 q 266 958 183 926 q 457 989 349 989 q 651 953 563 989 q 801 850 740 918 l 763 807 q 630 899 710 867 q 456 932 550 932 q 235 878 318 932 q 153 736 153 825 q 182 640 153 678 q 278 574 211 601 q 463 524 344 547 q 690 460 608 494 q 806 375 771 425 q 842 249 842 325 q 740 56 842 126 q 463 -15 638 -15 z "},"Є":{"ha":994,"x_min":76,"x_max":925,"o":"m 925 128 q 764 19 854 56 q 575 -17 674 -17 q 317 47 431 -17 q 140 226 203 111 q 76 486 76 340 q 140 747 76 632 q 316 925 203 861 q 574 989 429 989 q 765 951 675 989 q 924 843 856 914 l 882 803 q 742 898 821 865 q 575 931 663 931 q 358 879 454 931 q 204 735 261 828 q 139 524 147 643 l 672 524 l 672 464 l 138 464 q 199 244 142 340 q 353 95 256 149 q 575 42 451 42 q 741 74 661 42 q 885 168 821 106 l 925 128 z "},"Э":{"ha":994,"x_min":69,"x_max":918,"o":"m 421 989 q 678 925 565 989 q 855 747 792 861 q 918 486 918 632 q 855 226 918 340 q 678 47 792 111 q 421 -17 565 -17 q 231 20 322 -17 q 69 128 140 57 l 111 168 q 253 74 174 107 q 419 42 333 42 q 642 95 544 42 q 797 244 740 149 q 858 464 854 340 l 324 464 l 324 524 l 857 524 q 792 735 849 643 q 638 879 735 828 q 419 931 542 931 q 253 898 332 931 q 114 803 175 865 l 71 843 q 229 951 139 914 q 421 989 319 989 z "},"І":{"ha":342,"x_min":140,"x_max":201,"o":"m 140 972 l 201 972 l 201 0 l 140 0 l 140 972 z "},"Ї":{"ha":342,"x_min":-12,"x_max":357,"o":"m 140 972 l 201 972 l 201 0 l 140 0 l 140 972 m 39 1129 q 2 1144 17 1129 q -12 1182 -12 1160 q 2 1219 -12 1204 q 39 1235 17 1235 q 76 1220 61 1235 q 92 1182 92 1206 q 76 1144 92 1160 q 39 1129 61 1129 m 304 1129 q 267 1144 282 1129 q 251 1182 251 1160 q 267 1219 251 1204 q 304 1235 282 1235 q 342 1220 326 1235 q 357 1182 357 1206 q 342 1144 357 1160 q 304 1129 326 1129 z "},"Ј":{"ha":921,"x_min":43,"x_max":792,"o":"m 792 972 l 792 361 q 744 165 792 250 q 612 33 697 79 q 417 -14 526 -14 q 223 34 308 -14 q 90 167 138 82 q 43 363 43 253 l 101 363 q 142 197 101 269 q 253 85 182 125 q 417 44 325 44 q 581 84 510 44 q 691 196 651 124 q 731 363 731 268 l 731 913 l 349 913 l 349 972 l 792 972 z "},"Ћ":{"ha":1118,"x_min":21,"x_max":1013,"o":"m 707 644 q 933 565 853 644 q 1013 344 1013 486 l 1013 0 l 953 0 l 953 340 q 890 524 953 461 q 703 588 826 588 q 566 553 626 588 q 472 460 506 519 q 439 329 439 401 l 439 0 l 379 0 l 379 914 l 21 914 l 21 972 l 785 972 l 785 914 l 439 914 l 439 506 q 551 608 482 571 q 707 644 621 644 z "},"Ю":{"ha":1508,"x_min":140,"x_max":1432,"o":"m 950 989 q 1198 925 1088 989 q 1370 747 1308 861 q 1432 486 1432 632 q 1370 226 1432 340 q 1198 47 1308 111 q 950 -17 1088 -17 q 706 45 814 -17 q 535 217 599 107 q 468 469 472 328 l 201 469 l 201 0 l 140 0 l 140 972 l 201 972 l 201 528 l 469 528 q 542 767 478 663 q 713 931 607 872 q 950 989 818 989 m 950 42 q 1167 99 1071 42 q 1317 256 1263 156 q 1371 486 1371 357 q 1317 716 1371 615 q 1167 874 1263 817 q 950 931 1071 931 q 733 874 829 931 q 583 716 638 817 q 529 486 529 615 q 583 256 529 357 q 733 99 638 156 q 950 42 829 42 z "},"Я":{"ha":982,"x_min":74,"x_max":840,"o":"m 840 972 l 840 0 l 779 0 l 779 374 l 486 374 l 154 0 l 74 0 l 407 374 q 248 415 317 376 q 142 519 179 453 q 106 672 106 586 q 144 829 106 761 q 255 935 183 897 q 421 972 326 972 l 840 972 m 167 672 q 235 497 167 563 q 421 432 304 432 l 779 432 l 779 914 l 421 914 q 235 848 304 914 q 167 672 167 782 z "},"Ђ":{"ha":1106,"x_min":21,"x_max":1033,"o":"m 724 644 q 952 562 871 644 q 1033 329 1033 479 q 951 92 1033 178 q 707 -12 868 6 l 696 44 q 904 131 836 61 q 972 329 972 200 q 907 520 972 454 q 718 586 842 586 q 528 523 604 586 q 440 357 451 460 l 440 0 l 379 0 l 379 914 l 21 914 l 21 972 l 785 972 l 785 914 l 440 914 l 440 506 q 560 608 486 572 q 724 644 633 644 z "},"Ӕ":{"ha":1400,"x_min":-32,"x_max":1318,"o":"m 744 58 l 1318 58 l 1318 0 l 686 0 l 686 301 l 256 301 l 40 0 l -32 0 l 654 972 l 1296 972 l 1296 914 l 744 914 l 744 521 l 1265 521 l 1265 463 l 744 463 l 744 58 m 294 361 l 686 361 l 686 915 l 582 767 l 294 361 z "},"а":{"ha":878,"x_min":69,"x_max":764,"o":"m 764 686 l 764 0 l 708 0 l 707 153 q 590 33 668 76 q 413 -11 511 -11 q 235 34 313 -11 q 113 160 157 79 q 69 343 69 240 q 113 526 69 446 q 235 652 157 607 q 413 697 313 697 q 590 653 511 697 q 707 532 668 608 l 708 686 l 764 686 m 417 43 q 566 81 500 43 q 669 186 632 118 q 706 343 706 254 q 669 500 706 432 q 566 606 632 568 q 417 643 500 643 q 267 606 332 643 q 165 500 201 568 q 128 343 128 432 q 165 186 128 254 q 267 81 201 118 q 417 43 332 43 z "},"б":{"ha":850,"x_min":72,"x_max":781,"o":"m 436 672 q 617 629 539 672 q 738 509 694 586 q 781 331 781 432 q 736 153 781 231 q 611 32 692 75 q 426 -11 531 -11 q 240 33 321 -11 q 116 160 160 78 q 72 350 72 242 l 72 443 q 113 704 72 603 q 244 863 154 806 q 481 939 333 919 q 633 965 585 953 q 725 1001 681 978 l 751 950 q 647 908 699 922 q 490 881 594 893 q 290 824 365 865 q 177 708 215 783 q 129 510 139 633 q 252 631 174 589 q 436 672 331 672 m 428 43 q 581 79 514 43 q 685 181 649 115 q 722 331 722 246 q 685 481 722 415 q 582 582 649 546 q 428 618 515 618 q 272 582 339 618 q 169 481 206 546 q 132 331 132 415 q 169 181 132 246 q 273 79 206 115 q 428 43 340 43 z "},"в":{"ha":751,"x_min":115,"x_max":682,"o":"m 556 350 q 648 288 614 332 q 682 183 682 243 q 623 49 682 97 q 460 0 564 0 l 115 0 l 115 686 l 460 686 q 604 638 550 686 q 658 508 658 590 q 630 408 658 451 q 556 350 601 365 m 600 506 q 558 599 600 565 q 447 633 517 633 l 172 633 l 172 376 l 439 376 q 558 410 515 376 q 600 506 600 443 m 449 53 q 579 88 533 53 q 625 186 625 124 q 575 286 625 249 q 440 324 525 324 l 172 324 l 172 53 l 449 53 z "},"г":{"ha":625,"x_min":115,"x_max":563,"o":"m 115 686 l 563 686 l 563 631 l 174 631 l 174 0 l 115 0 l 115 686 z "},"ѓ":{"ha":625,"x_min":115,"x_max":563,"o":"m 115 686 l 563 686 l 563 631 l 174 631 l 174 0 l 115 0 l 115 686 m 400 972 l 469 972 l 351 804 l 294 804 l 400 972 z "},"ґ":{"ha":625,"x_min":115,"x_max":563,"o":"m 506 850 l 563 850 l 563 631 l 174 631 l 174 0 l 115 0 l 115 686 l 506 686 l 506 850 z "},"д":{"ha":822,"x_min":33,"x_max":786,"o":"m 786 56 l 786 -193 l 729 -193 l 729 0 l 90 0 l 90 -193 l 33 -193 l 33 56 l 107 56 q 163 148 143 93 q 192 307 183 203 l 219 686 l 679 686 l 679 56 l 786 56 m 250 300 q 224 149 243 203 q 176 56 206 94 l 621 56 l 621 631 l 274 631 l 250 300 z "},"е":{"ha":815,"x_min":69,"x_max":758,"o":"m 414 699 q 595 656 517 699 q 716 538 674 614 q 758 361 758 461 q 757 321 758 335 l 128 321 q 215 117 138 192 q 417 42 293 42 q 563 72 493 42 q 669 153 632 103 l 711 118 q 585 22 663 57 q 417 -14 507 -14 q 238 32 317 -14 q 114 159 158 78 q 69 343 69 240 q 113 526 69 446 q 235 653 157 607 q 414 699 314 699 m 414 644 q 215 570 293 644 q 128 375 138 496 l 701 375 q 665 515 701 454 q 563 610 628 576 q 414 644 499 644 z "},"ѐ":{"ha":815,"x_min":69,"x_max":758,"o":"m 414 699 q 595 656 517 699 q 716 538 674 614 q 758 361 758 461 q 757 321 758 335 l 128 321 q 215 117 138 192 q 417 42 293 42 q 563 72 493 42 q 669 153 632 103 l 711 118 q 585 22 663 57 q 417 -14 507 -14 q 238 32 317 -14 q 114 159 158 78 q 69 343 69 240 q 113 526 69 446 q 235 653 157 607 q 414 699 314 699 m 414 644 q 215 570 293 644 q 128 375 138 496 l 701 375 q 665 515 701 454 q 563 610 628 576 q 414 644 499 644 m 407 804 l 289 972 l 358 972 l 464 804 l 407 804 z "},"ё":{"ha":815,"x_min":69,"x_max":758,"o":"m 414 699 q 595 656 517 699 q 716 538 674 614 q 758 361 758 461 q 757 321 758 335 l 128 321 q 215 117 138 192 q 417 42 293 42 q 563 72 493 42 q 669 153 632 103 l 711 118 q 585 22 663 57 q 417 -14 507 -14 q 238 32 317 -14 q 114 159 158 78 q 69 343 69 240 q 113 526 69 446 q 235 653 157 607 q 414 699 314 699 m 414 644 q 215 570 293 644 q 128 375 138 496 l 701 375 q 665 515 701 454 q 563 610 628 576 q 414 644 499 644 m 285 849 q 248 863 263 849 q 233 900 233 878 q 248 936 233 922 q 285 950 263 950 q 322 936 307 950 q 336 900 336 922 q 322 863 336 878 q 285 849 307 849 m 546 849 q 509 863 524 849 q 494 900 494 878 q 509 936 494 922 q 546 950 524 950 q 582 936 568 950 q 596 900 596 922 q 582 863 596 878 q 546 849 568 849 z "},"ж":{"ha":953,"x_min":11,"x_max":942,"o":"m 942 0 l 860 0 l 506 329 l 506 0 l 447 0 l 447 329 l 93 0 l 11 0 l 389 351 l 53 686 l 132 686 l 447 372 l 447 686 l 506 686 l 506 372 l 819 686 l 899 686 l 564 351 l 942 0 z "},"з":{"ha":650,"x_min":42,"x_max":581,"o":"m 456 354 q 547 286 514 332 q 581 181 581 240 q 510 35 581 88 q 315 -17 439 -17 q 160 12 231 -17 q 42 96 90 40 l 78 135 q 315 38 171 38 q 467 76 413 38 q 522 183 522 114 q 472 288 522 249 q 338 328 422 328 l 196 328 l 196 382 l 336 382 q 456 416 414 382 q 499 514 499 450 q 451 615 499 581 q 313 649 404 649 q 96 551 185 649 l 60 589 q 313 703 158 703 q 492 654 429 703 q 556 515 556 606 q 529 416 556 460 q 456 354 503 372 z "},"и":{"ha":822,"x_min":115,"x_max":707,"o":"m 660 686 l 707 686 l 707 0 l 649 0 l 649 586 l 163 0 l 115 0 l 115 686 l 174 686 l 174 292 l 172 101 l 660 686 z "},"й":{"ha":822,"x_min":115,"x_max":707,"o":"m 660 686 l 707 686 l 707 0 l 649 0 l 649 586 l 163 0 l 115 0 l 115 686 l 174 686 l 174 292 l 172 101 l 660 686 m 413 788 q 294 828 338 788 q 233 951 250 869 l 279 964 q 323 869 290 901 q 413 838 356 838 q 501 869 468 838 q 546 964 533 901 l 592 951 q 413 788 557 788 z "},"ѝ":{"ha":822,"x_min":115,"x_max":707,"o":"m 660 686 l 707 686 l 707 0 l 649 0 l 649 586 l 163 0 l 115 0 l 115 686 l 174 686 l 174 292 l 172 101 l 660 686 m 403 804 l 285 972 l 354 972 l 460 804 l 403 804 z "},"к":{"ha":640,"x_min":115,"x_max":629,"o":"m 629 0 l 546 0 l 174 326 l 174 0 l 115 0 l 115 686 l 174 686 l 174 372 l 508 686 l 588 686 l 231 351 l 629 0 z "},"ќ":{"ha":640,"x_min":115,"x_max":629,"o":"m 629 0 l 546 0 l 174 326 l 174 0 l 115 0 l 115 686 l 174 686 l 174 372 l 508 686 l 588 686 l 231 351 l 629 0 m 376 972 l 446 972 l 328 804 l 271 804 l 376 972 z "},"л":{"ha":826,"x_min":65,"x_max":713,"o":"m 713 686 l 713 0 l 654 0 l 654 631 l 290 631 l 269 347 q 215 97 258 178 q 79 -11 172 15 l 65 42 q 169 133 136 64 q 213 351 201 201 l 236 686 l 713 686 z "},"м":{"ha":949,"x_min":115,"x_max":833,"o":"m 765 686 l 833 686 l 833 0 l 776 0 l 776 606 l 490 193 l 458 193 l 172 603 l 172 0 l 115 0 l 115 686 l 182 686 l 475 265 l 765 686 z "},"н":{"ha":822,"x_min":115,"x_max":707,"o":"m 649 686 l 707 686 l 707 0 l 649 0 l 649 328 l 174 328 l 174 0 l 115 0 l 115 686 l 174 686 l 174 383 l 649 383 l 649 686 z "},"о":{"ha":840,"x_min":69,"x_max":771,"o":"m 419 -12 q 240 33 319 -12 q 115 160 160 79 q 69 343 69 242 q 115 526 69 444 q 240 653 160 607 q 419 699 319 699 q 601 653 521 699 q 726 526 681 607 q 771 343 771 444 q 726 160 771 242 q 601 33 681 79 q 419 -12 521 -12 m 419 43 q 569 82 503 43 q 674 190 636 121 q 713 343 713 258 q 674 497 713 428 q 569 604 636 565 q 419 643 503 643 q 269 604 336 643 q 165 497 203 565 q 128 343 128 428 q 165 190 128 258 q 269 82 203 121 q 419 43 336 43 z "},"п":{"ha":822,"x_min":115,"x_max":707,"o":"m 115 686 l 707 686 l 707 0 l 649 0 l 649 631 l 174 631 l 174 0 l 115 0 l 115 686 z "},"р":{"ha":878,"x_min":115,"x_max":810,"o":"m 465 697 q 644 652 565 697 q 766 526 722 607 q 810 343 810 446 q 766 160 810 240 q 644 34 722 79 q 465 -11 565 -11 q 290 32 367 -11 q 174 150 213 75 l 174 -333 l 115 -333 l 115 686 l 171 686 l 171 533 q 287 653 208 608 q 465 697 365 697 m 463 43 q 612 81 546 43 q 715 186 678 118 q 751 343 751 254 q 715 500 751 432 q 612 606 678 568 q 463 643 546 643 q 313 606 378 643 q 210 500 247 568 q 174 343 174 432 q 210 186 174 254 q 313 81 247 118 q 463 43 378 43 z "},"с":{"ha":735,"x_min":69,"x_max":676,"o":"m 425 -12 q 244 33 325 -12 q 116 159 163 78 q 69 343 69 240 q 116 529 69 449 q 243 654 163 610 q 425 699 324 699 q 669 597 568 699 l 631 558 q 537 622 590 601 q 424 643 483 643 q 274 608 342 643 q 167 504 207 572 q 128 343 128 436 q 167 185 128 253 q 275 80 207 117 q 425 43 343 43 q 540 65 485 43 q 638 129 594 86 l 676 88 q 560 13 625 39 q 425 -12 494 -12 z "},"т":{"ha":688,"x_min":63,"x_max":625,"o":"m 625 686 l 625 632 l 374 632 l 374 0 l 315 0 l 315 632 l 63 632 l 63 686 l 625 686 z "},"у":{"ha":757,"x_min":54,"x_max":703,"o":"m 639 686 l 703 686 l 258 -333 l 194 -333 l 342 4 l 54 686 l 118 686 l 283 289 l 374 74 l 639 686 z "},"ў":{"ha":757,"x_min":54,"x_max":703,"o":"m 639 686 l 703 686 l 258 -333 l 194 -333 l 342 4 l 54 686 l 118 686 l 283 289 l 374 74 l 639 686 m 381 788 q 262 828 306 788 q 201 951 218 869 l 247 964 q 291 869 258 901 q 381 838 324 838 q 469 869 436 838 q 514 964 501 901 l 560 951 q 381 788 525 788 z "},"ф":{"ha":981,"x_min":69,"x_max":911,"o":"m 521 690 q 721 649 632 690 q 860 530 810 608 q 911 343 911 451 q 860 156 911 235 q 721 37 810 78 q 521 -4 632 -4 l 519 -4 l 519 -333 l 461 -333 l 461 -4 l 457 -4 q 258 37 346 -4 q 119 156 169 78 q 69 343 69 235 q 120 530 69 451 q 258 649 171 608 q 457 690 346 690 l 461 690 l 461 972 l 519 972 l 519 690 l 521 690 m 128 343 q 170 187 128 253 q 287 86 213 121 q 457 51 361 51 l 461 51 l 461 635 l 457 635 q 288 600 363 635 q 170 499 213 565 q 128 343 128 433 m 521 51 q 691 85 615 51 q 810 185 767 119 q 853 343 853 251 q 810 499 853 433 q 691 600 767 565 q 521 635 615 635 l 518 635 l 518 51 l 521 51 z "},"х":{"ha":656,"x_min":25,"x_max":632,"o":"m 363 358 l 632 0 l 560 0 l 328 311 l 176 108 l 94 0 l 25 0 l 292 358 l 46 686 l 118 686 l 326 406 l 438 550 l 539 686 l 611 686 l 363 358 z "},"ч":{"ha":740,"x_min":78,"x_max":626,"o":"m 626 686 l 626 0 l 568 0 l 568 315 q 472 237 532 265 q 336 208 411 208 q 147 282 217 208 q 78 482 78 356 l 78 686 l 136 686 l 136 485 q 189 322 136 379 q 340 264 242 264 q 506 323 443 264 q 568 478 568 382 l 568 686 l 626 686 z "},"ц":{"ha":850,"x_min":115,"x_max":814,"o":"m 707 56 l 814 56 l 814 -193 l 757 -193 l 757 0 l 115 0 l 115 686 l 174 686 l 174 56 l 649 56 l 649 686 l 707 686 l 707 56 z "},"ш":{"ha":1153,"x_min":115,"x_max":1038,"o":"m 979 686 l 1038 686 l 1038 0 l 115 0 l 115 686 l 174 686 l 174 56 l 547 56 l 547 686 l 606 686 l 606 56 l 979 56 l 979 686 z "},"щ":{"ha":1182,"x_min":115,"x_max":1144,"o":"m 1038 56 l 1144 56 l 1144 -193 l 1088 -193 l 1088 0 l 115 0 l 115 686 l 174 686 l 174 56 l 547 56 l 547 686 l 606 686 l 606 56 l 979 56 l 979 686 l 1038 686 l 1038 56 z "},"џ":{"ha":822,"x_min":115,"x_max":707,"o":"m 707 686 l 707 0 l 439 0 l 439 -193 l 382 -193 l 382 0 l 115 0 l 115 686 l 174 686 l 174 56 l 649 56 l 649 686 l 707 686 z "},"ь":{"ha":706,"x_min":115,"x_max":654,"o":"m 422 446 q 592 388 529 446 q 654 222 654 329 q 590 56 654 113 q 422 0 525 0 l 115 0 l 115 686 l 174 686 l 174 446 l 422 446 m 408 54 q 547 96 497 54 q 596 222 596 138 q 547 349 596 307 q 408 390 497 390 l 172 390 l 172 54 l 408 54 z "},"ъ":{"ha":819,"x_min":32,"x_max":768,"o":"m 536 446 q 706 388 643 446 q 768 222 768 329 q 703 56 768 113 q 536 0 639 0 l 229 0 l 229 631 l 32 631 l 32 686 l 288 686 l 288 446 l 536 446 m 524 54 q 662 96 613 54 q 711 222 711 138 q 662 349 711 307 q 524 390 613 390 l 288 390 l 288 54 l 524 54 z "},"ы":{"ha":993,"x_min":115,"x_max":879,"o":"m 422 446 q 592 388 529 446 q 654 222 654 329 q 590 56 654 113 q 422 0 525 0 l 115 0 l 115 686 l 174 686 l 174 446 l 422 446 m 408 54 q 547 96 497 54 q 596 222 596 138 q 547 349 596 307 q 408 390 497 390 l 172 390 l 172 54 l 408 54 m 821 686 l 879 686 l 879 0 l 821 0 l 821 686 z "},"љ":{"ha":1231,"x_min":65,"x_max":1179,"o":"m 947 446 q 1116 385 1053 446 q 1179 222 1179 324 q 1117 58 1179 117 q 947 0 1056 0 l 640 0 l 640 631 l 290 631 l 269 347 q 215 97 258 178 q 79 -11 171 15 l 65 42 q 169 132 136 64 q 213 351 201 200 l 236 686 l 699 686 l 699 446 l 947 446 m 935 54 q 1074 97 1026 54 q 1122 222 1122 140 q 1074 347 1122 303 q 935 390 1025 390 l 697 390 l 697 54 l 935 54 z "},"њ":{"ha":1196,"x_min":115,"x_max":1144,"o":"m 913 426 q 1082 370 1019 426 q 1144 213 1144 314 q 1080 54 1144 108 q 913 0 1015 0 l 622 0 l 622 367 l 174 367 l 174 0 l 115 0 l 115 686 l 174 686 l 174 422 l 622 422 l 622 686 l 681 686 l 681 426 l 913 426 m 900 54 q 1038 94 988 54 q 1088 213 1088 135 q 1038 331 1088 290 q 900 371 988 371 l 679 371 l 679 54 l 900 54 z "},"ѕ":{"ha":697,"x_min":57,"x_max":636,"o":"m 356 -12 q 182 22 263 -12 q 57 111 101 57 l 93 150 q 206 72 136 101 q 356 43 275 43 q 518 81 457 43 q 579 183 579 119 q 558 247 579 222 q 488 290 538 272 q 346 326 439 308 q 188 369 244 346 q 106 426 131 392 q 81 513 81 460 q 156 649 81 599 q 358 699 231 699 q 503 676 440 699 q 622 608 567 654 l 589 567 q 485 626 539 607 q 360 644 432 644 q 197 610 254 644 q 139 513 139 575 q 158 452 139 475 q 223 413 178 429 q 354 379 268 396 q 522 335 461 360 q 609 274 582 311 q 636 182 636 238 q 559 41 636 94 q 356 -12 482 -12 z "},"є":{"ha":735,"x_min":69,"x_max":676,"o":"m 676 88 q 560 13 625 39 q 425 -12 494 -12 q 244 33 325 -12 q 116 159 163 78 q 69 343 69 240 q 116 529 69 449 q 243 654 163 610 q 425 699 324 699 q 669 597 568 699 l 631 558 q 537 622 590 601 q 424 643 483 643 q 224 574 307 643 q 129 383 142 504 l 493 383 l 493 329 l 128 329 q 172 178 131 243 q 279 78 213 113 q 425 43 346 43 q 540 65 485 43 q 638 129 594 86 l 676 88 z "},"э":{"ha":735,"x_min":58,"x_max":665,"o":"m 310 699 q 492 654 411 699 q 619 529 572 610 q 665 343 665 449 q 619 159 665 240 q 491 33 572 78 q 310 -12 410 -12 q 174 13 239 -12 q 58 88 110 38 l 97 129 q 194 65 139 86 q 310 43 250 43 q 456 78 389 43 q 563 178 522 113 q 607 329 604 243 l 242 329 l 242 383 l 606 383 q 510 574 593 504 q 311 643 428 643 q 198 622 251 643 q 104 558 144 601 l 65 597 q 310 699 167 699 z "},"і":{"ha":288,"x_min":92,"x_max":197,"o":"m 144 849 q 106 863 121 849 q 92 900 92 878 q 106 938 92 922 q 144 953 121 953 q 182 938 167 953 q 197 900 197 922 q 182 863 197 878 q 144 849 167 849 m 115 686 l 174 686 l 174 0 l 115 0 l 115 686 z "},"ї":{"ha":288,"x_min":-12,"x_max":300,"o":"m 115 686 l 174 686 l 174 0 l 115 0 l 115 686 m 39 849 q 2 863 17 849 q -12 900 -12 878 q 2 935 -12 921 q 39 950 17 950 q 75 935 61 950 q 89 900 89 921 q 75 863 89 878 q 39 849 61 849 m 250 849 q 213 863 228 849 q 199 900 199 878 q 213 935 199 921 q 250 950 228 950 q 286 935 272 950 q 300 900 300 921 q 286 863 300 878 q 250 849 272 849 z "},"ј":{"ha":288,"x_min":-132,"x_max":197,"o":"m 144 849 q 106 863 121 849 q 92 900 92 878 q 106 938 92 922 q 144 953 121 953 q 182 938 167 953 q 197 900 197 922 q 182 863 197 878 q 144 849 167 849 m -7 -351 q -132 -315 -65 -351 l -111 -267 q -7 -296 -64 -296 q 87 -256 58 -296 q 115 -119 115 -215 l 115 686 l 174 686 l 174 -119 q 131 -296 174 -240 q -7 -351 88 -351 z "},"ћ":{"ha":836,"x_min":22,"x_max":731,"o":"m 440 696 q 653 617 576 696 q 731 394 731 538 l 731 0 l 672 0 l 672 393 q 610 576 672 511 q 436 640 549 640 q 301 606 361 640 q 207 513 240 572 q 174 382 174 454 l 174 0 l 115 0 l 115 813 l 22 813 l 22 863 l 115 863 l 115 972 l 174 972 l 174 863 l 378 863 l 378 813 l 174 813 l 174 553 q 285 658 215 619 q 440 696 356 696 z "},"ю":{"ha":1119,"x_min":115,"x_max":1051,"o":"m 708 699 q 881 655 803 699 q 1005 531 958 611 q 1051 343 1051 450 q 1005 156 1051 236 q 881 31 958 75 q 708 -12 803 -12 q 537 29 614 -12 q 413 148 460 71 q 364 329 367 225 l 174 329 l 174 0 l 115 0 l 115 686 l 174 686 l 174 383 l 365 383 q 421 551 374 479 q 543 660 468 622 q 708 699 618 699 m 708 43 q 851 81 786 43 q 955 186 917 118 q 993 343 993 254 q 955 500 993 432 q 851 606 917 568 q 708 643 786 643 q 563 606 628 643 q 460 501 497 569 q 422 343 422 433 q 460 185 422 253 q 563 80 497 117 q 708 43 628 43 z "},"я":{"ha":714,"x_min":46,"x_max":599,"o":"m 599 686 l 599 0 l 540 0 l 540 253 l 351 253 l 121 0 l 46 0 l 279 254 q 123 318 179 261 q 67 469 67 375 q 131 628 67 569 q 308 686 196 686 l 599 686 m 125 469 q 172 349 125 392 q 308 307 219 307 l 542 307 l 542 632 l 308 632 q 173 590 221 632 q 125 469 125 547 z "},"ђ":{"ha":836,"x_min":22,"x_max":731,"o":"m 440 696 q 653 617 576 696 q 731 394 731 538 l 731 -21 q 690 -202 731 -144 q 563 -260 650 -260 q 504 -253 531 -260 q 442 -228 478 -246 l 461 -176 q 560 -204 514 -204 q 647 -162 622 -204 q 672 -21 672 -119 l 672 393 q 610 576 672 511 q 436 640 549 640 q 301 606 361 640 q 207 513 240 572 q 174 382 174 454 l 174 0 l 115 0 l 115 807 l 22 807 l 22 857 l 115 857 l 115 972 l 174 972 l 174 857 l 378 857 l 378 807 l 174 807 l 174 556 q 285 658 215 621 q 440 696 356 696 z "},"ӕ":{"ha":1451,"x_min":69,"x_max":1393,"o":"m 1054 699 q 1232 656 1156 699 q 1351 538 1308 614 q 1393 363 1393 461 q 1392 321 1393 335 l 765 321 q 851 118 774 193 q 1053 43 929 43 q 1197 74 1128 43 q 1306 153 1267 104 l 1347 119 q 1222 24 1300 58 q 1054 -11 1144 -11 q 882 31 958 -11 q 761 151 806 74 l 761 0 l 706 0 l 706 153 q 590 33 668 76 q 413 -11 511 -11 q 235 34 313 -11 q 113 160 157 79 q 69 343 69 240 q 113 526 69 446 q 235 652 157 607 q 413 697 313 697 q 588 654 510 697 q 706 536 665 611 l 706 686 l 761 686 l 761 535 q 882 656 806 613 q 1054 699 958 699 m 1050 644 q 854 570 932 644 q 765 375 776 496 l 1338 375 q 1301 515 1338 454 q 1199 610 1264 576 q 1050 644 1135 644 m 415 43 q 565 81 500 43 q 667 186 631 118 q 703 343 703 254 q 667 500 703 432 q 565 606 631 568 q 415 643 500 643 q 265 606 331 643 q 164 500 200 568 q 128 343 128 432 q 164 187 128 256 q 265 81 200 118 q 415 43 331 43 z "},"μ":{"ha":836,"x_min":115,"x_max":722,"o":"m 722 686 l 722 0 l 665 0 l 664 133 q 554 28 625 67 q 403 -10 483 -10 q 271 16 332 -10 q 172 100 210 42 l 172 -333 l 115 -333 l 115 686 l 174 686 l 174 290 q 240 105 174 164 q 406 46 306 46 q 533 77 474 46 q 628 167 592 108 q 664 304 664 226 l 664 686 l 722 686 z "},"π":{"ha":915,"x_min":22,"x_max":876,"o":"m 699 632 l 699 172 q 721 73 699 100 q 800 46 743 46 q 847 51 829 46 l 856 0 q 792 -8 822 -8 q 678 37 715 -8 q 640 172 640 82 l 640 632 l 251 632 l 251 0 l 193 0 l 193 632 l 22 632 l 22 686 l 876 686 l 876 632 l 699 632 z "},"₀":{"ha":525,"x_min":63,"x_max":463,"o":"m 263 -132 q 117 -74 171 -132 q 63 85 63 -17 l 63 164 q 117 323 63 265 q 263 381 171 381 q 408 323 353 381 q 463 164 463 265 l 463 85 q 408 -74 463 -17 q 263 -132 353 -132 m 263 -82 q 370 -38 331 -82 q 410 85 410 6 l 410 164 q 370 286 410 242 q 263 331 331 331 q 153 287 193 331 q 114 164 114 243 l 114 85 q 153 -38 114 6 q 263 -82 193 -82 z "},"₁":{"ha":315,"x_min":43,"x_max":279,"o":"m 190 -72 l 279 -72 l 279 -122 l 43 -122 l 43 -72 l 139 -72 l 139 317 l 60 297 l 60 347 l 186 376 l 190 376 l 190 -72 z "},"₂":{"ha":490,"x_min":60,"x_max":431,"o":"m 111 -71 l 428 -71 l 428 -122 l 60 -122 l 60 -12 q 109 99 60 61 q 247 139 158 138 q 347 163 315 140 q 379 233 379 185 q 345 306 379 281 q 247 331 311 331 q 149 307 181 331 q 117 233 117 283 l 67 233 q 114 342 67 303 q 247 381 161 381 q 382 341 333 381 q 431 233 431 301 q 254 92 431 94 q 111 -11 111 89 l 111 -71 z "},"₃":{"ha":488,"x_min":53,"x_max":428,"o":"m 336 136 q 403 88 378 122 q 428 14 428 54 q 377 -93 428 -54 q 240 -132 326 -132 q 105 -93 154 -132 q 53 15 56 -54 l 106 15 q 142 -56 106 -29 q 240 -82 178 -82 q 340 -56 304 -82 q 376 15 376 -31 q 338 84 376 56 q 244 113 300 113 l 168 113 l 168 160 l 242 160 q 333 184 297 160 q 368 246 368 208 q 332 308 368 283 q 239 332 296 332 q 151 308 183 332 q 115 243 118 285 l 65 243 q 115 344 68 307 q 239 381 161 381 q 369 344 319 381 q 418 247 418 307 q 395 178 418 208 q 336 136 372 147 z "},"₄":{"ha":469,"x_min":33,"x_max":419,"o":"m 419 46 l 419 -3 l 361 -3 l 361 -122 l 310 -122 l 310 -3 l 42 -3 l 33 36 l 294 371 l 361 371 l 361 46 l 419 46 m 101 46 l 310 46 l 310 310 l 101 46 z "},"₅":{"ha":488,"x_min":58,"x_max":438,"o":"m 242 183 q 385 142 333 183 q 438 29 438 101 q 385 -90 438 -47 q 242 -132 333 -132 q 107 -95 156 -132 q 58 10 58 -58 l 110 10 q 144 -59 110 -36 q 243 -82 178 -82 q 349 -53 311 -82 q 386 28 386 -24 q 349 107 386 79 q 242 135 313 135 l 72 135 l 72 371 l 413 371 l 413 321 l 122 321 l 122 183 l 242 183 z "},"₆":{"ha":508,"x_min":75,"x_max":453,"o":"m 265 178 q 400 135 347 178 q 453 24 453 92 q 400 -88 453 -44 q 265 -132 347 -132 q 129 -88 183 -132 q 75 24 75 -44 l 75 219 q 126 337 75 293 q 264 381 176 381 q 390 348 344 381 q 442 253 435 315 l 390 253 q 264 331 382 331 q 161 301 197 331 q 125 219 125 272 l 125 126 q 265 178 185 178 m 264 -83 q 363 -53 324 -83 q 403 24 403 -22 q 363 99 403 69 q 264 129 324 129 q 165 99 204 129 q 125 24 125 68 q 165 -53 125 -22 q 264 -83 204 -83 z "},"₇":{"ha":428,"x_min":40,"x_max":404,"o":"m 399 371 l 404 342 l 144 -122 l 86 -122 l 333 321 l 40 321 l 40 371 l 399 371 z "},"₈":{"ha":522,"x_min":61,"x_max":461,"o":"m 364 132 q 434 87 407 121 q 461 8 461 53 q 406 -92 461 -53 q 261 -132 350 -132 q 117 -92 172 -132 q 61 8 61 -53 q 88 87 61 53 q 158 132 115 121 q 97 178 119 147 q 75 246 75 208 q 127 343 75 306 q 261 381 179 381 q 395 342 343 381 q 447 246 447 304 q 425 178 447 208 q 364 132 403 147 m 126 244 q 164 179 126 204 q 261 154 201 154 q 358 179 321 154 q 396 244 396 204 q 358 308 396 283 q 261 333 321 333 q 164 308 201 333 q 126 244 126 283 m 261 -85 q 369 -58 328 -85 q 410 13 410 -31 q 368 83 410 56 q 261 110 326 110 q 154 83 196 110 q 113 13 113 56 q 154 -58 113 -31 q 261 -85 196 -85 z "},"₉":{"ha":506,"x_min":54,"x_max":432,"o":"m 243 381 q 380 338 328 381 q 432 226 432 294 l 432 26 q 383 -90 432 -47 q 247 -132 335 -132 q 118 -99 165 -132 q 65 -7 71 -67 l 117 -7 q 154 -64 121 -44 q 247 -83 188 -83 q 346 -55 311 -83 q 381 26 381 -26 l 381 124 q 242 74 329 74 q 106 116 158 74 q 54 226 54 158 q 107 338 54 294 q 243 381 160 381 m 243 122 q 342 151 304 122 q 381 226 381 179 q 342 302 381 274 q 243 331 304 331 q 144 302 182 331 q 106 226 106 274 q 144 151 106 179 q 243 122 182 122 z "},"⁰":{"ha":525,"x_min":63,"x_max":463,"o":"m 263 617 q 117 674 171 617 q 63 833 63 732 l 63 913 q 117 1072 63 1014 q 263 1129 171 1129 q 408 1072 353 1129 q 463 913 463 1014 l 463 833 q 408 674 463 732 q 263 617 353 617 m 263 667 q 370 710 331 667 q 410 833 410 754 l 410 913 q 370 1035 410 990 q 263 1079 331 1079 q 153 1035 193 1079 q 114 913 114 992 l 114 833 q 153 710 114 754 q 263 667 193 667 z "},"¹":{"ha":315,"x_min":43,"x_max":279,"o":"m 190 676 l 279 676 l 279 626 l 43 626 l 43 676 l 139 676 l 139 1065 l 60 1046 l 60 1096 l 186 1125 l 190 1125 l 190 676 z "},"²":{"ha":490,"x_min":60,"x_max":431,"o":"m 111 678 l 428 678 l 428 626 l 60 626 l 60 736 q 109 848 60 810 q 247 888 158 886 q 347 911 315 889 q 379 982 379 933 q 345 1054 379 1029 q 247 1079 311 1079 q 149 1056 181 1079 q 117 982 117 1032 l 67 982 q 114 1090 67 1051 q 247 1129 161 1129 q 382 1090 333 1129 q 431 982 431 1050 q 254 840 431 843 q 111 738 111 838 l 111 678 z "},"³":{"ha":488,"x_min":53,"x_max":428,"o":"m 336 885 q 403 837 378 871 q 428 763 428 803 q 377 656 428 694 q 240 617 326 617 q 105 656 154 617 q 53 764 56 694 l 106 764 q 142 693 106 719 q 240 667 178 667 q 340 692 304 667 q 376 764 376 718 q 338 833 376 804 q 244 861 300 861 l 168 861 l 168 908 l 242 908 q 333 933 297 908 q 368 994 368 957 q 332 1056 368 1032 q 239 1081 296 1081 q 151 1057 183 1081 q 115 992 118 1033 l 65 992 q 115 1092 68 1056 q 239 1129 161 1129 q 369 1092 319 1129 q 418 996 418 1056 q 395 926 418 957 q 336 885 372 896 z "},"⁴":{"ha":469,"x_min":33,"x_max":419,"o":"m 419 794 l 419 746 l 361 746 l 361 626 l 310 626 l 310 746 l 42 746 l 33 785 l 294 1119 l 361 1119 l 361 794 l 419 794 m 101 794 l 310 794 l 310 1058 l 101 794 z "},"⁵":{"ha":488,"x_min":58,"x_max":438,"o":"m 242 932 q 385 891 333 932 q 438 778 438 850 q 385 659 438 701 q 242 617 333 617 q 107 653 156 617 q 58 758 58 690 l 110 758 q 144 690 110 713 q 243 667 178 667 q 349 696 311 667 q 386 776 386 725 q 349 856 386 828 q 242 883 313 883 l 72 883 l 72 1119 l 413 1119 l 413 1069 l 122 1069 l 122 932 l 242 932 z "},"⁶":{"ha":508,"x_min":75,"x_max":453,"o":"m 265 926 q 400 883 347 926 q 453 772 453 840 q 400 660 453 704 q 265 617 347 617 q 129 660 183 617 q 75 772 75 704 l 75 968 q 126 1085 75 1042 q 264 1129 176 1129 q 390 1097 344 1129 q 442 1001 435 1064 l 390 1001 q 264 1079 382 1079 q 161 1050 197 1079 q 125 968 125 1021 l 125 875 q 265 926 185 926 m 264 665 q 363 696 324 665 q 403 772 403 726 q 363 848 403 818 q 264 878 324 878 q 165 847 204 878 q 125 772 125 817 q 165 696 125 726 q 264 665 204 665 z "},"⁷":{"ha":428,"x_min":40,"x_max":404,"o":"m 399 1119 l 404 1090 l 144 626 l 86 626 l 333 1069 l 40 1069 l 40 1119 l 399 1119 z "},"⁸":{"ha":522,"x_min":61,"x_max":461,"o":"m 364 881 q 434 835 407 869 q 461 757 461 801 q 406 656 461 696 q 261 617 350 617 q 117 656 172 617 q 61 757 61 696 q 88 835 61 801 q 158 881 115 869 q 97 926 119 896 q 75 994 75 957 q 127 1092 75 1054 q 261 1129 179 1129 q 395 1091 343 1129 q 447 994 447 1053 q 425 926 447 957 q 364 881 403 896 m 126 993 q 164 928 126 953 q 261 903 201 903 q 358 928 321 903 q 396 993 396 953 q 358 1057 396 1032 q 261 1082 321 1082 q 164 1057 201 1082 q 126 993 126 1032 m 261 664 q 369 691 328 664 q 410 761 410 718 q 368 831 410 804 q 261 858 326 858 q 154 831 196 858 q 113 761 113 804 q 154 691 113 718 q 261 664 196 664 z "},"⁹":{"ha":506,"x_min":54,"x_max":432,"o":"m 243 1129 q 380 1086 328 1129 q 432 975 432 1043 l 432 775 q 383 659 432 701 q 247 617 335 617 q 118 649 165 617 q 65 742 71 682 l 117 742 q 154 685 121 704 q 247 665 188 665 q 346 694 311 665 q 381 775 381 722 l 381 872 q 242 822 329 822 q 106 865 158 822 q 54 975 54 907 q 107 1086 54 1043 q 243 1129 160 1129 m 243 871 q 342 899 304 871 q 381 975 381 928 q 342 1051 381 1022 q 243 1079 304 1079 q 144 1051 182 1079 q 106 975 106 1022 q 144 899 106 928 q 243 871 182 871 z "},"⁄":{"ha":200,"x_min":-187,"x_max":386,"o":"m 328 972 l 386 972 l -128 0 l -187 0 l 328 972 z "},"½":{"ha":1047,"x_min":43,"x_max":988,"o":"m 190 529 l 279 529 l 279 479 l 43 479 l 43 529 l 139 529 l 139 918 l 60 899 l 60 949 l 186 978 l 190 978 l 190 529 m 685 972 l 743 972 l 229 0 l 169 0 l 685 972 m 668 51 l 985 51 l 985 0 l 617 0 l 617 110 q 666 222 617 183 q 804 261 715 260 q 904 285 872 263 q 936 356 936 307 q 902 428 936 403 q 804 453 868 453 q 706 429 738 453 q 674 356 674 406 l 624 356 q 671 464 624 425 q 804 503 718 503 q 939 463 890 503 q 988 356 988 424 q 811 214 988 217 q 668 111 668 211 l 668 51 z "},"⅓":{"ha":1044,"x_min":43,"x_max":985,"o":"m 190 529 l 279 529 l 279 479 l 43 479 l 43 529 l 139 529 l 139 918 l 60 899 l 60 949 l 186 978 l 190 978 l 190 529 m 685 972 l 743 972 l 229 0 l 169 0 l 685 972 m 893 258 q 960 210 935 244 q 985 136 985 176 q 934 29 985 68 q 797 -10 883 -10 q 662 29 711 -10 q 610 138 613 68 l 663 138 q 699 67 663 93 q 797 40 735 40 q 897 66 861 40 q 933 138 933 92 q 895 206 933 178 q 801 235 857 235 l 725 235 l 725 282 l 799 282 q 890 306 854 282 q 925 368 925 331 q 889 430 925 406 q 796 454 853 454 q 708 431 740 454 q 672 365 675 407 l 622 365 q 672 466 625 429 q 796 503 718 503 q 926 466 876 503 q 975 369 975 429 q 952 300 975 331 q 893 258 929 269 z "},"⅔":{"ha":1178,"x_min":60,"x_max":1118,"o":"m 111 531 l 428 531 l 428 479 l 60 479 l 60 589 q 109 701 60 663 q 247 740 158 739 q 347 764 315 742 q 379 835 379 786 q 345 907 379 882 q 247 932 311 932 q 149 908 181 932 q 117 835 117 885 l 67 835 q 114 943 67 904 q 247 982 161 982 q 382 942 333 982 q 431 835 431 903 q 254 693 431 696 q 111 590 111 690 l 111 531 m 818 972 l 876 972 l 363 0 l 303 0 l 818 972 m 1026 258 q 1093 210 1068 244 q 1118 136 1118 176 q 1067 29 1118 68 q 931 -10 1017 -10 q 795 29 844 -10 q 743 138 746 68 l 796 138 q 832 67 796 93 q 931 40 868 40 q 1031 66 994 40 q 1067 138 1067 92 q 1028 206 1067 178 q 935 235 990 235 l 858 235 l 858 282 l 932 282 q 1023 306 988 282 q 1058 368 1058 331 q 1022 430 1058 406 q 929 454 986 454 q 841 431 874 454 q 806 365 808 407 l 756 365 q 805 466 758 429 q 929 503 851 503 q 1059 466 1010 503 q 1108 369 1108 429 q 1085 300 1108 331 q 1026 258 1063 269 z "},"¼":{"ha":997,"x_min":43,"x_max":947,"o":"m 190 529 l 279 529 l 279 479 l 43 479 l 43 529 l 139 529 l 139 918 l 60 899 l 60 949 l 186 978 l 190 978 l 190 529 m 685 972 l 743 972 l 229 0 l 169 0 l 685 972 m 947 168 l 947 119 l 889 119 l 889 0 l 838 0 l 838 119 l 569 119 l 561 158 l 822 493 l 889 493 l 889 168 l 947 168 m 629 168 l 838 168 l 838 432 l 629 168 z "},"¾":{"ha":1128,"x_min":53,"x_max":1078,"o":"m 336 738 q 403 690 378 724 q 428 615 428 656 q 377 508 428 547 q 240 469 326 469 q 105 508 154 469 q 53 617 56 547 l 106 617 q 142 546 106 572 q 240 519 178 519 q 340 545 304 519 q 376 617 376 571 q 338 685 376 657 q 244 714 300 714 l 168 714 l 168 761 l 242 761 q 333 785 297 761 q 368 847 368 810 q 332 909 368 885 q 239 933 296 933 q 151 910 183 933 q 115 844 118 886 l 65 844 q 115 945 68 908 q 239 982 161 982 q 369 945 319 982 q 418 849 418 908 q 395 779 418 810 q 336 738 372 749 m 815 972 l 874 972 l 360 0 l 300 0 l 815 972 m 1078 168 l 1078 119 l 1019 119 l 1019 0 l 968 0 l 968 119 l 700 119 l 692 158 l 953 493 l 1019 493 l 1019 168 l 1078 168 m 760 168 l 968 168 l 968 432 l 760 168 z "},"⅕":{"ha":1044,"x_min":43,"x_max":994,"o":"m 190 529 l 279 529 l 279 479 l 43 479 l 43 529 l 139 529 l 139 918 l 60 899 l 60 949 l 186 978 l 190 978 l 190 529 m 685 972 l 743 972 l 229 0 l 169 0 l 685 972 m 799 306 q 942 265 890 306 q 994 151 994 224 q 942 33 994 75 q 799 -10 890 -10 q 664 27 713 -10 q 615 132 615 64 l 667 132 q 701 63 667 86 q 800 40 735 40 q 906 69 868 40 q 943 150 943 99 q 906 229 943 201 q 799 257 869 257 l 629 257 l 629 493 l 969 493 l 969 443 l 679 443 l 679 306 l 799 306 z "},"⅖":{"ha":1178,"x_min":60,"x_max":1128,"o":"m 111 531 l 428 531 l 428 479 l 60 479 l 60 589 q 109 701 60 663 q 247 740 158 739 q 347 764 315 742 q 379 835 379 786 q 345 907 379 882 q 247 932 311 932 q 149 908 181 932 q 117 835 117 885 l 67 835 q 114 943 67 904 q 247 982 161 982 q 382 942 333 982 q 431 835 431 903 q 254 693 431 696 q 111 590 111 690 l 111 531 m 818 972 l 876 972 l 363 0 l 303 0 l 818 972 m 932 306 q 1076 265 1024 306 q 1128 151 1128 224 q 1076 33 1128 75 q 932 -10 1024 -10 q 797 27 846 -10 q 749 132 749 64 l 800 132 q 834 63 800 86 q 933 40 868 40 q 1039 69 1001 40 q 1076 150 1076 99 q 1040 229 1076 201 q 932 257 1003 257 l 763 257 l 763 493 l 1103 493 l 1103 443 l 813 443 l 813 306 l 932 306 z "},"⅗":{"ha":1175,"x_min":53,"x_max":1125,"o":"m 336 738 q 403 690 378 724 q 428 615 428 656 q 377 508 428 547 q 240 469 326 469 q 105 508 154 469 q 53 617 56 547 l 106 617 q 142 546 106 572 q 240 519 178 519 q 340 545 304 519 q 376 617 376 571 q 338 685 376 657 q 244 714 300 714 l 168 714 l 168 761 l 242 761 q 333 785 297 761 q 368 847 368 810 q 332 909 368 885 q 239 933 296 933 q 151 910 183 933 q 115 844 118 886 l 65 844 q 115 945 68 908 q 239 982 161 982 q 369 945 319 982 q 418 849 418 908 q 395 779 418 810 q 336 738 372 749 m 815 972 l 874 972 l 360 0 l 300 0 l 815 972 m 929 306 q 1073 265 1021 306 q 1125 151 1125 224 q 1073 33 1125 75 q 929 -10 1021 -10 q 794 27 843 -10 q 746 132 746 64 l 797 132 q 831 63 797 86 q 931 40 865 40 q 1036 69 999 40 q 1074 150 1074 99 q 1037 229 1074 201 q 929 257 1000 257 l 760 257 l 760 493 l 1100 493 l 1100 443 l 810 443 l 810 306 l 929 306 z "},"⅘":{"ha":1157,"x_min":33,"x_max":1107,"o":"m 419 647 l 419 599 l 361 599 l 361 479 l 310 479 l 310 599 l 42 599 l 33 638 l 294 972 l 361 972 l 361 647 l 419 647 m 101 647 l 310 647 l 310 911 l 101 647 m 797 972 l 856 972 l 342 0 l 282 0 l 797 972 m 911 306 q 1055 265 1003 306 q 1107 151 1107 224 q 1055 33 1107 75 q 911 -10 1003 -10 q 776 27 825 -10 q 728 132 728 64 l 779 132 q 813 63 779 86 q 913 40 847 40 q 1018 69 981 40 q 1056 150 1056 99 q 1019 229 1056 201 q 911 257 982 257 l 742 257 l 742 493 l 1082 493 l 1082 443 l 792 443 l 792 306 l 911 306 z "},"⅙":{"ha":1065,"x_min":43,"x_max":1010,"o":"m 190 529 l 279 529 l 279 479 l 43 479 l 43 529 l 139 529 l 139 918 l 60 899 l 60 949 l 186 978 l 190 978 l 190 529 m 685 972 l 743 972 l 229 0 l 169 0 l 685 972 m 822 300 q 957 257 904 300 q 1010 146 1010 214 q 957 34 1010 78 q 822 -10 904 -10 q 686 34 740 -10 q 632 146 632 78 l 632 342 q 683 459 632 415 q 821 503 733 503 q 947 470 901 503 q 999 375 992 438 l 947 375 q 821 453 939 453 q 718 424 754 453 q 682 342 682 394 l 682 249 q 822 300 742 300 m 821 39 q 920 69 881 39 q 960 146 960 100 q 920 222 960 192 q 821 251 881 251 q 722 221 761 251 q 682 146 682 190 q 722 69 682 100 q 821 39 761 39 z "},"⅚":{"ha":1196,"x_min":58,"x_max":1140,"o":"m 242 785 q 385 744 333 785 q 438 631 438 703 q 385 512 438 554 q 242 469 333 469 q 107 506 156 469 q 58 611 58 543 l 110 611 q 144 542 110 565 q 243 519 178 519 q 349 549 311 519 q 386 629 386 578 q 349 708 386 681 q 242 736 313 736 l 72 736 l 72 972 l 413 972 l 413 922 l 122 922 l 122 785 l 242 785 m 815 972 l 874 972 l 360 0 l 300 0 l 815 972 m 953 300 q 1088 257 1035 300 q 1140 146 1140 214 q 1088 34 1140 78 q 953 -10 1035 -10 q 817 34 871 -10 q 763 146 763 78 l 763 342 q 813 459 763 415 q 951 503 864 503 q 1077 470 1032 503 q 1129 375 1122 438 l 1078 375 q 951 453 1069 453 q 849 424 885 453 q 813 342 813 394 l 813 249 q 953 300 872 300 m 951 39 q 1051 69 1011 39 q 1090 146 1090 100 q 1051 222 1090 192 q 951 251 1011 251 q 852 221 892 251 q 813 146 813 190 q 852 69 813 100 q 951 39 892 39 z "},"⅐":{"ha":985,"x_min":43,"x_max":961,"o":"m 190 529 l 279 529 l 279 479 l 43 479 l 43 529 l 139 529 l 139 918 l 60 899 l 60 949 l 186 978 l 190 978 l 190 529 m 685 972 l 743 972 l 229 0 l 169 0 l 685 972 m 956 493 l 961 464 l 701 0 l 643 0 l 890 443 l 597 443 l 597 493 l 956 493 z "},"⅛":{"ha":1079,"x_min":43,"x_max":1018,"o":"m 190 529 l 279 529 l 279 479 l 43 479 l 43 529 l 139 529 l 139 918 l 60 899 l 60 949 l 186 978 l 190 978 l 190 529 m 685 972 l 743 972 l 229 0 l 169 0 l 685 972 m 921 254 q 991 209 964 243 q 1018 131 1018 175 q 963 30 1018 69 q 818 -10 907 -10 q 674 30 729 -10 q 618 131 618 69 q 645 209 618 175 q 715 254 672 243 q 654 300 676 269 q 632 368 632 331 q 684 465 632 428 q 818 503 736 503 q 952 465 900 503 q 1004 368 1004 426 q 982 300 1004 331 q 921 254 960 269 m 683 367 q 721 301 683 326 q 818 276 758 276 q 915 301 878 276 q 953 367 953 326 q 915 431 953 406 q 818 456 878 456 q 721 431 758 456 q 683 367 683 406 m 818 38 q 926 65 885 38 q 967 135 967 92 q 925 205 967 178 q 818 232 883 232 q 711 205 753 232 q 669 135 669 178 q 711 65 669 92 q 818 38 753 38 z "},"⅜":{"ha":1210,"x_min":53,"x_max":1149,"o":"m 336 738 q 403 690 378 724 q 428 615 428 656 q 377 508 428 547 q 240 469 326 469 q 105 508 154 469 q 53 617 56 547 l 106 617 q 142 546 106 572 q 240 519 178 519 q 340 545 304 519 q 376 617 376 571 q 338 685 376 657 q 244 714 300 714 l 168 714 l 168 761 l 242 761 q 333 785 297 761 q 368 847 368 810 q 332 909 368 885 q 239 933 296 933 q 151 910 183 933 q 115 844 118 886 l 65 844 q 115 945 68 908 q 239 982 161 982 q 369 945 319 982 q 418 849 418 908 q 395 779 418 810 q 336 738 372 749 m 815 972 l 874 972 l 360 0 l 300 0 l 815 972 m 1051 254 q 1122 209 1094 243 q 1149 131 1149 175 q 1093 30 1149 69 q 949 -10 1038 -10 q 804 30 860 -10 q 749 131 749 69 q 776 209 749 175 q 846 254 803 243 q 785 300 807 269 q 763 368 763 331 q 815 465 763 428 q 949 503 867 503 q 1083 465 1031 503 q 1135 368 1135 426 q 1113 300 1135 331 q 1051 254 1090 269 m 814 367 q 851 301 814 326 q 949 276 889 276 q 1046 301 1008 276 q 1083 367 1083 326 q 1046 431 1083 406 q 949 456 1008 456 q 851 431 889 456 q 814 367 814 406 m 949 38 q 1056 65 1015 38 q 1097 135 1097 92 q 1056 205 1097 178 q 949 232 1014 232 q 842 205 883 232 q 800 135 800 178 q 842 65 800 92 q 949 38 883 38 z "},"⅝":{"ha":1210,"x_min":58,"x_max":1149,"o":"m 242 785 q 385 744 333 785 q 438 631 438 703 q 385 512 438 554 q 242 469 333 469 q 107 506 156 469 q 58 611 58 543 l 110 611 q 144 542 110 565 q 243 519 178 519 q 349 549 311 519 q 386 629 386 578 q 349 708 386 681 q 242 736 313 736 l 72 736 l 72 972 l 413 972 l 413 922 l 122 922 l 122 785 l 242 785 m 815 972 l 874 972 l 360 0 l 300 0 l 815 972 m 1051 254 q 1122 209 1094 243 q 1149 131 1149 175 q 1093 30 1149 69 q 949 -10 1038 -10 q 804 30 860 -10 q 749 131 749 69 q 776 209 749 175 q 846 254 803 243 q 785 300 807 269 q 763 368 763 331 q 815 465 763 428 q 949 503 867 503 q 1083 465 1031 503 q 1135 368 1135 426 q 1113 300 1135 331 q 1051 254 1090 269 m 814 367 q 851 301 814 326 q 949 276 889 276 q 1046 301 1008 276 q 1083 367 1083 326 q 1046 431 1083 406 q 949 456 1008 456 q 851 431 889 456 q 814 367 814 406 m 949 38 q 1056 65 1015 38 q 1097 135 1097 92 q 1056 205 1097 178 q 949 232 1014 232 q 842 205 883 232 q 800 135 800 178 q 842 65 800 92 q 949 38 883 38 z "},"⅞":{"ha":1114,"x_min":40,"x_max":1053,"o":"m 399 972 l 404 943 l 144 479 l 86 479 l 333 922 l 40 922 l 40 972 l 399 972 m 719 972 l 778 972 l 264 0 l 204 0 l 719 972 m 956 254 q 1026 209 999 243 q 1053 131 1053 175 q 997 30 1053 69 q 853 -10 942 -10 q 708 30 764 -10 q 653 131 653 69 q 680 209 653 175 q 750 254 707 243 q 689 300 711 269 q 667 368 667 331 q 719 465 667 428 q 853 503 771 503 q 987 465 935 503 q 1039 368 1039 426 q 1017 300 1039 331 q 956 254 994 269 m 718 367 q 756 301 718 326 q 853 276 793 276 q 950 301 913 276 q 988 367 988 326 q 950 431 988 406 q 853 456 913 456 q 756 431 793 456 q 718 367 718 406 m 853 38 q 960 65 919 38 q 1001 135 1001 92 q 960 205 1001 178 q 853 232 918 232 q 746 205 788 232 q 704 135 704 178 q 746 65 704 92 q 853 38 788 38 z "},"⅑":{"ha":1063,"x_min":43,"x_max":989,"o":"m 190 529 l 279 529 l 279 479 l 43 479 l 43 529 l 139 529 l 139 918 l 60 899 l 60 949 l 186 978 l 190 978 l 190 529 m 685 972 l 743 972 l 229 0 l 169 0 l 685 972 m 800 503 q 937 460 885 503 q 989 349 989 417 l 989 149 q 940 33 989 75 q 804 -10 892 -10 q 675 23 722 -10 q 622 115 628 56 l 674 115 q 711 58 678 78 q 804 39 744 39 q 903 67 868 39 q 938 149 938 96 l 938 246 q 799 196 886 196 q 663 238 715 196 q 611 349 611 281 q 664 460 611 417 q 800 503 717 503 m 800 244 q 899 273 861 244 q 938 349 938 301 q 899 424 938 396 q 800 453 861 453 q 701 424 739 453 q 663 349 663 396 q 701 273 663 301 q 800 244 739 244 z "},".":{"ha":294,"x_min":100,"x_max":194,"o":"m 147 -8 q 114 5 128 -8 q 100 38 100 18 q 114 72 100 58 q 147 85 128 85 q 181 72 168 85 q 194 38 194 58 q 181 5 194 18 q 147 -8 168 -8 z "},",":{"ha":294,"x_min":92,"x_max":194,"o":"m 147 85 q 181 72 168 85 q 194 38 194 58 q 183 -24 194 17 q 139 -151 171 -65 l 92 -151 l 135 -6 q 110 10 119 -3 q 100 38 100 22 q 114 72 100 58 q 147 85 128 85 z "},":":{"ha":294,"x_min":100,"x_max":194,"o":"m 147 -8 q 114 5 128 -8 q 100 38 100 18 q 114 72 100 58 q 147 85 128 85 q 181 72 168 85 q 194 38 194 58 q 181 5 194 18 q 147 -8 168 -8 m 147 411 q 114 424 128 411 q 100 457 100 438 q 114 491 100 478 q 147 504 128 504 q 181 491 168 504 q 194 457 194 478 q 181 424 194 438 q 147 411 168 411 z "},";":{"ha":294,"x_min":92,"x_max":194,"o":"m 147 85 q 181 72 168 85 q 194 38 194 58 q 183 -24 194 17 q 139 -151 171 -65 l 92 -151 l 135 -6 q 110 10 119 -3 q 100 38 100 22 q 114 72 100 58 q 147 85 128 85 m 147 411 q 114 424 128 411 q 100 457 100 438 q 114 491 100 478 q 147 504 128 504 q 181 491 168 504 q 194 457 194 478 q 181 424 194 438 q 147 411 168 411 z "},"…":{"ha":711,"x_min":100,"x_max":611,"o":"m 147 -8 q 114 5 128 -8 q 100 38 100 18 q 114 72 100 58 q 147 85 128 85 q 181 72 168 85 q 194 38 194 58 q 181 5 194 18 q 147 -8 168 -8 m 357 -8 q 324 5 338 -8 q 310 38 310 18 q 324 72 310 58 q 357 85 338 85 q 391 72 378 85 q 404 38 404 58 q 391 5 404 18 q 357 -8 378 -8 m 564 -8 q 531 5 544 -8 q 517 38 517 18 q 531 72 517 58 q 564 85 544 85 q 598 72 585 85 q 611 38 611 58 q 598 5 611 18 q 564 -8 585 -8 z "},"!":{"ha":324,"x_min":115,"x_max":210,"o":"m 132 972 l 192 972 l 190 217 l 133 217 l 132 972 m 163 -8 q 128 5 142 -8 q 115 38 115 18 q 128 72 115 58 q 163 85 142 85 q 196 72 182 85 q 210 38 210 58 q 196 5 210 18 q 163 -8 182 -8 z "},"¡":{"ha":297,"x_min":101,"x_max":196,"o":"m 149 703 q 182 690 168 703 q 196 657 196 676 q 182 623 196 636 q 149 610 168 610 q 115 623 128 610 q 101 657 101 636 q 115 690 101 676 q 149 703 128 703 m 119 478 l 176 478 l 178 -278 l 118 -278 l 119 478 z "},"?":{"ha":817,"x_min":51,"x_max":760,"o":"m 336 281 q 356 388 336 346 q 424 456 376 429 q 553 503 471 483 q 665 570 631 521 q 700 708 700 619 q 624 873 700 815 q 406 931 547 931 q 188 873 264 931 q 111 707 111 815 l 51 707 q 144 914 51 840 q 407 988 238 988 q 667 914 574 988 q 760 708 760 840 q 714 535 760 597 q 567 447 668 474 q 460 410 496 429 q 410 361 424 390 q 396 279 396 332 l 396 217 l 336 217 l 336 281 m 365 -8 q 332 5 346 -8 q 318 38 318 18 q 331 72 318 58 q 365 85 344 85 q 399 72 386 85 q 413 38 413 58 q 399 5 413 18 q 365 -8 386 -8 z "},"¿":{"ha":807,"x_min":53,"x_max":761,"o":"m 447 718 q 481 705 468 718 q 494 671 494 692 q 481 638 494 651 q 447 624 468 624 q 414 638 428 624 q 400 671 400 651 q 414 705 400 692 q 447 718 428 718 m 478 428 q 458 321 478 363 q 390 253 438 279 q 260 207 343 226 q 148 140 183 189 q 113 0 113 90 q 189 -164 113 -107 q 407 -221 265 -221 q 625 -163 549 -221 q 701 3 701 -106 l 761 3 q 669 -205 761 -132 q 407 -278 576 -278 q 146 -205 239 -278 q 53 0 53 -132 q 99 173 53 111 q 247 263 144 235 q 353 300 318 281 q 403 349 389 319 q 417 431 417 378 l 417 493 l 478 493 l 478 428 z "},"·":{"ha":299,"x_min":103,"x_max":197,"o":"m 150 360 q 117 373 131 360 q 103 406 103 386 q 117 440 103 426 q 150 453 131 453 q 184 440 171 453 q 197 406 197 426 q 184 373 197 386 q 150 360 171 360 z "},"•":{"ha":515,"x_min":133,"x_max":383,"o":"m 258 281 q 169 315 204 281 q 133 404 133 350 q 169 493 133 458 q 258 528 204 528 q 349 493 314 528 q 383 404 383 458 q 349 315 383 350 q 258 281 314 281 z "},"*":{"ha":476,"x_min":92,"x_max":389,"o":"m 389 853 l 271 821 l 346 724 l 306 694 l 236 796 l 163 694 l 122 724 l 200 821 l 92 853 l 106 896 l 213 864 l 211 972 l 261 972 l 258 861 l 375 896 l 389 853 z "},"‽":{"ha":839,"x_min":47,"x_max":783,"o":"m 418 988 q 688 915 593 988 q 783 708 783 842 q 585 443 783 510 q 497 404 525 422 q 456 358 468 386 q 444 278 444 329 l 444 217 l 386 217 l 385 719 l 444 719 l 443 426 q 494 466 464 450 q 571 497 525 482 q 724 710 724 551 q 645 874 724 817 q 418 931 567 931 q 186 873 265 931 q 107 707 107 815 l 47 707 q 142 915 47 842 q 418 988 238 988 m 414 85 q 448 72 435 85 q 461 38 461 58 q 448 5 461 18 q 414 -8 435 -8 q 381 5 394 -8 q 367 38 367 18 q 381 72 367 58 q 414 85 394 85 z "},"#":{"ha":867,"x_min":53,"x_max":815,"o":"m 815 693 l 675 693 l 574 288 l 707 288 l 707 232 l 561 232 l 503 0 l 443 0 l 500 232 l 224 232 l 167 0 l 106 0 l 163 232 l 53 232 l 53 288 l 176 288 l 276 693 l 161 693 l 161 749 l 290 749 l 346 972 l 407 972 l 351 749 l 629 749 l 685 972 l 744 972 l 689 749 l 815 749 l 815 693 m 515 288 l 617 694 l 338 694 l 236 288 l 515 288 z "},"/":{"ha":663,"x_min":39,"x_max":624,"o":"m 563 1053 l 624 1053 l 100 -114 l 39 -114 l 563 1053 z "},"\\":{"ha":663,"x_min":39,"x_max":624,"o":"m 624 -114 l 563 -114 l 39 1053 l 101 1053 l 624 -114 z "},"(":{"ha":442,"x_min":71,"x_max":404,"o":"m 374 -199 q 151 58 232 -106 q 71 414 71 222 q 151 769 71 606 q 374 1026 232 933 l 404 979 q 201 739 272 886 q 129 414 129 592 q 201 89 129 236 q 404 -151 272 -58 l 374 -199 z "},")":{"ha":442,"x_min":38,"x_max":371,"o":"m 38 -151 q 241 89 169 -58 q 313 414 313 236 q 241 739 313 592 q 38 979 169 886 l 68 1026 q 290 769 210 933 q 371 414 371 606 q 290 58 371 222 q 68 -199 210 -106 l 38 -151 z "},"{":{"ha":421,"x_min":53,"x_max":390,"o":"m 222 589 q 140 413 222 447 q 222 236 222 378 l 222 0 q 245 -88 222 -62 q 324 -114 268 -114 q 390 -106 349 -114 l 390 -157 q 308 -167 343 -167 q 201 -124 238 -167 q 164 0 164 -82 l 164 236 q 53 389 164 389 l 53 436 q 164 589 164 436 l 164 825 q 201 949 164 907 q 308 992 238 992 q 390 982 343 992 l 390 931 q 324 939 349 939 q 245 913 268 939 q 222 825 222 888 l 222 589 z "},"}":{"ha":421,"x_min":31,"x_max":368,"o":"m 257 589 q 368 436 257 436 l 368 389 q 257 236 257 389 l 257 0 q 220 -124 257 -82 q 113 -167 183 -167 q 31 -157 78 -167 l 31 -106 q 97 -114 72 -114 q 176 -88 153 -114 q 199 0 199 -62 l 199 236 q 281 413 199 378 q 199 589 199 447 l 199 825 q 176 913 199 888 q 97 939 153 939 q 31 931 72 939 l 31 982 q 113 992 78 992 q 220 949 183 992 q 257 825 257 907 l 257 589 z "},"[":{"ha":421,"x_min":129,"x_max":372,"o":"m 129 1006 l 372 1006 l 372 950 l 188 950 l 188 -125 l 372 -125 l 372 -181 l 129 -181 l 129 1006 z "},"]":{"ha":422,"x_min":49,"x_max":293,"o":"m 293 -181 l 49 -181 l 49 -125 l 235 -125 l 235 950 l 49 950 l 49 1006 l 293 1006 l 293 -181 z "},"-":{"ha":690,"x_min":103,"x_max":586,"o":"m 103 428 l 586 428 l 586 372 l 103 372 l 103 428 z "},"­":{"ha":690,"x_min":103,"x_max":586,"o":"m 103 428 l 586 428 l 586 372 l 103 372 l 103 428 z "},"–":{"ha":825,"x_min":103,"x_max":722,"o":"m 722 428 l 722 372 l 103 372 l 103 428 l 722 428 z "},"—":{"ha":975,"x_min":103,"x_max":872,"o":"m 872 428 l 872 372 l 103 372 l 103 428 l 872 428 z "},"_":{"ha":856,"x_min":103,"x_max":753,"o":"m 103 -39 l 753 -39 l 753 -96 l 103 -96 l 103 -39 z "},"‚":{"ha":294,"x_min":92,"x_max":194,"o":"m 147 85 q 181 72 168 85 q 194 38 194 58 q 183 -24 194 17 q 139 -151 171 -65 l 92 -151 l 135 -6 q 110 10 119 -3 q 100 38 100 22 q 114 72 100 58 q 147 85 128 85 z "},"„":{"ha":446,"x_min":92,"x_max":347,"o":"m 147 83 q 180 70 167 83 q 193 36 193 57 q 181 -24 193 17 q 138 -150 169 -64 l 92 -150 l 133 -6 q 109 9 118 -3 q 100 38 100 21 q 113 70 100 57 q 147 83 126 83 m 301 83 q 334 70 321 83 q 347 36 347 57 q 335 -24 347 17 q 292 -150 324 -64 l 246 -150 l 288 -6 q 263 9 272 -3 q 254 38 254 21 q 267 70 254 57 q 301 83 281 83 z "},"“":{"ha":435,"x_min":75,"x_max":331,"o":"m 176 972 l 135 829 q 159 815 150 826 q 168 786 168 803 q 155 752 168 765 q 122 739 142 739 q 89 752 103 739 q 75 786 75 765 q 87 847 75 807 q 131 972 99 888 l 176 972 m 289 829 q 313 815 304 826 q 322 786 322 803 q 309 752 322 765 q 276 739 296 739 q 243 752 257 739 q 229 786 229 765 q 241 847 229 807 q 285 972 253 888 l 331 972 l 289 829 z "},"”":{"ha":432,"x_min":118,"x_max":374,"o":"m 174 982 q 206 969 193 982 q 219 935 219 956 q 208 875 219 915 q 164 749 196 835 l 118 749 l 160 893 q 135 908 144 896 q 126 936 126 919 q 140 969 126 956 q 174 982 153 982 m 328 982 q 360 969 347 982 q 374 935 374 956 q 362 875 374 915 q 318 749 350 835 l 272 749 l 314 893 q 290 908 299 896 q 281 936 281 919 q 294 969 281 956 q 328 982 307 982 z "},"‘":{"ha":281,"x_min":75,"x_max":176,"o":"m 135 829 q 159 815 150 826 q 168 786 168 803 q 155 752 168 765 q 122 739 142 739 q 89 752 103 739 q 75 786 75 765 q 87 847 75 807 q 131 972 99 888 l 176 972 l 135 829 z "},"’":{"ha":278,"x_min":118,"x_max":219,"o":"m 174 982 q 206 969 193 982 q 219 935 219 956 q 208 875 219 915 q 164 749 196 835 l 118 749 l 160 893 q 135 908 144 896 q 126 936 126 919 q 140 969 126 956 q 174 982 153 982 z "},"«":{"ha":546,"x_min":71,"x_max":469,"o":"m 328 719 l 135 415 l 328 110 l 264 110 l 71 415 l 264 719 l 328 719 m 469 719 l 276 415 l 469 110 l 406 110 l 213 415 l 406 719 l 469 719 z "},"»":{"ha":546,"x_min":76,"x_max":475,"o":"m 140 719 l 333 415 l 140 110 l 76 110 l 269 415 l 76 719 l 140 719 m 282 719 l 475 415 l 282 110 l 218 110 l 411 415 l 218 719 l 282 719 z "},"‹":{"ha":403,"x_min":71,"x_max":326,"o":"m 326 719 l 135 415 l 326 110 l 264 110 l 71 415 l 264 719 l 326 719 z "},"›":{"ha":403,"x_min":76,"x_max":332,"o":"m 139 719 l 332 415 l 139 110 l 76 110 l 268 415 l 76 719 l 139 719 z "},"\"":{"ha":457,"x_min":107,"x_max":349,"o":"m 107 978 l 160 978 l 160 624 l 107 624 l 107 978 m 296 978 l 349 978 l 349 624 l 296 624 l 296 978 z "},"'":{"ha":268,"x_min":107,"x_max":160,"o":"m 107 978 l 160 978 l 160 624 l 107 624 l 107 978 z "}," ":{"ha":371,"x_min":0,"x_max":0,"o":""}," ":{"ha":275,"x_min":0,"x_max":0,"o":""},"​":{"ha":0,"x_min":0,"x_max":0,"o":""},"¢":{"ha":735,"x_min":69,"x_max":676,"o":"m 676 88 q 572 18 631 43 q 450 -11 514 -7 l 450 -143 l 392 -143 l 392 -11 q 226 43 300 -4 q 111 168 153 90 q 69 343 69 246 q 111 519 69 442 q 226 644 153 597 q 392 697 299 690 l 392 825 l 450 825 l 450 697 q 669 597 578 689 l 631 558 q 537 622 590 601 q 424 643 483 643 q 274 608 342 643 q 167 504 207 572 q 128 343 128 436 q 167 185 128 253 q 275 80 207 117 q 425 43 343 43 q 540 65 485 43 q 638 129 594 86 l 676 88 z "},"¤":{"ha":794,"x_min":96,"x_max":699,"o":"m 181 269 q 133 356 150 308 q 117 454 117 404 q 179 636 117 558 l 96 718 l 139 760 l 219 678 q 397 733 296 733 q 574 676 500 733 l 657 760 l 699 718 l 617 636 q 662 551 646 599 q 678 454 678 504 q 661 356 678 404 q 614 269 644 308 l 699 186 l 657 144 l 571 228 q 397 175 501 175 q 222 228 292 175 l 139 144 l 96 186 l 181 269 m 397 229 q 557 292 494 229 q 619 453 619 356 q 557 616 619 553 q 397 679 494 679 q 237 617 299 679 q 175 453 175 554 q 237 292 175 354 q 397 229 299 229 z "},"$":{"ha":910,"x_min":69,"x_max":842,"o":"m 842 249 q 748 62 842 132 q 492 -15 654 -8 l 492 -146 l 433 -146 l 433 -14 q 224 40 322 -8 q 69 165 125 89 l 111 207 q 257 89 158 135 q 463 43 356 43 q 695 98 610 43 q 781 247 781 153 q 751 346 781 307 q 651 413 721 385 q 450 465 581 440 q 240 526 317 492 q 128 611 163 561 q 93 736 93 661 q 135 864 93 808 q 254 952 178 919 q 432 989 331 985 l 432 1115 l 490 1115 l 490 988 q 666 947 586 982 q 801 850 746 913 l 763 807 q 630 899 710 867 q 456 932 550 932 q 235 878 318 932 q 153 736 153 825 q 182 640 153 678 q 278 574 211 601 q 463 524 344 547 q 690 460 608 494 q 806 375 771 425 q 842 249 842 325 z "},"€":{"ha":867,"x_min":43,"x_max":804,"o":"m 804 19 q 642 -10 726 -10 q 321 91 449 -10 q 161 368 193 192 l 43 368 l 56 421 l 154 421 q 151 481 151 460 q 154 540 151 501 l 43 540 l 56 594 l 161 594 q 321 881 193 778 q 647 985 449 985 q 768 969 711 985 l 756 914 q 647 926 703 926 q 363 839 475 926 q 221 594 251 751 l 617 594 l 603 540 l 214 540 q 211 482 211 501 q 214 421 211 460 l 571 421 l 557 368 l 222 368 q 364 133 254 218 q 642 49 474 49 q 789 75 715 49 l 804 19 z "},"ƒ":{"ha":531,"x_min":-17,"x_max":563,"o":"m 425 935 q 320 894 354 935 q 286 764 286 853 l 286 686 l 515 686 l 515 632 l 286 632 l 286 0 q 119 -226 286 -226 q -17 -182 44 -226 l 11 -139 q 115 -172 58 -172 q 201 -131 175 -172 q 228 0 228 -90 l 228 632 l 88 632 l 88 686 l 228 686 l 228 764 q 425 989 228 989 q 563 942 506 989 l 532 900 q 425 935 488 935 z "},"₴":{"ha":924,"x_min":28,"x_max":888,"o":"m 888 603 l 888 550 l 28 550 l 28 603 l 678 603 q 749 736 749 651 q 667 878 749 826 q 457 931 586 931 q 287 898 364 931 q 164 806 210 865 l 122 847 q 456 989 247 989 q 639 958 558 989 q 765 870 719 928 q 810 736 810 813 q 765 603 810 657 l 888 603 m 28 449 l 888 449 l 888 394 l 226 394 q 163 333 182 368 q 144 249 144 299 q 228 97 144 151 q 451 43 311 43 q 653 92 560 43 q 790 219 747 142 l 838 185 q 678 39 783 93 q 451 -15 574 -15 q 183 54 283 -15 q 83 247 83 124 q 139 394 83 339 l 28 394 l 28 449 z "},"₺":{"ha":797,"x_min":31,"x_max":753,"o":"m 753 363 l 753 329 q 714 156 753 231 q 604 41 675 82 q 440 0 533 0 l 156 0 l 156 361 l 31 315 l 31 375 l 156 421 l 156 578 l 31 532 l 31 592 l 156 638 l 156 972 l 215 972 l 215 658 l 583 793 l 583 733 l 215 599 l 215 443 l 583 578 l 583 518 l 215 383 l 215 58 l 435 58 q 622 130 550 58 q 693 329 693 201 l 693 363 l 753 363 z "},"₽":{"ha":918,"x_min":40,"x_max":865,"o":"m 550 972 q 719 933 649 972 q 828 824 790 893 q 865 664 865 754 q 828 504 865 574 q 719 396 790 435 q 550 357 649 357 l 210 357 l 210 239 l 515 239 l 515 182 l 210 182 l 210 0 l 149 0 l 149 182 l 40 182 l 40 239 l 149 239 l 149 357 l 40 357 l 40 414 l 149 414 l 149 972 l 550 972 m 549 414 q 738 482 672 414 q 804 664 804 550 q 738 845 804 778 q 549 913 672 913 l 210 913 l 210 414 l 549 414 z "},"£":{"ha":892,"x_min":82,"x_max":807,"o":"m 807 57 l 807 0 l 82 0 l 82 51 q 188 201 156 131 q 219 339 219 271 q 207 431 219 375 l 82 431 l 82 485 l 193 485 q 164 603 174 554 q 154 710 154 651 q 249 912 154 843 q 485 981 343 981 q 714 916 632 981 q 797 732 796 851 l 742 732 q 674 875 740 825 q 485 925 607 925 q 288 869 363 925 q 213 708 213 814 q 222 615 213 660 q 254 485 232 569 l 618 485 l 618 431 l 267 431 q 279 333 279 371 q 161 57 279 194 l 807 57 z "},"¥":{"ha":911,"x_min":43,"x_max":869,"o":"m 869 972 l 515 432 l 706 432 l 706 379 l 485 379 l 485 297 l 706 297 l 706 243 l 485 243 l 485 0 l 425 0 l 425 243 l 204 243 l 204 297 l 425 297 l 425 379 l 204 379 l 204 432 l 396 432 l 43 972 l 115 972 l 456 447 l 797 972 l 869 972 z "},"∙":{"ha":304,"x_min":103,"x_max":201,"o":"m 151 381 q 116 394 129 381 q 103 431 103 408 q 116 465 103 451 q 151 479 129 479 q 188 465 174 479 q 201 431 201 451 q 188 394 201 408 q 151 381 174 381 z "},"∕":{"ha":571,"x_min":-1,"x_max":572,"o":"m 511 972 l 572 972 l 60 0 l -1 0 l 511 972 z "},"+":{"ha":757,"x_min":103,"x_max":654,"o":"m 654 504 l 654 447 l 408 447 l 408 196 l 350 196 l 350 447 l 103 447 l 103 504 l 350 504 l 350 747 l 408 747 l 408 504 l 654 504 z "},"−":{"ha":725,"x_min":103,"x_max":622,"o":"m 103 504 l 622 504 l 622 447 l 103 447 l 103 504 z "},"×":{"ha":628,"x_min":101,"x_max":526,"o":"m 526 624 l 350 447 l 526 269 l 490 232 l 314 410 l 138 232 l 101 269 l 278 447 l 101 624 l 138 661 l 314 483 l 490 661 l 526 624 z "},"÷":{"ha":738,"x_min":103,"x_max":635,"o":"m 368 632 q 333 645 347 632 q 319 681 319 658 q 333 716 319 703 q 368 729 347 729 q 403 716 389 729 q 418 681 418 703 q 403 645 418 658 q 368 632 389 632 m 103 503 l 635 503 l 635 447 l 103 447 l 103 503 m 368 218 q 333 232 347 218 q 319 268 319 246 q 333 303 319 289 q 368 317 347 317 q 403 303 389 317 q 418 268 418 289 q 403 232 418 246 q 368 218 389 218 z "},"=":{"ha":757,"x_min":103,"x_max":653,"o":"m 103 606 l 653 606 l 653 550 l 103 550 l 103 606 m 103 332 l 653 332 l 653 276 l 103 276 l 103 332 z "},"≠":{"ha":757,"x_min":103,"x_max":653,"o":"m 653 550 l 476 550 l 336 332 l 653 332 l 653 276 l 300 276 l 229 167 l 189 192 l 243 276 l 103 276 l 103 332 l 279 332 l 421 550 l 103 550 l 103 606 l 457 606 l 528 715 l 567 690 l 513 606 l 653 606 l 653 550 z "},">":{"ha":499,"x_min":90,"x_max":435,"o":"m 128 722 l 435 457 l 435 426 l 128 160 l 90 201 l 367 442 l 90 681 l 128 722 z "},"<":{"ha":499,"x_min":64,"x_max":408,"o":"m 408 681 l 132 442 l 408 201 l 371 160 l 64 426 l 64 457 l 371 722 l 408 681 z "},"≥":{"ha":629,"x_min":115,"x_max":514,"o":"m 176 304 l 140 350 l 438 553 l 140 757 l 176 803 l 506 569 l 506 536 l 176 304 m 115 174 l 514 174 l 514 117 l 115 117 l 115 174 z "},"≤":{"ha":629,"x_min":115,"x_max":514,"o":"m 489 350 l 453 304 l 124 536 l 124 569 l 453 803 l 489 757 l 192 553 l 489 350 m 115 174 l 514 174 l 514 117 l 115 117 l 115 174 z "},"±":{"ha":757,"x_min":103,"x_max":654,"o":"m 350 251 l 350 478 l 106 478 l 106 533 l 350 533 l 350 767 l 408 767 l 408 533 l 651 533 l 651 478 l 408 478 l 408 251 l 350 251 m 103 126 l 654 126 l 654 69 l 103 69 l 103 126 z "},"≈":{"ha":853,"x_min":106,"x_max":735,"o":"m 592 469 q 515 484 551 469 q 425 528 479 499 q 349 567 381 554 q 285 581 318 581 q 208 558 240 581 q 154 492 175 535 l 106 513 q 175 601 129 568 q 279 633 221 633 q 358 619 321 633 q 446 575 394 604 q 523 537 492 550 q 586 524 554 524 q 689 599 653 524 l 735 575 q 592 469 688 469 m 592 232 q 513 247 550 232 q 425 290 475 263 q 347 329 378 317 q 285 342 317 342 q 154 253 196 342 l 106 275 q 175 363 129 329 q 279 396 221 396 q 358 381 321 396 q 446 338 394 367 q 523 299 492 313 q 586 286 554 286 q 689 360 653 286 l 735 338 q 592 232 688 232 z "},"~":{"ha":871,"x_min":106,"x_max":751,"o":"m 604 343 q 526 359 564 343 q 433 408 489 375 q 353 453 386 438 q 286 468 319 468 q 206 442 242 468 q 150 369 169 415 l 106 389 q 174 483 125 447 q 285 519 222 519 q 361 504 325 519 q 456 456 397 489 q 535 413 503 428 q 599 399 567 399 q 703 479 667 399 l 751 458 q 604 343 704 343 z "},"¬":{"ha":689,"x_min":103,"x_max":579,"o":"m 522 446 l 103 446 l 103 500 l 579 500 l 579 246 l 522 246 l 522 446 z "},"^":{"ha":790,"x_min":72,"x_max":718,"o":"m 718 535 l 650 535 l 394 907 l 139 535 l 72 535 l 372 972 l 415 972 l 718 535 z "},"∞":{"ha":1133,"x_min":100,"x_max":1033,"o":"m 826 671 q 933 642 886 671 q 1007 563 981 613 q 1033 454 1033 514 q 1007 345 1033 394 q 933 267 981 296 q 826 239 886 239 q 685 285 744 239 q 567 414 626 331 q 448 285 507 331 q 307 239 389 239 q 200 267 247 239 q 126 345 153 296 q 100 454 100 394 q 126 564 100 514 q 200 642 153 614 q 307 671 247 671 q 448 625 389 671 q 567 496 507 579 q 685 625 626 579 q 826 671 744 671 m 314 290 q 428 332 381 290 q 536 456 476 374 q 428 578 476 538 q 314 619 381 619 q 199 574 243 619 q 154 454 154 528 q 199 336 154 382 q 314 290 244 290 m 819 290 q 934 336 889 290 q 979 454 979 382 q 935 574 979 528 q 819 619 890 619 q 705 578 753 619 q 597 456 657 538 q 705 332 657 374 q 819 290 753 290 z "},"∅":{"ha":963,"x_min":69,"x_max":894,"o":"m 724 749 q 849 603 804 693 q 894 407 894 514 q 840 195 894 290 q 692 46 786 100 q 482 -8 599 -8 q 283 39 374 -8 l 215 -72 l 156 -72 l 240 65 q 115 211 160 122 q 69 407 69 300 q 123 619 69 524 q 271 768 176 714 q 482 822 365 822 q 679 775 589 822 l 747 886 l 808 886 l 724 749 m 128 407 q 165 240 128 315 q 269 114 203 164 l 649 726 q 482 767 575 767 q 301 719 382 767 q 174 590 219 672 q 128 407 128 508 m 482 47 q 663 94 582 47 q 790 224 744 142 q 836 407 836 306 q 798 575 836 499 q 693 700 760 651 l 313 88 q 482 47 389 47 z "},"∫":{"ha":614,"x_min":19,"x_max":599,"o":"m 156 -226 q 19 -182 83 -226 l 49 -139 q 151 -172 94 -172 q 238 -131 211 -172 q 265 0 265 -90 l 265 822 q 463 1047 265 1047 q 599 1000 539 1047 l 569 958 q 463 993 525 993 q 357 952 390 993 q 324 822 324 911 l 324 0 q 156 -226 324 -226 z "},"Ω":{"ha":1143,"x_min":82,"x_max":1061,"o":"m 1061 494 q 994 235 1061 356 q 817 57 926 114 l 1022 57 l 1022 0 l 679 0 l 679 56 q 845 142 772 78 q 960 297 918 206 q 1001 493 1001 389 q 948 722 1001 622 q 797 875 894 821 q 571 929 699 929 q 346 875 443 929 q 195 722 249 821 q 142 493 142 622 q 183 297 142 389 q 297 142 224 206 q 464 56 371 78 l 464 0 l 121 0 l 121 57 l 326 57 q 149 235 217 114 q 82 494 82 356 q 144 751 82 639 q 317 924 206 863 q 571 986 428 986 q 826 924 715 986 q 999 751 938 863 q 1061 494 1061 639 z "},"∆":{"ha":1025,"x_min":39,"x_max":986,"o":"m 543 972 l 986 0 l 39 0 l 482 972 l 543 972 m 513 899 l 129 57 l 894 57 l 513 899 z "},"∏":{"ha":954,"x_min":140,"x_max":813,"o":"m 140 972 l 813 972 l 813 -260 l 753 -260 l 753 914 l 200 914 l 200 -260 l 140 -260 l 140 972 z "},"∑":{"ha":807,"x_min":56,"x_max":728,"o":"m 146 58 l 728 58 l 728 0 l 56 0 l 56 35 l 418 499 l 82 938 l 82 972 l 719 972 l 719 914 l 171 914 l 482 510 l 482 488 l 146 58 z "},"√":{"ha":878,"x_min":36,"x_max":824,"o":"m 772 986 l 824 972 l 489 0 l 432 0 l 190 519 l 57 460 l 36 506 l 222 589 l 458 74 l 772 986 z "},"∂":{"ha":847,"x_min":69,"x_max":774,"o":"m 308 971 q 774 344 774 794 q 730 159 774 240 q 606 33 686 78 q 421 -11 526 -11 q 229 37 308 -11 q 110 164 150 85 q 69 336 69 243 q 110 506 69 426 q 229 635 150 586 q 419 683 308 683 q 577 647 504 683 q 690 549 650 610 q 538 775 644 678 q 289 921 432 872 l 308 971 m 421 43 q 581 85 514 43 q 681 193 647 126 q 715 336 715 260 q 681 480 715 413 q 581 588 647 547 q 421 629 514 629 q 263 589 329 629 q 162 481 196 549 q 128 336 128 414 q 162 190 128 257 q 262 83 196 122 q 421 43 328 43 z "},"µ":{"ha":836,"x_min":115,"x_max":722,"o":"m 722 686 l 722 0 l 665 0 l 664 133 q 554 28 625 67 q 403 -10 483 -10 q 271 16 332 -10 q 172 100 210 42 l 172 -333 l 115 -333 l 115 686 l 174 686 l 174 290 q 240 105 174 164 q 406 46 306 46 q 533 77 474 46 q 628 167 592 108 q 664 304 664 226 l 664 686 l 722 686 z "},"%":{"ha":1067,"x_min":56,"x_max":1011,"o":"m 265 572 q 114 629 172 572 q 56 776 56 686 q 114 924 56 867 q 265 981 172 981 q 417 924 358 981 q 476 776 476 867 q 417 629 476 686 q 265 572 358 572 m 811 972 l 874 972 l 256 0 l 193 0 l 811 972 m 265 622 q 379 665 335 622 q 424 776 424 708 q 379 888 424 844 q 265 931 335 931 q 152 888 196 931 q 108 776 108 844 q 152 665 108 708 q 265 622 196 622 m 801 -7 q 649 50 708 -7 q 590 197 590 107 q 649 344 590 288 q 801 401 708 401 q 953 344 894 401 q 1011 197 1011 288 q 953 50 1011 107 q 801 -7 894 -7 m 801 43 q 915 86 871 43 q 958 197 958 129 q 915 308 958 265 q 801 350 871 350 q 688 308 732 350 q 643 197 643 265 q 688 86 643 129 q 801 43 732 43 z "},"‰":{"ha":1586,"x_min":56,"x_max":1531,"o":"m 265 572 q 114 629 172 572 q 56 776 56 686 q 114 924 56 867 q 265 981 172 981 q 417 924 358 981 q 476 776 476 867 q 417 629 476 686 q 265 572 358 572 m 813 972 l 876 972 l 258 0 l 196 0 l 813 972 m 265 622 q 379 665 335 622 q 424 776 424 708 q 379 888 424 844 q 265 931 335 931 q 152 888 196 931 q 108 776 108 844 q 152 665 108 708 q 265 622 196 622 m 806 -7 q 654 50 713 -7 q 596 197 596 107 q 654 344 596 288 q 806 401 713 401 q 957 344 899 401 q 1015 197 1015 288 q 957 50 1015 107 q 806 -7 899 -7 m 1319 -7 q 1168 50 1226 -7 q 1110 197 1110 107 q 1168 344 1110 288 q 1319 401 1226 401 q 1472 344 1413 401 q 1531 197 1531 288 q 1472 50 1531 107 q 1319 -7 1413 -7 m 806 43 q 919 86 875 43 q 963 197 963 129 q 919 308 963 265 q 806 350 875 350 q 692 308 736 350 q 649 197 649 265 q 692 86 649 129 q 806 43 736 43 m 1319 43 q 1433 86 1389 43 q 1478 197 1478 129 q 1434 308 1478 265 q 1319 350 1390 350 q 1206 308 1250 350 q 1163 197 1163 265 q 1206 86 1163 129 q 1319 43 1250 43 z "},"↑":{"ha":674,"x_min":47,"x_max":628,"o":"m 628 563 l 589 524 l 368 742 l 368 122 l 307 122 l 307 743 l 85 524 l 47 563 l 338 853 l 628 563 z "},"↗":{"ha":696,"x_min":60,"x_max":599,"o":"m 188 728 l 599 728 l 597 317 l 543 317 l 542 628 l 103 190 l 60 233 l 500 672 l 188 674 l 188 728 z "},"→":{"ha":904,"x_min":103,"x_max":833,"o":"m 543 772 l 833 482 l 543 192 l 504 231 l 722 451 l 103 451 l 103 513 l 724 513 l 504 735 l 543 772 z "},"↘":{"ha":696,"x_min":60,"x_max":599,"o":"m 188 250 l 188 304 l 500 306 l 60 744 l 103 788 l 542 350 l 543 661 l 597 660 l 599 250 l 188 250 z "},"↓":{"ha":674,"x_min":47,"x_max":628,"o":"m 589 451 l 628 413 l 338 122 l 47 413 l 85 451 l 307 232 l 307 853 l 368 853 l 368 233 l 589 451 z "},"↙":{"ha":696,"x_min":97,"x_max":635,"o":"m 635 744 l 196 306 l 508 304 l 508 250 l 97 250 l 97 660 l 151 661 l 153 349 l 592 788 l 635 744 z "},"←":{"ha":904,"x_min":71,"x_max":801,"o":"m 801 513 l 801 451 l 182 451 l 400 231 l 361 192 l 71 482 l 361 772 l 400 735 l 181 513 l 801 513 z "},"↖":{"ha":696,"x_min":97,"x_max":635,"o":"m 635 233 l 592 190 l 154 628 l 151 317 l 97 318 l 97 728 l 508 728 l 508 674 l 196 672 l 635 233 z "},"◊":{"ha":801,"x_min":71,"x_max":729,"o":"m 425 972 l 729 486 l 425 0 l 375 0 l 71 486 l 375 972 l 425 972 m 401 64 l 664 486 l 401 907 l 138 486 l 401 64 z "},"":{"ha":1611,"x_min":69,"x_max":1542,"o":"m 69 625 l 69 683 l 115 683 l 115 708 q 136 768 115 746 q 197 790 157 790 l 250 790 l 250 732 l 210 732 q 182 706 182 732 l 182 683 l 250 683 l 250 625 l 185 625 l 185 425 l 113 425 l 113 625 l 69 625 m 1465 640 q 1414 661 1435 640 q 1393 714 1393 682 q 1414 767 1393 746 q 1465 788 1435 788 q 1518 767 1497 788 q 1539 714 1539 746 q 1518 662 1539 683 q 1465 640 1497 640 m 1465 657 q 1507 674 1490 657 q 1524 714 1524 690 q 1506 754 1524 738 q 1465 771 1488 771 q 1425 754 1442 771 q 1408 714 1408 738 q 1425 674 1408 690 q 1465 657 1442 657 m 1021 425 q 952 451 978 425 q 926 519 926 476 l 926 629 l 881 629 l 881 644 l 985 754 l 996 754 l 996 686 l 1069 686 l 1069 629 l 1000 629 l 1000 528 q 1039 489 1000 489 l 1069 489 l 1069 425 l 1021 425 m 1469 751 q 1490 744 1482 751 q 1499 726 1499 738 q 1494 713 1499 719 q 1482 706 1489 707 l 1501 676 l 1482 676 l 1465 703 l 1457 703 l 1457 676 l 1438 676 l 1438 751 l 1469 751 m 1469 717 q 1479 726 1479 717 q 1469 736 1479 736 l 1457 736 l 1457 717 l 1469 717 m 411 418 q 309 457 350 418 q 268 556 268 496 q 309 656 268 615 q 411 696 350 696 q 511 656 471 696 q 551 556 551 615 q 511 457 551 496 q 411 418 471 418 m 651 686 l 664 656 q 750 693 699 693 q 821 663 794 693 q 847 583 847 633 l 847 425 l 776 425 l 776 574 q 731 632 776 632 q 689 613 704 632 q 674 561 674 593 l 674 425 l 603 425 l 603 686 l 651 686 m 411 485 q 460 504 440 485 q 481 556 481 524 q 460 608 481 588 q 411 629 440 629 q 360 608 379 629 q 340 556 340 588 q 360 504 340 524 q 411 485 379 485 m 69 201 l 69 260 l 115 260 l 115 285 q 136 344 115 322 q 197 367 157 367 l 250 367 l 250 308 l 210 308 q 182 281 182 308 l 182 260 l 250 260 l 250 201 l 185 201 l 185 0 l 113 0 l 113 201 l 69 201 m 1149 364 l 1219 364 l 1219 300 l 1149 300 l 1149 364 m 761 -6 q 679 22 718 -6 l 674 0 l 618 0 l 618 357 l 692 357 l 692 247 q 761 272 721 272 q 860 232 821 272 q 899 132 899 192 q 860 33 899 72 q 761 -6 821 -6 m 404 -6 q 306 33 344 -6 q 268 132 268 72 q 307 232 268 192 q 404 272 346 272 q 490 239 457 272 l 500 263 l 551 263 l 551 0 l 496 0 l 490 25 q 404 -6 456 -6 m 1408 -6 q 1308 35 1349 -6 q 1268 132 1268 75 q 1308 232 1268 192 q 1408 272 1349 272 q 1496 242 1458 272 q 1542 163 1533 211 l 1472 163 q 1408 204 1454 204 q 1359 184 1378 204 q 1340 132 1340 164 q 1360 81 1340 101 q 1408 61 1381 61 q 1446 72 1429 61 q 1472 104 1463 83 l 1542 104 q 1496 25 1533 56 q 1408 -6 1458 -6 m 996 263 l 1008 232 q 1085 265 1036 265 l 1106 265 l 1106 199 l 1075 199 q 1033 184 1046 199 q 1021 138 1021 169 l 1021 0 l 950 0 l 950 263 l 996 263 m 1149 263 l 1219 263 l 1219 0 l 1149 0 l 1149 263 m 411 61 q 464 81 443 61 q 485 132 485 101 q 464 184 485 164 q 411 204 443 204 q 360 184 381 204 q 340 132 340 164 q 360 81 340 101 q 411 61 381 61 m 756 61 q 808 81 788 61 q 829 132 829 101 q 808 184 829 164 q 756 204 788 204 q 705 184 725 204 q 685 132 685 164 q 705 81 685 101 q 756 61 725 61 z "},"@":{"ha":1238,"x_min":79,"x_max":1192,"o":"m 638 869 q 926 804 800 869 q 1122 621 1051 739 q 1192 349 1192 503 q 1163 184 1192 251 q 1087 83 1133 117 q 988 50 1040 50 q 901 82 935 50 q 856 169 867 114 q 758 74 819 110 q 618 38 696 38 q 474 76 538 38 q 374 179 410 114 q 339 325 339 244 q 374 468 339 404 q 474 568 410 532 q 618 604 538 604 q 757 567 694 604 q 849 472 819 529 l 853 590 l 904 590 l 904 239 q 992 106 904 106 q 1092 164 1050 106 q 1133 347 1133 222 q 1072 594 1133 488 q 899 757 1011 700 q 638 814 786 814 q 379 752 493 814 q 201 580 265 690 q 138 329 138 469 q 199 82 138 189 q 375 -84 261 -25 q 638 -143 489 -143 q 853 -86 758 -143 l 878 -136 q 636 -199 769 -199 q 346 -133 472 -199 q 149 53 219 -67 q 79 328 79 172 q 150 609 79 486 q 348 801 221 732 q 638 869 475 869 m 622 92 q 737 122 685 92 q 819 205 789 153 q 849 319 849 257 q 819 436 849 383 q 737 519 789 489 q 622 549 685 549 q 460 487 524 549 q 397 325 397 425 q 426 205 397 258 q 507 122 456 151 q 622 92 558 92 z "},"&":{"ha":918,"x_min":79,"x_max":894,"o":"m 851 -10 l 706 135 q 558 25 640 63 q 386 -12 476 -12 q 226 17 296 -12 q 118 102 157 47 q 79 229 79 157 q 142 392 79 317 q 314 522 204 468 q 224 644 251 589 q 197 763 197 700 q 231 878 197 826 q 323 958 264 929 q 456 986 382 986 q 614 929 551 986 q 676 785 676 872 q 609 628 676 689 q 413 510 542 568 l 700 224 q 766 358 740 285 q 794 485 792 431 l 850 476 q 814 324 843 400 q 740 183 785 249 l 894 31 l 851 -10 m 456 929 q 313 882 368 929 q 257 760 257 835 q 282 663 257 710 q 374 549 307 615 q 554 656 493 604 q 615 783 615 707 q 571 889 615 849 q 456 929 526 929 m 388 43 q 538 76 467 43 q 665 175 610 110 l 354 482 q 197 373 254 439 q 140 232 140 307 q 208 94 140 144 q 388 43 275 43 z "},"¶":{"ha":1078,"x_min":46,"x_max":1053,"o":"m 1053 917 l 883 917 l 883 -301 l 826 -301 l 826 917 l 442 917 l 442 -301 l 385 -301 l 385 272 q 209 317 286 272 q 89 443 132 363 q 46 624 46 524 q 90 803 46 724 q 216 927 135 882 q 404 972 297 972 l 1053 972 l 1053 917 z "},"§":{"ha":742,"x_min":81,"x_max":656,"o":"m 522 331 q 620 267 585 310 q 656 168 656 224 q 581 32 656 81 q 372 -17 507 -17 q 201 18 278 -17 q 81 115 124 53 l 124 153 q 226 67 163 97 q 372 38 290 38 q 538 72 479 38 q 596 169 596 107 q 537 265 596 228 q 378 304 478 301 q 178 356 250 308 q 106 489 106 404 q 143 592 106 547 q 240 651 181 636 q 144 714 178 672 q 111 813 111 756 q 183 941 111 893 q 375 989 256 989 q 511 968 453 989 q 618 901 569 947 l 582 861 q 490 918 539 900 q 376 936 442 936 q 226 901 283 936 q 169 811 169 867 q 226 718 169 754 q 379 678 283 682 q 582 624 513 672 q 651 492 651 576 q 617 391 651 433 q 522 331 582 349 m 165 490 q 222 393 165 428 q 379 358 278 358 q 537 393 481 358 q 593 490 593 428 q 537 588 593 553 q 379 624 481 624 q 222 588 278 624 q 165 490 165 553 z "},"©":{"ha":1163,"x_min":81,"x_max":1082,"o":"m 582 -17 q 323 47 438 -17 q 144 226 208 111 q 81 486 81 340 q 144 747 81 632 q 322 925 208 861 q 582 989 436 989 q 842 925 728 989 q 1019 747 956 861 q 1082 486 1082 632 q 1019 226 1082 340 q 842 47 956 111 q 582 -17 728 -17 m 582 36 q 814 93 713 36 q 972 252 915 150 q 1028 486 1028 354 q 972 720 1028 618 q 814 879 915 822 q 582 936 713 936 q 350 879 451 936 q 192 719 249 822 q 136 486 136 617 q 192 253 136 356 q 350 93 249 150 q 582 36 451 36 m 604 215 q 467 251 528 215 q 370 349 406 286 q 335 488 335 411 q 369 628 335 567 q 465 725 404 690 q 604 760 526 760 q 710 739 660 760 q 797 681 761 718 l 765 644 q 694 692 735 675 q 604 708 653 708 q 447 647 507 708 q 386 488 386 586 q 414 374 386 425 q 492 295 442 324 q 604 267 542 267 q 760 331 696 267 l 794 294 q 707 235 756 256 q 604 215 658 215 z "},"®":{"ha":510,"x_min":65,"x_max":444,"o":"m 254 989 q 392 937 339 989 q 444 803 444 885 q 391 668 444 721 q 254 615 338 615 q 118 667 171 615 q 65 803 65 719 q 118 937 65 885 q 254 989 171 989 m 254 653 q 365 694 324 653 q 407 803 407 735 q 365 912 407 871 q 254 953 324 953 q 144 911 186 953 q 103 803 103 869 q 144 694 103 735 q 254 653 186 653 m 339 836 q 327 797 339 814 q 296 774 315 781 l 340 707 l 300 707 l 260 768 l 217 768 l 217 707 l 185 707 l 185 903 l 267 903 q 319 884 299 903 q 339 836 339 865 m 307 836 q 296 862 307 853 q 265 871 285 871 l 217 871 l 217 800 l 265 800 q 296 810 285 800 q 307 836 307 819 z "},"℗":{"ha":1163,"x_min":81,"x_max":1082,"o":"m 582 989 q 842 925 728 989 q 1019 747 956 861 q 1082 486 1082 632 q 1019 226 1082 340 q 842 47 956 111 q 582 -17 728 -17 q 323 47 438 -17 q 144 226 208 111 q 81 486 81 340 q 144 747 81 632 q 322 925 208 861 q 582 989 436 989 m 582 36 q 814 93 713 36 q 972 252 915 150 q 1028 486 1028 354 q 972 720 1028 618 q 814 879 915 822 q 582 936 713 936 q 350 879 451 936 q 192 719 249 822 q 136 486 136 617 q 192 253 136 356 q 350 93 249 150 q 582 36 451 36 m 651 740 q 778 693 729 740 q 828 571 828 646 q 778 448 828 496 q 651 400 729 400 l 472 400 l 472 210 l 418 210 l 418 740 l 651 740 m 647 453 q 739 485 704 453 q 774 571 774 517 q 739 656 774 624 q 647 689 704 689 l 472 689 l 472 453 l 647 453 z "},"™":{"ha":1092,"x_min":86,"x_max":974,"o":"m 86 926 l 86 972 l 456 972 l 456 926 l 296 926 l 296 585 l 246 585 l 246 926 l 86 926 m 932 972 l 974 972 l 974 585 l 924 585 l 924 885 l 769 686 l 754 686 l 600 883 l 600 585 l 550 585 l 550 972 l 592 972 l 763 753 l 932 972 z "}}}
